<?xml version="1.0" encoding="UTF-8"?>
<svg id="Capa_2" data-name="Capa 2" xmlns="http://www.w3.org/2000/svg" viewBox="0 0 412 412">
  <defs>
    <style>
      .cls-1 {
        fill: #f5f8fd;
      }

      .cls-2 {
        fill: #0055d4;
      }
    </style>
  </defs>
  <g id="Capa_1-2" data-name="Capa 1">
    <circle class="cls-2" cx="206" cy="206" r="206"/>
    <path class="cls-1" d="M116.85,219.02c-10.66-52.56-2.01,30.08,10.95,37.1,12.36,6.7,22.52-8.64,31.42-16.6,39.37-35.18,77.78-71.43,116.77-107.04,24.61-22.48,35.76-19.06,43.02,13.96,8.19,37.27,7.05,75.33,6.76,113.18-.12,15.17-6.92,24.55-24.14,18.26-26.16-9.55-48.41-26.06-71.56-40.91-5.04-3.23-8.25-8.11-3.6-14.29,4.2-5.57,9.49-5.73,15.04-2.42,3.93,2.35,7.22,6.12,11.39,7.65,14.29,5.26,24.56,29.02,43.34,12.63,10.31-9.01,3.14-75.86-7.27-83.02-14.6-10.04-23.57,2.87-32.05,10.78-32.73,30.52-64.53,62.03-96.97,92.87-9.13,8.69-18.98,16.69-28.95,24.41-16.44,12.73-29.03,12.04-35.17-10.71-11.24-41.65-11.57-83.96-7.64-126.42,1.51-16.29,10.02-22.48,25.89-13.56,22.01,12.38,44.29,24.28,66.22,36.81,7.11,4.06,13.93,9.23,7.4,19.09-4.82,7.29-9.29,5.91-16.95,2.43-25.52-11.6-27.62,22.13-46.02,25.33-5.64-2.17-9.1-6.13-10.01-12.17,.43,4.27,1.27,8.47,2.13,12.67Z"/>
    <path class="cls-2" d="M117.85,219.02c-9.35-13.31-6.49-27.79-3.38-41.96,1.42-6.48,4.76-13.54,13.43-11.9,5.32,1.01,11.63,2.97,15.02,6.73,6.84,7.58-2.03,11.32-6.1,15.65-8.26,8.8-20.53,15.93-11.09,30.98-2.63,.16-5.25,.33-7.88,.49Z"/>
    <path class="cls-2" d="M121.07,218.43c1.93,0,1.93-3,0-3s-1.93,3,0,3h0Z"/>
    <path class="cls-2" d="M121.29,220.68c-.27-.15-.53-.31-.78-.49-.08-.05-.15-.11-.23-.16-.22-.16,.19,.16,.05,.04-.12-.1-.24-.2-.35-.3-.23-.2-.45-.42-.66-.65-.12-.12-.23-.25-.34-.38-.04-.05-.08-.1-.12-.14-.21-.25,.2,.28,0,.01-.36-.5-.69-1.02-.96-1.58-.04-.08-.08-.17-.12-.25-.08-.18,.02,.04,.04,.1-.05-.16-.13-.32-.18-.48-.11-.31-.2-.62-.27-.93-.18-.76-1.09-1.29-1.85-1.05-.79,.26-1.24,1.03-1.05,1.85,.7,2.93,2.68,5.53,5.3,7.01,.68,.39,1.67,.19,2.05-.54s.19-1.64-.54-2.05h0Z"/>
    <path class="cls-1" d="M314.57,246.5c1.93,0,1.93-3,0-3s-1.93,3,0,3h0Z"/>
    <path class="cls-1" d="M243.67,225.33c4.13,2.37,8.42,4.63,12.01,7.79,.61,.53,1.52,.6,2.12,0,.54-.54,.61-1.58,0-2.12-3.8-3.33-8.26-5.75-12.62-8.26-1.68-.96-3.19,1.63-1.51,2.59h0Z"/>
    <path class="cls-1" d="M111.48,201.51c-.15-3.08,.24-6.15,.53-9.21s.56-6.08,.84-9.12c.13-1.46-2.17-2.08-2.8-.76-1.25,2.66-1.65,5.43-1.26,8.33,.22,1.66,3.08,1.28,2.95-.4-.14-1.78,.08-3.47,.67-5.15,.64-1.83-2.26-2.61-2.89-.8-.67,1.91-.93,3.94-.77,5.95l2.95-.4c-.27-2.03,.08-4.17,.95-6.02l-2.8-.76c-.28,3.04-.56,6.08-.84,9.12s-.68,6.13-.53,9.21c.09,1.92,3.09,1.93,3,0h0Z"/>
    <path class="cls-1" d="M111.5,199.95c.09-1.34,.12-2.68,.09-4.02-.02-.78-.68-1.54-1.5-1.5s-1.52,.66-1.5,1.5c.03,1.34,0,2.68-.09,4.02-.02,.37,.18,.81,.44,1.06s.69,.46,1.06,.44c.86-.04,1.44-.66,1.5-1.5h0Z"/>
    <path class="cls-1" d="M108.48,199.46v.65c0,.37,.17,.81,.44,1.06l.3,.23c.17,.11,.36,.17,.56,.18,.32,.04,.68,0,.96-.18,.32-.21,.6-.51,.69-.9,.1-.42,.1-.8,.01-1.23-.06-.28-.21-.53-.32-.79l.15,.36c-.03-.09-.05-.17-.06-.26l.05,.4c-.05-.47-.04-.96,.01-1.43,0-.21-.04-.4-.13-.58-.06-.19-.16-.35-.31-.48-.26-.26-.69-.46-1.06-.44s-.79,.14-1.06,.44l-.23,.3c-.14,.23-.2,.49-.2,.76-.04,.36-.06,.71-.04,1.07,.01,.28,.04,.57,.09,.85s.19,.51,.3,.76l-.15-.36c.03,.08,.06,.16,.07,.25l-.05-.4c.01,.09,.01,.17,0,.26l.05-.4s-.01,.08-.02,.13l2.95,.4v-.65c0-.39-.17-.79-.44-1.06s-.69-.46-1.06-.44-.79,.14-1.06,.44-.44,.66-.44,1.06h0Z"/>
    <path class="cls-1" d="M107.38,195.95c.01,.08,.02,.16,.03,.23l-.05-.4c.17,1.25,.23,2.51,.19,3.77-.02,.79,.71,1.54,1.5,1.5,.84-.04,1.47-.66,1.5-1.5,0-.18,.01-.37,.02-.55,.03-.78-.71-1.54-1.5-1.5-.84,.04-1.47,.66-1.5,1.5,0,.18-.01,.37-.02,.55h3c.04-1.48-.07-2.94-.28-4.41-.05-.35-.4-.73-.69-.9-.32-.19-.8-.27-1.16-.15s-.71,.34-.9,.69l-.15,.36c-.07,.27-.07,.53,0,.8h0Z"/>
    <path class="cls-1" d="M107.65,195.64c.01,.09,.03,.19,.04,.28l-.05-.4c.2,1.5,.29,3.01,.26,4.53l2.95-.4c-.01-.09-.03-.18-.04-.28l.05,.4c-.15-1.17-.21-2.36-.17-3.54,.03-.79-.71-1.54-1.5-1.5-.83,.04-1.47,.66-1.5,1.5-.05,1.42,.06,2.82,.27,4.22,.05,.33,.4,.75,.69,.9,.3,.16,.62,.22,.96,.18,.74-.1,1.29-.72,1.3-1.47,.03-1.75-.11-3.48-.36-5.2-.05-.34-.4-.73-.69-.9-.32-.19-.8-.27-1.16-.15s-.71,.34-.9,.69c-.2,.38-.21,.73-.15,1.16h0Z"/>
    <path class="cls-1" d="M108.81,194.47c-.26,3.11-.31,6.24-.15,9.36,.04,.78,.66,1.54,1.5,1.5,.78-.03,1.54-.66,1.5-1.5-.16-3.12-.11-6.25,.15-9.36,.06-.78-.74-1.53-1.5-1.5-.87,.04-1.43,.66-1.5,1.5h0Z"/>
    <path class="cls-1" d="M111.87,204.96c.14-1.29-.06-2.59-.25-3.87-.02-.15-.04-.31-.07-.46-.06-.44,.04,.31-.02-.12-.04-.3-.07-.61-.09-.92s-.03-.61-.02-.91c0-.13,0-.26,.02-.39,0-.09,.01-.17,.02-.26-.03,.18-.03,.19,0,.01,.13-.77-.2-1.65-1.05-1.85-.72-.16-1.71,.22-1.85,1.05-.24,1.44-.11,2.81,.1,4.25,.04,.31,.09,.61,.13,.92,.02,.11,.01,.09,0-.07,.01,.09,.02,.17,.03,.26,.02,.15,.03,.31,.05,.46,.06,.63,.07,1.26,0,1.9-.09,.78,.75,1.53,1.5,1.5,.89-.04,1.41-.66,1.5-1.5h0Z"/>
  </g>
</svg>