<?xml version="1.0" encoding="UTF-8"?>
<svg id="Capa_2" data-name="Capa 2" xmlns="http://www.w3.org/2000/svg" viewBox="0 0 165.03 5.85">
  <defs>
    <style>
      .cls-1 {
        fill: #01c18c;
      }

      .cls-2 {
        fill: #0c564d;
      }

      .cls-3 {
        fill: #10344c;
      }

      .cls-4 {
        fill: #0f3d4c;
      }

      .cls-5 {
        fill: #09694e;
      }

      .cls-6 {
        fill: #057f4c;
      }

      .cls-7 {
        fill: #018d47;
      }
    </style>
  </defs>
  <g id="Capa_1-2" data-name="Capa 1">
    <path class="cls-3" d="M.49,5.85C-.33,4.18,.12,2.42,.15,.7,.15,.25,.68,.01,1.22,.01c2.06,0,4.12,0,6.18,0,.63,0,1.1,.29,1.13,.89,.06,1.35,0,2.7,.03,4.04,0,.39-.47,.53-.43,.9H.49Z"/>
    <path class="cls-4" d="M26.65,5.85c-.86-1.67-.38-3.43-.36-5.15,0-.45,.56-.69,1.11-.69,2.14,0,4.29,0,6.43,0,.65,0,1.15,.29,1.17,.89,.06,1.35,0,2.7,.03,4.04,0,.39-.48,.53-.45,.9h-7.93Z"/>
    <path class="cls-2" d="M52.55,5.85c-.83-1.67-.37-3.43-.35-5.15,0-.45,.53-.69,1.07-.69,2.06,0,4.12,0,6.18,0,.63,0,1.1,.29,1.13,.89,.06,1.35,0,2.69,.03,4.04,0,.39-.46,.53-.43,.9h-7.62Z"/>
    <path class="cls-6" d="M104.61,5.85c-.83-1.67-.37-3.43-.35-5.15,0-.45,.54-.69,1.07-.69,2.06,0,4.12,0,6.18,0,.63,0,1.1,.29,1.13,.89,.06,1.35,0,2.69,.03,4.04,0,.39-.46,.53-.43,.9h-7.62Z"/>
    <path class="cls-7" d="M130.53,5.85c-.83-1.67-.37-3.43-.35-5.15,0-.45,.54-.69,1.07-.69,2.06,0,4.12,0,6.18,0,.63,0,1.1,.29,1.13,.89,.06,1.35,0,2.69,.03,4.04,0,.39-.46,.53-.43,.9h-7.62Z"/>
    <path class="cls-1" d="M156.98,5.85c-.85-1.67-.36-3.43-.35-5.15,0-.45,.54-.69,1.07-.68,2.06,0,4.11,.02,6.17-.01,.49,0,.75,.38,1.17,.43V5.22c-.16,.27-.37,.48-.65,.62h-7.41Z"/>
    <path class="cls-5" d="M78.69,5.85c-.83-1.67-.37-3.43-.35-5.15,0-.45,.53-.69,1.07-.69,1.99,0,3.97,0,5.96,0,.63,0,1.1,.29,1.13,.89,.06,1.35,0,2.69,.03,4.04,0,.39-.46,.53-.43,.9h-7.41Z"/>
  </g>
</svg>