<?xml version="1.0" encoding="UTF-8"?>
<svg id="Capa_2" data-name="Capa 2" xmlns="http://www.w3.org/2000/svg" viewBox="0 0 425 425">
  <defs>
    <style>
      .cls-1 {
        fill: #f9fcfc;
      }

      .cls-2 {
        fill: #24ad8e;
      }

      .cls-3 {
        fill: #fefefe;
      }
    </style>
  </defs>
  <g id="Capa_1-2" data-name="Capa 1">
    <circle class="cls-2" cx="212.5" cy="212.5" r="212.5"/>
    <rect class="cls-1" x="51" y="53" width="80" height="318" rx="38.29" ry="38.29"/>
    <path class="cls-3" d="M396.84,248.67c-16.91-15.93-34.87-10.88-50.63,3.59-17.79,16.33-35.85,32.43-53.02,49.31-8.72,8.58-14.69,8.06-23.36-.23-27.48-26.26-55.37-52.19-83.86-77.51-10.25-9.11-9.27-15.14,.43-23.8,27.74-24.76,55.22-49.81,81.72-75.7,10.74-10.49,17.51-9.71,27.52,.41,16.25,16.43,33.92,31.66,50.93,47.44,15.85,14.7,33.55,19.39,50.42,3.25,15.44-14.77,11.91-30.82-3.2-44.88-28.55-26.56-57.09-53.11-85.82-79.49-16.34-15-34.12-16.65-50.83-1.29-34.12,31.38-67.49,63.47-101.17,95.26-21.18,18.63-34.96,30.88-44.98,38.97-.56,.45-8.08,7.05-10.73,10.04-1.93,2.57-2.34,3.46-1.05,2.05-3.03,4.56-3.69,12.07-2.06,18.5,0,0,0,0-.01-.01,.03,.09,.06,.19,.08,.29,.11,.14,.19,.25,.2,.26,.03,.04,.05,.08,.08,.12,.06,.09,.12,.17,.17,.26-.13-.13-.25-.25-.38-.37,0,.06,.01,.11,.02,.17,.06,.18,.1,.36,.13,.54,0,.02,0,.03,.01,.05,0,.02,0,.04,.01,.07,.11,.27,.19,.55,.24,.83,.02,.06,.06,.13,.08,.19,.23,.39,.47,.77,.72,1.14,33.02,33.68,102.14,102.73,154.69,152.75,21,19.99,35.43,19.49,56.84,.21,27.63-24.88,54.57-50.4,81.87-75.59,15.63-14.43,21.91-30.81,4.92-46.82Z"/>
    <circle class="cls-1" cx="282" cy="213" r="30"/>
  </g>
</svg>