<?xml version="1.0" encoding="UTF-8"?>
<svg id="Capa_2" data-name="Capa 2" xmlns="http://www.w3.org/2000/svg" viewBox="0 0 168 168.23">
  <defs>
    <style>
      .cls-1 {
        fill: #fff;
      }

      .cls-2 {
        fill: #4c4c4c;
      }

      .cls-3 {
        fill: #f96800;
      }
    </style>
  </defs>
  <g id="Capa_1-2" data-name="Capa 1">
    <circle class="cls-1" cx="84" cy="84.23" r="84"/>
    <path class="cls-3" d="M30,40.24c0,.98,0,1.97,0,2.95,0,20.86-.04,41.72,.05,62.58,.01,2.48-.55,3.36-3.17,3.27-6.2-.19-12.42-.21-18.61,0-2.59,.09-3.49-.93-4.17-3.22C-6.04,71.76,8,33.52,37.79,14.05,53.84,3.55,71.46-1.31,90.5,.3c39.66,3.36,68.32,32.53,74.92,66.62,2.57,13.27,1.87,26.28-1.74,39.23-.58,2.07-1.46,2.96-3.79,2.9-6.3-.18-12.62-.2-18.92,0-2.66,.08-3.16-.85-3.15-3.3,.09-20.96,.06-41.92,.03-62.89,0-.87,.29-1.81-.41-2.88-.9,.83-1.78,1.6-2.61,2.42-16.28,16.22-32.58,32.43-48.78,48.73-1.71,1.72-2.58,1.66-4.26-.02-16.21-16.3-32.51-32.5-48.77-48.74-.78-.78-1.38-1.74-2.07-2.62-.32,.16-.64,.32-.96,.49Z"/>
    <path class="cls-2" d="M55.67,92.02c8.32,8.19,16.71,16.32,24.91,24.63,1.93,1.96,2.9,1.83,4.75-.05,10.2-10.36,20.53-20.59,30.84-30.83,.68-.68,1.2-1.62,2.29-1.88,.79,.8,.39,1.76,.39,2.61,.03,12.51,.08,25.02-.03,37.53-.02,2.33,.69,2.9,2.93,2.88,10.47-.11,20.93-.05,31.62-.05-.29,1.84-1.41,3.02-2.31,4.27-14.37,19.93-33.68,32.01-58.11,34.76-30.51,3.44-55.58-7.32-75.22-30.86-.32-.38-.53-.86-.79-1.29-.54-1.2-1.12-2.37-1.94-3.43-.57-.74-1.73-1.44-1.09-2.59,.54-.96,1.66-.5,2.52-.5,9.24-.03,18.48-.02,27.72-.02,3.34,0,3.37-.01,3.37-3.38,.01-11.27,0-22.55,0-33.82,0-.81-.03-1.63,.04-2.44,.05-.6,.04-1.27,.73-1.53,.72-.27,1.08,.34,1.52,.72,1.99,1.7,3.48,3.97,5.85,5.25Z"/>
  </g>
</svg>