<?xml version="1.0" encoding="UTF-8"?>
<svg id="Capa_2" data-name="Capa 2" xmlns="http://www.w3.org/2000/svg" viewBox="0 0 249.04 249.04">
  <defs>
    <style>
      .cls-1 {
        fill: #e5a91e;
      }

      .cls-2 {
        fill: #fefefe;
      }
    </style>
  </defs>
  <g id="Capa_2-2" data-name="Capa 2">
    <circle class="cls-1" cx="124.52" cy="124.52" r="124.52"/>
    <path class="cls-2" d="M171.55,67.74c0,3.33-.2,6.67,.05,9.98,.33,4.47-1.24,4.13-4.35,2.31-11.33-6.66-22.84-13.01-34.13-19.73-5.76-3.43-11.04-3.44-16.85-.05-23.59,13.71-47.29,27.23-70.96,40.8-4.59,2.63-4.62,2.61-4.64-2.65-.02-4.66-.02-9.32,0-13.98,.03-5.99,2.57-10.53,7.82-13.54,22.8-13.07,45.6-26.16,68.39-39.26,5.23-3,10.42-3,15.63,0,11.97,6.88,23.91,13.82,35.95,20.59,2.35,1.32,3.31,2.88,3.15,5.55-.2,3.32-.05,6.65-.05,9.98h0Z"/>
    <path class="cls-2" d="M115.4,76.59c0,8.18,.2,15.3-.08,22.4-.16,4.16,.8,4.85,4.94,3.72,18.91-5.14,37.95,5.75,43.07,24.26,5.11,18.47-5.4,37.5-23.76,43-21.96,6.58-44.56-9.31-45.14-32.08-.39-15.31-.09-30.64-.1-45.96,0-1.49-.21-3.07,1.39-3.99,6.28-3.63,12.57-7.25,19.67-11.34h0Z"/>
    <path class="cls-1" d="M129.51,149.36c-7.93,.06-14.33-6.17-14.44-14.07-.11-8.08,6.44-14.7,14.46-14.6,7.84,.09,14.26,6.57,14.25,14.38,0,7.85-6.39,14.23-14.28,14.29h.01Z"/>
    <path class="cls-2" d="M149.55,206.61c-6.76,3.84-12.72,7.47-18.9,10.65-4.26,2.19-8.8,1.76-12.94-.62-23.23-13.34-46.43-26.73-69.63-40.14-4.69-2.71-7.29-6.92-7.34-12.29-.15-14.48-.06-28.96-.07-43.44,0-1.34-.1-2.76,1.27-3.55,7.56-4.41,15.14-8.78,23.56-13.66v28.3c0,5.33,.23,10.66-.06,15.98-.38,7.18,2.76,11.8,8.93,15.3,23.3,13.23,46.44,26.72,69.64,40.12,1.57,.91,3.11,1.88,5.55,3.36h-.01Z"/>
    <path class="cls-2" d="M135.91,187.67c10.72-6.2,20.6-11.98,30.53-17.66,17.21-9.84,16.29-8.54,16.24-27.98-.06-24.31-.02-48.62,0-72.93,0-5.24,.04-5.25,4.64-2.62,4.04,2.32,8.06,4.69,12.1,7,5.24,2.99,7.92,7.5,7.93,13.5,.03,26.31,.03,52.61,0,78.92,0,6-2.71,10.48-7.93,13.5-11.97,6.9-23.92,13.83-35.85,20.79-1.83,1.07-3.38,1.63-5.5,.35-6.97-4.21-14.08-8.2-22.15-12.87h-.01Z"/>
  </g>
</svg>