<?xml version="1.0" encoding="UTF-8"?>
<svg id="Capa_2" data-name="Capa 2" xmlns="http://www.w3.org/2000/svg" viewBox="0 0 48 48">
  <defs>
    <style>
      .cls-1 {
        fill: #4635c8;
      }

      .cls-2 {
        fill: #fdfdfe;
      }

      .cls-3 {
        fill: #4231c7;
      }

      .cls-4 {
        fill: #fefefe;
      }
    </style>
  </defs>
  <g id="Capa_1-2" data-name="Capa 1">
    <path class="cls-3" d="M46.5,13.9c.03-2.21-.81-3.68-2.68-4.82-4.26-2.61-8.62-5.07-12.99-7.48-.19,.02-.39,.03-.59,.03-.89,0-1.65-.2-2.3-.53-.33-.04-.64-.09-.93-.18-.25,.04-.51,.06-.79,.06-.23,0-.45-.02-.67-.04-.2,.02-.4,.04-.62,.04-.12,0-.22-.01-.34-.02-.15,.01-.31,.02-.47,.02-.27,0-.53-.02-.79-.06-.45,.13-.93,.22-1.46,.22-.35,0-.67-.03-.98-.09-.29,.05-.59,.08-.91,.08-.41,.1-.85,.16-1.33,.16-.08,0-.15,0-.22-.01-.08,.04-.15,.07-.23,.11-4.39,2.42-8.74,4.94-13.06,7.49-2.14,1.27-3.08,2.97-3.11,5.4-.09,6-.06,12-.02,18.01,.02,2.57,.96,4.37,3.25,5.69,5.86,3.36,11.48,7.22,18.14,8.95,.26-.04,.53-.06,.81-.06,.35,0,.68,.03,.99,.09,6.82-1.76,12.57-5.69,18.53-9.19,1.87-1.1,2.78-2.53,2.75-4.77-.08-6.37-.08-12.74,0-19.11Z"/>
    <path class="cls-4" d="M25.11,47.96c5.18-4.12,11.22-6.83,16.89-10.11,2.25-1.3,3.01-2.69,2.94-5.19-.17-5.76-.15-11.53,0-17.29,.05-1.99-.57-3.11-2.31-4.06-5.47-3.01-10.89-6.13-16.26-9.33-1.46-.87-2.54-.87-4,0-5.47,3.26-10.99,6.44-16.56,9.53-1.5,.83-2.01,1.82-1.98,3.49,.09,6.25,.12,12.51-.02,18.77-.04,1.93,.83,2.79,2.31,3.69,5.81,3.54,12.11,6.28,17.51,10.51-7.23,0-14.47-.05-21.7,.04-1.48,.02-1.94-.18-1.93-1.83C.09,31.46,.06,16.75,.03,2.04,.03,.75-.1-.01,1.75,0c14.83,.11,29.67,.11,44.5,0,1.85-.01,1.73,.74,1.72,2.03-.03,14.71-.06,29.42,.03,44.13,0,1.65-.45,1.85-1.93,1.83-6.99-.09-13.97-.04-20.96-.04Z"/>
    <path class="cls-2" d="M37.64,16.15c-4.4,2.6-8.21,4.77-11.94,7.08-1.35,.83-2.3,.19-3.37-.43-2.3-1.33-4.6-2.65-7.43-4.28v14.79c-3.13-.26-4.19-1.79-3.82-4.46,.03-.24,0-.49,0-.74q-.02-12.75,11.44-18.64c1.38-.71,2.38-.79,3.71,.02,3.55,2.17,7.19,4.2,11.42,6.65Z"/>
    <path class="cls-1" d="M30.36,16.02c-6.93,4.9-5.06,4.77-11.74,.32,4.72-4.58,5.18-4.6,11.74-.32Z"/>
  </g>
</svg>