<?xml version="1.0" encoding="UTF-8"?>
<svg id="Capa_2" data-name="Capa 2" xmlns="http://www.w3.org/2000/svg" viewBox="0 0 400.03 402.01">
  <defs>
    <style>
      .cls-1 {
        fill: #1ab091;
      }

      .cls-2 {
        fill: #fdfdfd;
      }

      .cls-3 {
        fill: #8bd7c8;
      }

      .cls-4 {
        fill: #53c4ad;
      }
    </style>
  </defs>
  <g id="Capa_2-2" data-name="Capa 2">
    <g>
      <path class="cls-1" d="M198.93,0h1.92c4.61,2.63,9.25,5.2,13.85,7.87,9.64,5.6,19.3,11.15,28.95,16.73,8.41,4.86,16.81,9.73,25.22,14.57,9.76,5.63,19.52,11.26,29.28,16.88,8.38,4.82,16.76,9.65,25.13,14.49,8.82,5.09,17.65,10.18,26.48,15.26,10.22,5.88,20.46,11.7,30.7,17.53,6.11,3.48,12.25,6.91,18.33,10.44,.67,.39,1.16,.85,1.11,1.68v170.78c.1,.79-.3,1.24-.96,1.61-15.26,8.43-30.23,17.34-45.35,26.01-13.91,7.97-27.78,16-41.66,24.01-11.04,6.37-22.08,12.75-33.12,19.13-11.25,6.49-22.5,12.98-33.76,19.47-8.93,5.15-17.86,10.32-26.79,15.46-5.06,2.91-10.04,5.95-15.2,8.67-.35,.19-.68,.42-1,.66-1.36,1.03-3.11,1.02-4.36-.08-1.29-1.13-2.9-1.67-4.35-2.51-15.54-8.97-31.08-17.95-46.62-26.93-13.43-7.76-26.85-15.52-40.29-23.25-15.03-8.65-30.06-17.31-45.09-25.97-12.81-7.38-25.65-14.72-38.49-22.06-7.15-4.09-14.32-8.13-21.48-12.2-.8-.45-1.34-1-1.27-1.98,0-56.94,0-113.87,0-170.8-.04-.72,.29-1.16,.94-1.5,6.33-3.26,12.38-7.01,18.56-10.53,9.3-5.3,18.56-10.69,27.84-16.04,7.41-4.27,14.81-8.55,22.22-12.83,9.21-5.31,18.41-10.62,27.63-15.93,7.96-4.59,15.92-9.19,23.88-13.78,8.69-5.01,17.38-10.02,26.06-15.03,8.37-4.84,16.73-9.7,25.12-14.51,8.11-4.65,16.12-9.48,24.34-13.94,.77-.42,1.49-.92,2.22-1.4Z"/>
      <path class="cls-4" d="M0,114.95c.09,.02,.17,.03,.26,.05,0,.64-.02,1.28-.02,1.92,0,55.96,0,111.92,0,167.89,0,.68-.03,1.36-.05,2.04-.06-.02-.13-.05-.19-.07,0-57.27,0-114.55,0-171.82Z"/>
      <path class="cls-3" d="M399.76,114.98c.09-.01,.18-.02,.27-.04v171.82l-.11,.02h-.11c0-.65-.02-1.29-.02-1.93,0-55.99,0-111.97,0-167.96,0-.64-.02-1.28-.03-1.92Z"/>
      <path class="cls-2" d="M265.04,270.21c-2.03-1.17-3.99-2.3-5.95-3.43-18.27-10.53-36.54-21.06-54.81-31.6-.9-.52-1.79-1.07-2.6-1.71-1.21-.96-1.38-1.83-.54-3.13,.73-1.14,1.58-2.21,2.45-3.25,9.84-11.84,19.68-23.67,29.53-35.5,.18-.22,.36-.43,.55-.64,1.78-1.93,3.12-2.16,5.41-.86,3.43,1.96,6.84,3.97,10.27,5.94,35.94,20.74,71.89,41.48,107.83,62.22,1.08,.62,2.05,1.38,3.13,2.29-1.61,1-3.14,1.99-4.71,2.9-36.8,21.26-73.61,42.5-110.41,63.75-13.42,7.75-26.85,15.48-40.21,23.32-3.48,2.04-6.59,2.01-10.09-.03-50.05-29.13-100.22-58.08-150.45-86.89-3.17-1.82-4.68-4.3-4.66-7.98,.08-20.2,.09-40.39,.08-60.59,0-1.18,.32-1.45,1.41-1.17,.79,.2,1.52,.48,2.21,.89,16.51,9.82,33.25,19.24,49.88,28.86,41.08,23.75,82.17,47.47,123.26,71.2,.59,.34,1.18,.67,1.77,1.01,2.7,1.52,5.35,1.41,7.91-.31,12.65-8.46,25.5-16.63,38.29-24.88,.13-.08,.23-.2,.46-.41Z"/>
      <path class="cls-2" d="M360.19,173.7c0,9.68,0,19.35,0,29.03,0,.8,.01,1.6-.2,2.38-.33,1.22-.93,1.62-2.12,1.18-.93-.34-1.81-.83-2.68-1.33-25.64-14.71-51.27-29.41-76.9-44.13-33.66-19.34-67.32-38.69-100.97-58.04-1.39-.8-2.79-1.56-4.35-1.98-3.04-.82-5.66,.26-8.14,1.86-7.15,4.62-14.42,9.04-21.7,13.45-4.78,2.9-9.56,5.8-14.38,8.64-.93,.55-.82,.92-.17,1.55,.61,.58,1.27,1.09,2.01,1.5,14.61,8.16,29,16.71,43.53,25,6.17,3.52,12.35,7.04,18.52,10.57,3.32,1.9,3.5,2.89,1.02,5.79-10.58,12.37-20.96,24.89-31.25,37.49-1.94,2.37-3.26,2.63-5.9,1.1-29.41-16.96-58.82-33.92-88.22-50.88-8.44-4.87-16.89-9.73-25.33-14.6-.79-.46-1.54-1-2.31-1.5-.43-.28-.44-.58-.15-.99,.45-.64,1.02-1.12,1.69-1.49,10.64-5.86,21.07-12.06,31.59-18.13,38.09-21.97,76.15-43.99,114.23-65.99,2.42-1.4,4.89-2.72,7.24-4.23,3.17-2.04,6.14-1.95,9.41-.04,21.57,12.57,43.18,25.06,64.8,37.54,28.54,16.47,57.1,32.89,85.66,49.33,.42,.24,.83,.49,1.24,.72,2.63,1.45,3.86,3.7,3.83,6.69-.05,4.64-.1,9.27-.12,13.91-.02,5.2,0,10.4,0,15.6,.04,0,.08,0,.12,0Z"/>
    </g>
  </g>
</svg>