<?xml version="1.0" encoding="UTF-8"?>
<svg id="Capa_2" data-name="Capa 2" xmlns="http://www.w3.org/2000/svg" viewBox="0 0 362.27 362.21">
  <defs>
    <style>
      .cls-1 {
        fill: #fdbc40;
      }

      .cls-2 {
        fill: #fcfcfc;
      }
    </style>
  </defs>
  <g id="Capa_2-2" data-name="Capa 2">
    <path class="cls-1" d="M0,180.98C-.16,80.92,80.81-.86,182.85,0c98.74,.84,180.27,80.76,179.42,183.63-.83,99.13-82.23,179.66-183.11,178.56C80.27,361.13-.14,281.44,0,180.98Z"/>
    <path class="cls-2" d="M335.29,181.98c.28,83.38-68.7,153.48-154.41,153.35-86.18-.13-154.03-70.02-153.9-154.04,.13-87.27,71.21-156.05,158.16-154.37,82.61,1.6,150.31,70.05,150.16,155.06Z"/>
    <path class="cls-1" d="M115.15,97.42c3.19,.33,6.85-.2,10.54-.7,5.91-.81,11.12,1.01,15.74,4.67,3.54,2.8,6.38,6.27,8.98,9.92,4.52,6.36,9.63,12.25,14.61,18.24,2.22,2.67,4.38,5.4,6.6,8.08,1.96,2.37,3.26,2.38,5.19,.03,7.44-9.1,14.86-18.21,22.29-27.31,2.25-2.75,4.45-5.56,6.81-8.21,2.37-2.67,5.17-4.68,9-4.5,6.53,.3,11.15,6.96,9.21,13.25-.8,2.58-2.4,4.66-4.08,6.71-10.65,13.02-21.29,26.06-31.94,39.08-10.5,12.84-21,25.68-31.49,38.52-10.62,13-21.24,26-31.86,38.99-7.54,9.22-15.04,18.47-22.68,27.6-2.43,2.91-5.73,4.39-9.61,3.72-3.95-.68-6.85-2.88-8.14-6.75-1.21-3.62-.55-7.1,1.77-10.09,3.58-4.61,7.32-9.09,11.01-13.61,9.18-11.23,18.34-22.48,27.57-33.67,6.94-8.42,13.62-17.05,20.78-25.29,1.9-2.19,1.93-2.9,.07-5.17-9.09-11.1-18.2-22.18-27.29-33.28-6.05-7.39-12.11-14.77-18.13-22.19-1.42-1.75-2.49-3.71-2.81-6-.75-5.26,2.83-10.4,8.04-11.54,3.08-.67,6.21-.39,9.86-.51Z"/>
    <path class="cls-1" d="M247.53,264.8c-3.52-.52-7.57,.42-11.67,.68-6.16,.39-11.42-1.79-16.03-5.77-3.17-2.74-5.65-6.07-8.05-9.47-4.67-6.6-10.02-12.65-15.2-18.84-1.79-2.14-3.53-4.34-5.32-6.49-2.3-2.78-3.41-2.71-5.71,.1-9.37,11.49-18.75,22.97-28.15,34.44-1.83,2.23-4.01,4.05-6.87,4.79-4.12,1.06-7.5-.38-10.18-3.48-2.73-3.16-2.93-6.78-1.45-10.57,.91-2.31,2.57-4.13,4.11-6.01,11.72-14.37,23.45-28.73,35.18-43.1,14.77-18.08,29.55-36.13,44.3-54.22,12.05-14.78,24.05-29.58,36.06-44.39,1.97-2.43,4.18-4.57,7.28-5.41,3.94-1.07,7.27,.25,10.03,3.05,2.79,2.82,3.35,6.22,2.25,9.97-.89,3.01-2.94,5.27-4.86,7.62-9.37,11.5-18.72,23-28.11,34.48-8.6,10.52-17.23,21.01-25.85,31.52-.53,.65-1.08,1.29-1.58,1.96-1.89,2.52-1.88,4.25,.11,6.69,1.97,2.42,3.98,4.8,5.96,7.2,8.71,10.58,17.42,21.17,26.12,31.76,4.19,5.09,8.36,10.2,12.54,15.3,2.48,3.03,3.72,6.42,2.75,10.35-.96,3.91-4.69,6.93-9.04,7.54-2.67,.38-5.35,.18-8.64,.29Z"/>
  </g>
</svg>