<svg xmlns="http://www.w3.org/2000/svg" id="Modo_de_aislamiento" data-name="Modo de aislamiento" viewBox="0 0 233.66 167.16"><defs><style>.cls-2{fill:#f7ab5a}.cls-4{fill:#f8a923}.cls-5{fill:#e5252b}</style></defs><g id="Capa_1" data-name="Capa 1"><rect width="192.12" height="167.16" rx="19.91" ry="19.91" style="fill:#1b1930"/><path d="M26.95 77.57h203.12v29.35H26.95z" style="fill:#fff"/><path d="M233.66 85.59v9.5c-.25.14-.15.39-.18.6-.18 1.49-.3 2.98-.55 4.46-1.64 9.76-5.08 18.77-11.04 26.76-2.85 3.82-5.91 7.43-9.47 10.59-10.01 8.89-21.65 14.23-34.96 15.95-1.11.14-2.25.11-3.34.45h-9.34c-.16-.22-.4-.14-.61-.16-1.21-.13-2.43-.22-3.64-.39-9.12-1.29-17.61-4.35-25.41-9.27-2.93-1.85-5.75-3.87-8.28-6.25 1.07-1.03 2.14-2.05 3.21-3.08.07-.55-.36-.32-.56-.32-2.09-.02-4.19 0-6.28 0-1.15-1.06-2.16-2.24-3.13-3.47.3-.3.68-.2 1.02-.2h11.63c.35 0 .73.1 1.03-.18.75-.96 1.51-1.92 2.24-2.9.14-.18.44-.37.3-.63-.14-.23-.46-.11-.7-.11-5.11 0-10.23 0-15.34-.01-1.11 0-2.37.37-3.28-.15-.96-.55-1.39-1.83-2.02-2.8-.18-.27-.55-.59-.41-.86.18-.34.65-.16 1-.16 7.56 0 15.12 0 22.68-.01.34 0 .78.16 1.01-.19.67-1.03 1.3-2.1 1.83-3.34h-28.05c-.47 0-.77-.1-.98-.57-.4-.92-.83-1.81-1.28-2.71-.29-.57-.1-.75.49-.71.22.02.44 0 .67 0 10.03 0 20.06-.01 30.09.02.8 0 1.2-.24 1.44-.99.28-.87.66-1.7 1-2.55-.1-.64-.6-.32-.89-.32-11.14-.02-22.28-.02-33.42-.02-.41 0-.84.06-1.22-.16-.41-1.03-.81-2.07-1.02-3.17.23-.55.71-.33 1.09-.33 11.88-.01 23.77 0 35.65-.01.38 0 .78.11 1.12-.18.23-.85.47-1.7.68-2.56.27-1.13.26-1.12-.93-1.13l-8.23-.06c.1-1.32.42-2.6.69-3.89h8.21c1.4 2.93 3.67 4.81 6.81 5.65 2.74.73 5.5.6 8.25.07 1.85-.36 1.85-.35 2.18-2.17.26-1.42.53-2.84.82-4.35-.46.17-.8.3-1.14.42-1.8.61-3.6 1.09-5.54.89-2.75-.28-4.77-2.02-5.33-4.71-.35-1.69-.17-3.37.2-5.03 1.03-4.54 4.57-7.32 9.04-7.06 1.62.09 3.18.52 4.63 1.25.68.35.8.15.91-.49.24-1.56.53-3.11.85-4.66.09-.44-.04-.6-.44-.7-.86-.21-1.71-.46-2.57-.67-4.12-.98-8.09-.73-11.87 1.33-2.04 1.11-3.64 2.71-5.04 4.52-.04-.36-.05-.72-.11-1.07-.2-1.19-.21-1.19-1.46-1.19h-27.31c-4.11 0-8.21-.01-12.32-.02.03-.24 0-.5.08-.72.27-.74.14-1.17-.75-1.11.06-.67.14-1.34.36-1.98h39.54c.37 0 .79.14 1.1-.21-.28-1.2-.56-2.4-.83-3.6-.33-.31-.74-.19-1.11-.19h-36.61c-.38 0-.78.1-1.13-.16.22-1.2.58-2.36 1.02-3.49.42 0 .83-.01 1.25-.01h34.32c.37 0 .79.14 1.09-.23-.44-1.14-.88-2.27-1.32-3.41-.33-.3-.74-.18-1.12-.18H111c-.38 0-.78.11-1.12-.18.29-.99.8-1.89 1.16-2.84.25-.66.64-.82 1.31-.82 9.44.02 18.89.01 28.33.01.22 0 .45-.01.67 0 .47.03.61-.13.37-.57-.46-.86-.93-1.71-1.33-2.59-.3-.67-.73-.9-1.48-.9-7.97.03-15.94.02-23.92.02h-.67c-.56.02-.72-.16-.4-.67.54-.84 1.09-1.67 1.58-2.55.32-.59.74-.77 1.4-.77 6.47.02 12.94.02 19.42 0 .29 0 .6.09.93-.11-.51-.94-1.21-1.72-1.78-2.6-.38-.58-.82-.78-1.51-.78-4.81.03-9.61.02-14.42 0-.28 0-.6.13-.88-.17 1.01-1.26 1.99-2.54 3.14-3.67 2.97 0 5.93.01 8.9-.01.21 0 .71.31.67-.32-.63-.65-1.28-1.29-1.89-1.96-.84-.91-1.89-1.6-2.65-2.59.39-.36.76-.73 1.16-1.07 15.71-12.75 33.57-17.49 53.46-13.85 17.62 3.23 31.3 12.76 41.49 27.32 5.71 8.16 8.96 17.34 10.21 27.22.14 1.08.09 2.19.45 3.24Zm-37.33.86s-.07-.06-.1-.09c.12-.68.21-1.37.36-2.04.12-.52-.03-.69-.56-.68-1.64.03-3.28.04-4.92 0-.58-.02-.7.27-.78.71-1.29 6.89-2.57 13.78-3.9 20.67-.15.76.1.81.71.8 1.72-.03 3.45-.03 5.17 0 .63.01.91-.14 1.03-.82.5-2.86 1.06-5.72 1.64-8.57.35-1.68.75-3.36 1.64-4.86.56-.95 1.32-1.75 2.51-1.6.92.12 1.14-.25 1.3-1.04.39-1.9 1.14-3.69 2.15-5.41-1.73-.33-3.17.09-4.41 1.15-.65.55-1.23 1.2-1.83 1.8Zm17.67 17.3c-.08.54-.11.87-.19 1.19-.16.66.09.84.75.82 1.64-.05 3.28-.04 4.92 0 .61.02.77-.19.89-.77.78-3.78 1.4-7.6 2.25-11.38 1.08-4.78 1.84-9.63 2.77-14.44.1-.52-.02-.62-.5-.61-1.22.02-2.44-.01-3.67.01-.85.02-1.96-.36-2.49.16-.51.51-.44 1.6-.6 2.44-.32 1.62-.62 3.25-.95 4.96-.22-.18-.35-.28-.47-.39-3.58-3.15-7.97-3.44-11.71-.52-4.57 3.56-6.26 8.4-5.26 14.03.77 4.33 3.91 6.81 8 6.82 2.31 0 4.34-.76 6.25-2.34Zm-44.51-14.49c1.32-.39 2.52-.63 3.73-.76 1.99-.23 3.98-.38 5.98-.06 1.41.23 1.99.93 1.9 2.24-.05.71-.24 1.05-1.1.97-2.7-.23-5.39-.1-7.98.8-3.13 1.08-5.35 2.99-5.85 6.46-.49 3.4 1.12 6.2 4.22 6.96 3.04.75 5.89.2 8.42-1.74.18-.14.29-.41.63-.36-.05.42-.07.83-.15 1.24-.1.56.06.78.68.76 1.42-.04 2.84-.07 4.25 0 .76.04.97-.24 1.08-.94.62-3.91 1.31-7.82 1.94-11.73.2-1.23.6-2.44.5-3.7-.24-3.07-1.87-5.01-4.97-5.8-4.02-1.02-7.99-.44-11.92.62-.34.09-.44.31-.49.59-.28 1.43-.56 2.87-.87 4.44Zm54.14 14.33c-.02 1.7 1.25 3.04 2.94 3.08 1.66.05 3.05-1.28 3.08-2.95a3.018 3.018 0 0 0-2.95-3.09c-1.66-.05-3.05 1.29-3.07 2.96Z" class="cls-4"/><path d="M143.8 66.95c.44 1.14.88 2.27 1.32 3.41-.39.02-.77.07-1.16.07-11.5 0-22.99 0-34.49.01-.34 0-.72-.15-1.02.17-.44 1.14-.8 2.29-1.02 3.49.03.63.52.32.77.32 11.33.02 22.67.02 34 .02 1.36 0 2.72.02 4.08.02.28 1.2.56 2.4.83 3.6-.39.02-.77.05-1.16.05H107.5c-.34 0-.72-.14-1.03.16-.22.64-.3 1.31-.36 1.98-1.64.02-3.28.07-4.91.03-.67-.02-.91.21-1.04.83-1.33 6.48-2.72 12.96-3.68 19.51-.44 3.03 1.11 5.06 4.14 5.52 1.54.24 3.04-.07 4.55-.28 1.08-.15 1.92-.45 1.88-1.76 0-.05.06-.09.09-.14 1.67.09 3.35.16 5.02-.04.87.47 1.71 1.02 2.65 1.36 3.51 1.24 7.08 1.06 10.67.52 1.16-.17 2.32-.29 2.46-1.82.78.1 1.56.09 2.34 0 .07.31.01.61-.08.9-.2.65-.13.99.72.95 1.49-.08 2.98-.02 4.47-.02q1.45 0 1.78-1.44c.03-.13.1-.25.16-.38l8.23.06c1.18 0 1.2 0 .93 1.13-.21.86-.45 1.71-.68 2.56-.39 0-.78.02-1.17.02h-36.51c-.4.03-.38.23-.18.5.21 1.1.61 2.14 1.02 3.17.18.56.65.31.99.32 11.17.01 22.34.01 33.51.02.34 0 .73-.13 1.03.16-.34.85-.73 1.68-1 2.55-.24.75-.64.99-1.44.99-10.03-.03-20.06-.02-30.09-.02-.22 0-.45.01-.67 0-.58-.04-.77.14-.49.71.45.89.89 1.79 1.28 2.71.2.46.51.57.98.57 2.95-.02 5.89 0 8.84 0h19.21c-.54 1.23-1.16 2.3-1.83 3.34-.23.35-.67.19-1.01.19-7.56 0-15.12 0-22.68.01-.34 0-.82-.18-1 .16-.14.27.23.59.41.86.64.97 1.06 2.24 2.02 2.8.91.52 2.17.15 3.28.15 5.11.01 10.23 0 15.34.01.24 0 .56-.12.7.11.15.25-.16.44-.3.63-.73.98-1.49 1.93-2.24 2.9-4.35 0-8.7 0-13.04.01-.22 0-.46-.04-.66.03-.29.09-.1.23.02.34.96 1.23 1.98 2.41 3.13 3.47.25.25.57.16.86.16 1.71 0 3.42 0 5.13.01.28 0 .61-.13.85.16-1.07 1.03-2.14 2.05-3.21 3.08-.26.21-.52.42-.77.63-9.78 8.3-21.02 13.32-33.76 14.98-1.14.15-2.3.1-3.4.46h-9.67c-.11-.24-.33-.15-.51-.17-3.6-.32-7.16-.89-10.66-1.81-12.94-3.39-23.84-10.11-32.58-20.22-8.43-9.75-13.42-21.05-14.99-33.86-.15-1.25-.12-2.53-.45-3.75v-8c.21-.08.15-.27.17-.42.14-1.85.35-3.7.65-5.53 1.98-12.07 6.92-22.8 15.15-31.83C51.09 31.87 69.83 24.83 92 27.16c10.92 1.15 20.81 5.18 29.75 11.54 1.79 1.27 3.44 2.71 5.17 4.06.76.99 1.82 1.68 2.65 2.59.61.67 1.26 1.31 1.89 1.96-.23.31-.56.17-.85.17-2.58.01-5.17 0-7.75.01-.33 0-.67-.08-.96.15-1.16 1.12-2.13 2.4-3.14 3.67.28.3.6.17.88.17 4.81 0 9.61.02 14.42 0 .69 0 1.13.2 1.51.78.57.87 1.27 1.66 1.78 2.6-.33.2-.64.11-.93.11-6.47 0-12.94.01-19.42 0-.66 0-1.08.18-1.4.77-.48.87-1.04 1.71-1.58 2.55-.33.51-.17.7.4.67h.67c7.97 0 15.94.01 23.92-.02.75 0 1.18.22 1.48.9.4.88.87 1.73 1.33 2.59.24.44.1.6-.37.57-.22-.01-.44 0-.67 0-9.44 0-18.89 0-28.33-.01-.67 0-1.06.17-1.31.82-.36.96-.87 1.85-1.16 2.84-.04.7.51.33.72.33 7.19.03 14.38.02 21.57.02 3.86 0 7.72.01 11.57.02ZM51.09 86.32c.06.02.12.04.19.06-.03.27-.04.55-.09.82-1.11 5.99-2.22 11.99-3.36 17.97-.1.52.02.61.5.6 1.89-.02 3.78-.03 5.67 0 .54.01.66-.24.73-.65.13-.74.26-1.47.4-2.21 1.53-7.86 3.06-15.72 4.61-23.57.12-.59.05-.81-.64-.8-2.97.04-5.95.04-8.92 0-.67 0-1.01.16-1.26.83-1.92 4.96-3.88 9.89-5.85 14.83-.09.22-.05.57-.48.64 0-1 .02-1.97 0-2.94-.08-4.22-.18-8.43-.26-12.65 0-.5-.1-.72-.68-.72-2.83.03-5.67.03-8.5 0-.49 0-.65.16-.74.64-.55 2.94-1.14 5.87-1.72 8.81-1.13 5.71-2.25 11.41-3.39 17.12-.08.42-.09.66.47.65 1.78-.03 3.56-.02 5.33 0 .41 0 .58-.13.66-.54.88-4.49 1.77-8.97 2.66-13.45.4-2 .8-4 1.19-6 .1 0 .2.01.3.02 0 2.02-.04 4.04 0 6.05.1 4.41.25 8.82.35 13.23.01.55.18.71.72.69 1.05-.04 2.11-.05 3.17 0 .6.03.87-.18 1.09-.73 1.82-4.4 3.67-8.79 5.51-13.18l2.34-5.55Zm9.76 2.92c.39-.09.65-.16.92-.22 2.86-.65 5.75-.97 8.68-.59 1.58.2 2.12.91 1.98 2.47-.05.56-.21.81-.87.75-2.76-.21-5.5-.13-8.15.78-3.34 1.14-5.58 3.21-5.93 6.93-.29 3.15 1.23 5.69 4.15 6.46 3 .8 5.83.28 8.37-1.57.23-.17.39-.47.79-.46-.04.43-.05.85-.14 1.26-.11.52 0 .73.59.71 1.53-.04 3.06-.04 4.58 0 .53.01.7-.15.78-.67.51-3.2 1.06-6.4 1.6-9.6.29-1.69.58-3.39.85-5.08.46-2.9-1.31-5.69-4.37-6.63-4.22-1.29-8.4-.65-12.55.48-.17.05-.33.1-.37.29-.31 1.54-.6 3.08-.92 4.69Zm23.23 16.82c2.48.07 4.95.03 7.29-.93 2.74-1.12 4.08-3.21 4.16-6.13.08-2.79-1.14-4.79-3.71-5.93-.53-.24-1.07-.45-1.61-.68-.69-.3-1.41-.52-2.01-.98-.99-.75-.84-2.12.29-2.63.53-.24 1.11-.34 1.7-.37 1.64-.08 3.28.03 4.91.18.55.05.78-.1.85-.68.15-1.21.35-2.41.61-3.6.12-.59-.04-.79-.61-.85-1.6-.17-3.21-.29-4.82-.32-1.98-.04-3.94.12-5.82.79-2.93 1.04-4.61 3.04-4.82 6.21-.18 2.69 1.05 4.62 3.92 6.07.3.15.61.26.91.41.87.42 1.76.81 2.61 1.27.58.32 1.01.8.94 1.54-.08.78-.59 1.23-1.29 1.48-.29.1-.59.16-.89.2-2.49.38-4.92-.01-7.33-.6-.51-.13-.62.03-.7.46-.21 1.23-.39 2.47-.67 3.68-.15.63.05.83.62.94 1.81.34 3.64.41 5.47.49Z" class="cls-5"/><path d="M106.14 100.7c-.5.12-.99.07-1.47-.06-1.02-.29-1.39-.82-1.19-1.84.57-3.05 1.19-6.09 1.73-9.14.1-.55.33-.67.81-.64.58.03 1.17-.06 1.75.02.86.12 1.23-.17 1.31-1.06.12-1.27.35-2.52.57-3.78.08-.45-.02-.6-.48-.58-.69.03-1.39-.02-2.08.02-.58.03-.76-.15-.55-.7.11-.28.03-.61.24-.87 4.11 0 8.21.02 12.32.02h27.31c1.25 0 1.26 0 1.46 1.19.06.35.08.71.11 1.07-1.54 2.48-2.44 5.18-2.75 8.08h-5.27c.61-1.84 1.66-2.61 3.49-2.45.5.04.46-.22.54-.51.41-1.67.89-3.31 1.7-4.84.2-.38.41-.76.63-1.17-2.69-.24-3.31.07-6.42 3.14.15-.88.26-1.66.43-2.43.09-.41 0-.54-.42-.54-1.75.02-3.5.01-5.24 0-.4 0-.51.17-.57.54-.14.87-.3 1.74-.49 2.61-.41 1.89-.61 3.81-1.15 5.67-.77 0-1.54-.01-2.31-.02 0-.28 0-.55.01-.83.15-3.34-1.48-6.33-4.42-7.55-4.23-1.76-8.3-1.45-11.98 1.48-2.25 1.79-3.57 4.2-4.39 6.91-1.15 0-2.31 0-3.46-.02-.39 0-.68.08-.59.55.21 1.08-.01 2.2.3 3.27 1.07.38 2.18.09 3.27.17.02 1.25.29 2.46.54 3.67-.92 0-1.83.01-2.75-.01-.49-.01-.67.18-.55.64ZM138.02 100.08c.19-1.24.36-2.49.76-3.7 2.16 0 4.32.01 6.48.02.21 1.25.51 2.48.96 3.67h-8.21Z" class="cls-5"/><path d="M106.48 78.26c.3-.3.69-.16 1.03-.16h38.45c.39 0 .77-.03 1.16-.05-.31.34-.73.21-1.1.21h-39.54ZM146.29 74.45c-1.36 0-2.72-.02-4.08-.02-11.33 0-22.67 0-34-.02-.24 0-.74.32-.77-.32.34.27.75.16 1.13.16h36.61c.37 0 .78-.12 1.11.19ZM107.94 108.25c-.2-.26-.22-.47.18-.5.25-.02.5 0 .75 0h35.76c.39 0 .78-.01 1.17-.02-.34.29-.74.18-1.12.18-11.88 0-23.77 0-35.65.01-.38 0-.86-.22-1.09.33ZM108.46 70.6c.29-.31.68-.17 1.02-.17 11.5 0 22.99 0 34.49-.01.39 0 .77-.04 1.16-.07-.3.37-.72.23-1.09.23h-34.32c-.42 0-.83 0-1.25.01ZM144.48 111.91c-.3-.3-.69-.16-1.03-.16-11.17 0-22.34 0-33.51-.02-.34 0-.81.24-.99-.32.39.22.81.16 1.22.16 11.14 0 22.28 0 33.42.02.29 0 .79-.32.89.32ZM143.8 66.95c-3.86 0-7.72-.02-11.57-.02-7.19 0-14.38 0-21.57-.02-.22 0-.76.37-.72-.33.34.29.74.18 1.12.18h31.63c.38 0 .78-.12 1.12.18ZM120.1 130.93c-.12-.11-.3-.25-.02-.34.2-.06.44-.03.66-.03 4.35 0 8.7 0 13.04-.01-.31.27-.68.18-1.03.18h-11.63c-.35 0-.73-.1-1.02.2ZM121.87 47.6c.29-.23.64-.15.96-.15 2.58 0 5.17 0 7.75-.01.28 0 .62.13.85-.17.04.63-.46.32-.67.32-2.97.03-5.93.01-8.9.01ZM130.07 134.73c-.24-.29-.56-.16-.85-.16-1.71-.01-3.42 0-5.13-.01-.29 0-.61.09-.86-.16h6.28c.2 0 .64-.23.56.32Z" class="cls-2"/><path d="M109.44 100.07c.63 1.48 1.53 2.76 2.71 3.85-1.67.2-3.34.13-5.02.04-.07-.9.22-1.75.37-2.62.11-.62.03-.82-.62-.65-.23.06-.49 0-.74 0-.12-.47.06-.66.55-.64.91.02 1.83 0 2.75.01ZM127.93 103.98c.1-1.39.51-2.72.81-4.07.76.33 1.56.07 2.33.17-.24 1.31-.35 2.64-.8 3.9-.78.09-1.56.1-2.34 0ZM223.64 129.66c0-1.68 1.33-3.01 3-3.01 1.7 0 3.05 1.37 3.02 3.08-.02 1.66-1.39 3-3.05 2.98a3.007 3.007 0 0 1-2.98-3.04Zm.5.02c0 1.41 1.14 2.54 2.54 2.52a2.516 2.516 0 0 0 2.48-2.5c.01-1.42-1.09-2.55-2.5-2.55s-2.53 1.11-2.52 2.53ZM206.59 96.06c.07-2.33.54-4.35 2.11-5.95 1.04-1.06 2.32-1.48 3.78-1.33 1.42.14 2.43 1 2.78 2.48.58 2.51.25 4.9-1.2 7.08-.91 1.37-2.19 2.18-3.88 2.23-1.92.06-3.26-1.19-3.52-3.26-.06-.47-.06-.94-.08-1.24ZM178.1 95.77c2.1-.01 2.18.1 1.69 1.83-.68 2.39-2.39 3.82-4.55 3.8-1.29-.01-2.16-.55-2.49-1.55-.35-1.04.1-2.29 1.1-2.99 1.37-.95 2.96-1 4.25-1.09ZM138.79 96.25c.22-1.33.53-2.63 1.17-3.82h5.27c0 1.27.01 2.54.02 3.81h-6.46Z" class="cls-4"/><path d="M138.79 96.25h6.46v.17c-2.16 0-4.32-.01-6.48-.02-.03-.05-.02-.1.01-.14Z" class="cls-2"/><path d="M109.37 92.44c-.26 1.26-.46 2.52-.47 3.8h-3.28c-.31-1.07-.09-2.19-.3-3.27-.09-.47.2-.55.59-.55 1.15.02 2.31.02 3.46.02ZM129.46 96.37c.1-1.34.45-2.63.69-3.94.77 0 1.54.01 2.31.02-.11 1.34-.38 2.64-.72 3.94-.76 0-1.52 0-2.28-.01Z" class="cls-4"/><path d="M105.62 96.24h3.28c.02.05.02.11 0 .16-1.09-.07-2.2.21-3.27-.17Z" class="cls-2"/><path d="M196.34 86.45c-.04.07-.07.14-.11.2-.08-.1-.07-.2 0-.29.03.03.07.06.1.09Z" class="cls-4"/><path d="M129.46 96.37c.76 0 1.52 0 2.28.01-.11 1.25-.41 2.47-.67 3.69-.77-.1-1.58.17-2.33-.17-.42-.12-.77.19-1.18.18h-10.41c-1.01-.56-1.43-1.47-1.54-2.58-.07-.67.1-.96.88-.95 4.01.05 8.03.02 12.04.02.32 0 .67.08.93-.21Z" class="cls-5"/><path d="M229.17 103.67c0 1.41-1.15 2.55-2.55 2.53a2.512 2.512 0 0 1-2.48-2.51c-.01-1.42 1.1-2.57 2.5-2.57 1.39 0 2.53 1.14 2.53 2.55Zm-1.2 1.54c-.09-.14-.17-.28-.25-.41-.28-.46-.9-.88-.03-1.42.28-.18.19-.61-.04-.9-.24-.32-1.9-.59-2.2-.35-.07.06-.11.19-.12.29v2.57c0 .18.04.34.27.32.23-.02.23-.19.24-.36 0-.14-.01-.28 0-.41.03-.2-.11-.48.19-.57.26-.08.51.02.67.23.19.24.35.5.51.76.17.28.35.5.76.26Z" class="cls-4"/><path d="M69.48 95.78c2.03-.02 2.13.11 1.64 1.81-.7 2.4-2.32 3.79-4.45 3.81-1.32.01-2.27-.56-2.58-1.55-.33-1.07.1-2.29 1.11-2.99 1.37-.95 2.96-.99 4.28-1.08ZM116.35 92.07c.36-2.82 2.81-4.5 5.46-3.8 1.41.37 2.32 2 1.97 3.48-.06.24-.16.32-.39.32h-7.05Z" class="cls-5"/><path d="M117.15 100.09h10.41c-2.76.95-5.57 1.38-8.47.83-.7-.13-1.4-.32-1.95-.82ZM225.33 129.68v-.25c.05-.43-.22-1.07.13-1.25.51-.27 1.19-.18 1.77.01.65.21.87.98.33 1.36-.56.4-.26.63-.02.95.1.13.2.27.27.42.06.13.26.28.03.41-.15.08-.35.04-.45-.1-.22-.31-.41-.66-.63-.97-.17-.24-.44-.36-.73-.26-.28.1-.15.38-.17.58-.02.14 0 .28 0 .41 0 .17-.02.34-.25.35-.24.01-.26-.17-.26-.33v-1.33Zm1.17-1.13c-.27.02-.67-.13-.66.43 0 .37.08.61.5.55.37-.05.87.04.91-.5.03-.45-.37-.47-.75-.48ZM226.49 102.52c.35.04.82.01.77.52-.05.52-.56.43-.92.48-.42.06-.49-.17-.5-.54-.02-.54.33-.47.66-.46Z" class="cls-4"/></g></svg>