<svg xmlns="http://www.w3.org/2000/svg" id="Modo_de_aislamiento" data-name="Modo de aislamiento" viewBox="0 0 304.2 167.16"><defs><clipPath id="clippath"><path d="M0 35.76h285.36v87.48H0V35.76z" style="clip-rule:evenodd;fill:none"/></clipPath><style>.cls-6{fill:#0f59a2}</style></defs><rect width="192.12" height="167.16" x="112.08" rx="19.91" ry="19.91" style="fill:#1b1930"/><g style="clip-path:url(#clippath)"><path d="m.45 37.97 34.45.09c1.11 0 2.23-.03 3.34.04 6.66.45 9.35 2.85 10.68 9.33 2.16 10.52 4.39 21.03 6.55 31.55.21 1.02.85 2.05.27 3.16-6.11-14.24-16.49-24.6-29.78-32.31-.37-.21-.82-.29-1.23-.43-1.55-1.54-3.63-2.17-5.53-3.08-5.46-2.59-11.17-4.49-17.02-6.01-.56-.15-1.13-.36-1.72-.14v-2.21Z" style="fill:#f6a728"/><path d="M274.64 122c-3.04 0-6.08-.05-9.12.02-1.2.03-1.7-.4-1.92-1.55-.61-3.11-1.37-6.18-2-9.29-.24-1.17-.63-1.73-2-1.73-8.83.06-17.65.04-26.48-.01-1.19 0-1.69.45-2.07 1.49-1.16 3.18-2.45 6.32-3.6 9.5-.4 1.11-.92 1.61-2.21 1.6-6.9-.07-13.8-.08-20.69 0-1.85.02-1.72-.6-1.14-1.91 11.17-25.02 22.31-50.06 33.46-75.09 1.9-4.26 5.25-6.55 9.89-6.67 6.15-.16 12.31-.04 18.47-.16 1.64-.03 1.71.97 1.96 2.06 2.86 12.85 5.74 25.7 8.61 38.55 3.06 13.72 6.07 27.45 9.19 41.15.38 1.68.15 2.16-1.64 2.07-2.89-.14-5.78-.04-8.68-.04Zm-24.02-60.47c-.22.12-.32.14-.34.19-3.86 9.78-7.72 19.56-11.57 29.34-.43 1.09.2 1.22 1.09 1.22 5.34-.02 10.67-.04 16.01.02 1.4.01 1.58-.46 1.28-1.71-.9-3.72-1.67-7.46-2.49-11.19-1.32-5.94-2.64-11.89-3.97-17.87Z" style="fill:#0d59a1"/><path d="M164.22 123.25c-8.05-.1-15.95-1.15-23.64-3.58-1.66-.52-2.33-1.12-1.89-3.11 1.05-4.81 1.76-9.7 2.52-14.57.24-1.57.71-1.9 2.23-1.18 7.85 3.72 16.13 5.35 24.83 4.81 2.85-.18 5.58-.81 8.05-2.28 4.65-2.78 4.99-7.71.8-11.09-2.26-1.83-4.85-3.12-7.46-4.36-3.81-1.82-7.6-3.65-11.12-6.02-17.07-11.5-11.1-28.87-.69-36.71 7.3-5.5 15.75-7.72 24.69-8.38 7.69-.56 15.24.36 22.64 2.56 1.76.52 2.48 1.11 2.02 3.18-1.01 4.59-1.67 9.27-2.4 13.92-.23 1.44-.62 1.79-2.12 1.15-7.33-3.09-14.96-4.14-22.85-2.85-2.14.35-4.15 1.14-5.82 2.59-2.69 2.34-2.81 5.37-.3 7.9 1.85 1.86 4.17 3.04 6.46 4.26 4.24 2.26 8.75 4.02 12.78 6.69 14.4 9.53 15.11 27.63 1.47 38.33-6.43 5.05-13.98 7.26-21.96 8.28-2.72.35-5.46.58-8.21.47Z" class="cls-6"/><path d="M24.72 49.41c.41.14.87.21 1.23.43 13.29 7.71 23.67 18.08 29.78 32.31 1.71 3.99 1.83 8.38 3.22 12.91.9-2.21 1.69-4.07 2.43-5.94 6.43-16.3 12.88-32.59 19.25-48.9.59-1.52 1.31-2.15 3.03-2.12 6.67.11 13.35.09 20.02.01 1.86-.02 2.12.39 1.38 2.09a31668.96 31668.96 0 0 0-34.72 80.05c-.55 1.27-1.22 1.73-2.63 1.72-6.75-.07-13.5-.1-20.24.04-1.85.04-2.49-.56-2.97-2.27-6.46-23.17-12.99-46.32-19.51-69.48-.08-.28-.18-.56-.28-.84Z" style="fill:#0f59a1"/><path d="M112.38 121.98c-3.12 0-6.24-.11-9.34.04-1.9.09-2.19-.57-1.89-2.25 2.41-13.69 4.76-27.39 7.12-41.09 2.21-12.84 4.45-25.67 6.57-38.52.28-1.7.93-2.14 2.57-2.11 6.16.09 12.32.13 18.47-.02 2.17-.05 2.42.66 2.09 2.53-2.89 16.44-5.72 32.9-8.56 49.36-1.73 10.01-3.5 20.01-5.1 30.04-.28 1.77-.99 2.11-2.57 2.06-3.11-.1-6.23-.03-9.35-.03Z" class="cls-6"/></g></svg>