<?xml version="1.0" encoding="UTF-8"?>
<svg id="Capa_2" data-name="Capa 2" xmlns="http://www.w3.org/2000/svg" viewBox="0 0 235.5 126.75">
  <defs>
    <style>
      .cls-1 {
        fill: #953915;
      }

      .cls-2 {
        fill: #bf4113;
      }

      .cls-3 {
        fill: #e15b1a;
      }

      .cls-4 {
        fill: #350000;
      }

      .cls-5 {
        fill: #b44016;
      }

      .cls-6 {
        fill: #a54b29;
      }

      .cls-7 {
        fill: #a0401b;
      }

      .cls-8 {
        fill: #b23e1e;
      }

      .cls-9 {
        fill: #d45417;
      }

      .cls-10 {
        fill: #c5531f;
      }

      .cls-11 {
        fill: #963d1a;
      }

      .cls-12 {
        fill: #e3591c;
      }

      .cls-13 {
        fill: #652929;
      }

      .cls-14 {
        fill: #b65421;
      }

      .cls-15 {
        fill: #f05509;
      }

      .cls-16 {
        fill: #555;
      }

      .cls-17 {
        fill: #c84918;
      }

      .cls-18 {
        fill: #e35407;
      }

      .cls-19 {
        fill: #0f0f0f;
      }

      .cls-20 {
        fill: #b94e0d;
      }

      .cls-21 {
        fill: #df612f;
      }

      .cls-22 {
        fill: #eb5a13;
      }

      .cls-23 {
        fill: #9f4316;
      }

      .cls-24 {
        fill: #9e3b1a;
      }

      .cls-25 {
        fill: #090909;
      }

      .cls-26 {
        fill: #9e401c;
      }

      .cls-27 {
        fill: #b44614;
      }

      .cls-28 {
        fill: #ee5a0f;
      }

      .cls-29 {
        fill: #7d7375;
      }

      .cls-30 {
        fill: #100100;
      }

      .cls-31 {
        fill: #060605;
      }

      .cls-32 {
        fill: #4b1c09;
      }

      .cls-33 {
        fill: #c8bbb7;
      }

      .cls-34 {
        fill: #de4f0e;
      }

      .cls-35 {
        fill: #fb5a0d;
      }

      .cls-36 {
        fill: #eb5010;
      }

      .cls-37 {
        fill: #4c4c4c;
      }

      .cls-38 {
        fill: #848484;
      }

      .cls-39 {
        fill: #290a02;
      }

      .cls-40 {
        fill: #4c4248;
      }

      .cls-41 {
        fill: #3f3f3f;
      }

      .cls-42 {
        fill: #e55914;
      }

      .cls-43 {
        fill: #7f3e28;
      }

      .cls-44 {
        fill: #d44d12;
      }

      .cls-45 {
        fill: #d54f0c;
      }

      .cls-46 {
        fill: #953f2e;
      }

      .cls-47 {
        fill: #ee590f;
      }

      .cls-48 {
        fill: #8a3520;
      }

      .cls-49 {
        fill: #944a33;
      }

      .cls-50 {
        fill: #f1560c;
      }

      .cls-51 {
        fill: #cf5712;
      }

      .cls-52 {
        fill: #db4f13;
      }

      .cls-53 {
        fill: #363636;
      }

      .cls-54 {
        fill: #170802;
      }

      .cls-55 {
        fill: #903113;
      }

      .cls-56 {
        fill: #e4591b;
      }

      .cls-57 {
        fill: #0a0000;
      }

      .cls-58 {
        fill: #140a07;
      }

      .cls-59 {
        fill: #2b110b;
      }

      .cls-60 {
        fill: #ee5002;
      }

      .cls-61 {
        fill: #32100b;
      }

      .cls-62 {
        fill: #4b4b4b;
      }

      .cls-63 {
        fill: #e84b11;
      }

      .cls-64 {
        fill: #080506;
      }

      .cls-65 {
        fill: #c15823;
      }

      .cls-66 {
        fill: #9b9794;
      }

      .cls-67 {
        fill: #ab4016;
      }

      .cls-68 {
        fill: #2a2221;
      }

      .cls-69 {
        fill: #da500f;
      }

      .cls-70 {
        fill: #400700;
      }

      .cls-71 {
        fill: #cd4b15;
      }

      .cls-72 {
        fill: #4a4a4a;
      }

      .cls-73 {
        fill: #8f3413;
      }

      .cls-74 {
        fill: #9f4027;
      }

      .cls-75 {
        fill: #e95508;
      }

      .cls-76 {
        fill: #3e140c;
      }

      .cls-77 {
        fill: #31140c;
      }

      .cls-78 {
        fill: #ad3b25;
      }

      .cls-79 {
        fill: #ac3b10;
      }

      .cls-80 {
        fill: #a1918d;
      }

      .cls-81 {
        fill: #969da0;
      }

      .cls-82 {
        fill: #020000;
      }

      .cls-83 {
        fill: #ef5407;
      }

      .cls-84 {
        fill: #ed5207;
      }

      .cls-85 {
        fill: #f3580a;
      }

      .cls-86 {
        fill: #c25627;
      }

      .cls-87 {
        fill: #0a0a0a;
      }

      .cls-88 {
        fill: #303030;
      }

      .cls-89 {
        fill: #605353;
      }

      .cls-90 {
        fill: #a4391e;
      }

      .cls-91 {
        fill: #e16326;
      }

      .cls-92 {
        fill: #0b0809;
      }

      .cls-93 {
        fill: #e95c11;
      }

      .cls-94 {
        fill: #c4441c;
      }

      .cls-95 {
        fill: #d3551b;
      }

      .cls-96 {
        fill: #56281b;
      }

      .cls-97 {
        fill: #232323;
      }

      .cls-98 {
        fill: #0d0705;
      }

      .cls-99 {
        fill: #2c1b17;
      }

      .cls-100 {
        fill: #c14812;
      }

      .cls-101 {
        fill: #ea5213;
      }

      .cls-102 {
        fill: #f3540b;
      }

      .cls-103 {
        fill: #963c1b;
      }

      .cls-104 {
        fill: #656565;
      }

      .cls-105 {
        fill: #d0500c;
      }

      .cls-106 {
        fill: #030001;
      }

      .cls-107 {
        fill: #8c3721;
      }

      .cls-108 {
        fill: #c7c7c7;
      }

      .cls-109 {
        fill: #2a0502;
      }

      .cls-110 {
        fill: #4b1b14;
      }

      .cls-111 {
        fill: #c54815;
      }

      .cls-112 {
        fill: #a43d11;
      }

      .cls-113 {
        fill: #fc5710;
      }

      .cls-114 {
        fill: #e3520f;
      }

      .cls-115 {
        fill: #313131;
      }

      .cls-116 {
        fill: #d65110;
      }

      .cls-117 {
        fill: #380a03;
      }

      .cls-118 {
        fill: #51393e;
      }

      .cls-119 {
        fill: #182824;
      }

      .cls-120 {
        fill: #030303;
      }

      .cls-121 {
        fill: #a83a18;
      }

      .cls-122 {
        fill: #e55d1e;
      }

      .cls-123 {
        fill: #e05117;
      }

      .cls-124 {
        fill: #f05404;
      }

      .cls-125 {
        fill: #190907;
      }

      .cls-126 {
        fill: #f45910;
      }

      .cls-127 {
        fill: #e25d16;
      }

      .cls-128 {
        fill: #fa570c;
      }

      .cls-129 {
        fill: #444;
      }

      .cls-130 {
        fill: #f25e0d;
      }

      .cls-131 {
        fill: #af3b1b;
      }

      .cls-132 {
        fill: #de4c13;
      }

      .cls-133 {
        fill: #f95716;
      }

      .cls-134 {
        fill: #d85107;
      }

      .cls-135 {
        fill: #a23b22;
      }

      .cls-136 {
        fill: #846962;
      }

      .cls-137 {
        fill: #e55c1b;
      }

      .cls-138 {
        fill: #6e372a;
      }

      .cls-139 {
        fill: #505050;
      }

      .cls-140 {
        fill: #913618;
      }

      .cls-141 {
        fill: #120a0b;
      }

      .cls-142 {
        fill: #f65b10;
      }

      .cls-143 {
        fill: #b8b8b8;
      }

      .cls-144 {
        fill: #f64f09;
      }

      .cls-145 {
        fill: #df5413;
      }

      .cls-146 {
        fill: #cd4814;
      }

      .cls-147 {
        fill: #b83c23;
      }

      .cls-148 {
        fill: #fd5707;
      }

      .cls-149 {
        fill: #d24707;
      }

      .cls-150 {
        fill: #867a80;
      }

      .cls-151 {
        fill: #dc5b1f;
      }

      .cls-152 {
        fill: #414141;
      }

      .cls-153 {
        fill: #0b0002;
      }

      .cls-154 {
        fill: #646766;
      }

      .cls-155 {
        fill: #f0560b;
      }

      .cls-156 {
        fill: #281009;
      }

      .cls-157 {
        fill: #ea5619;
      }

      .cls-158 {
        fill: #270f0a;
      }

      .cls-159 {
        fill: #a33f1c;
      }

      .cls-160 {
        fill: #1a0000;
      }

      .cls-161 {
        fill: #c74b12;
      }

      .cls-162 {
        fill: #140000;
      }

      .cls-163 {
        fill: #f85212;
      }

      .cls-164 {
        fill: #bbafb4;
      }

      .cls-165 {
        fill: #c44b31;
      }

      .cls-166 {
        fill: #f75909;
      }

      .cls-167 {
        fill: #e06e41;
      }

      .cls-168 {
        fill: #161514;
      }

      .cls-169 {
        fill: #31110e;
      }

      .cls-170 {
        fill: #b5411a;
      }

      .cls-171 {
        fill: #734a3f;
      }

      .cls-172 {
        fill: #eee8e5;
      }

      .cls-173 {
        fill: #e95d1b;
      }

      .cls-174 {
        fill: #464646;
      }

      .cls-175 {
        fill: #120000;
      }

      .cls-176 {
        fill: #d8560e;
      }

      .cls-177 {
        fill: #110200;
      }

      .cls-178 {
        fill: #413e46;
      }

      .cls-179 {
        fill: #e3580f;
      }

      .cls-180 {
        fill: #d7c7bc;
      }

      .cls-181 {
        fill: #bca69e;
      }

      .cls-182 {
        fill: #d35211;
      }

      .cls-183 {
        fill: #6f6f6e;
      }

      .cls-184 {
        fill: #ef5b10;
      }

      .cls-185 {
        fill: #e5550c;
      }

      .cls-186 {
        fill: #494949;
      }

      .cls-187 {
        fill: #8d4936;
      }

      .cls-188 {
        fill: #3f0804;
      }

      .cls-189 {
        fill: #ea5809;
      }

      .cls-190 {
        fill: #313232;
      }

      .cls-191 {
        fill: #f2571d;
      }

      .cls-192 {
        fill: #dd530d;
      }

      .cls-193 {
        fill: #1f0000;
      }

      .cls-194 {
        fill: #fd5d13;
      }

      .cls-195 {
        fill: #dc5c0b;
      }

      .cls-196 {
        fill: #df5b1f;
      }

      .cls-197 {
        fill: #1c0c0a;
      }

      .cls-198 {
        fill: #d1580c;
      }

      .cls-199 {
        fill: none;
      }

      .cls-200 {
        fill: #4f4f4f;
      }

      .cls-201 {
        fill: #180a08;
      }

      .cls-202 {
        fill: #353535;
      }

      .cls-203 {
        fill: #df6227;
      }

      .cls-204 {
        fill: #474747;
      }

      .cls-205 {
        fill: #a03717;
      }

      .cls-206 {
        fill: #dd6428;
      }

      .cls-207 {
        fill: #b54f2d;
      }

      .cls-208 {
        fill: #a1421c;
      }

      .cls-209 {
        fill: #e4611e;
      }

      .cls-210 {
        fill: #464149;
      }

      .cls-211 {
        fill: #2d2d2d;
      }

      .cls-212 {
        fill: #e36221;
      }

      .cls-213 {
        fill: #e44b1c;
      }

      .cls-214 {
        fill: #ba4f21;
      }

      .cls-215 {
        fill: #0e0504;
      }

      .cls-216 {
        fill: #b7b0ae;
      }

      .cls-217 {
        fill: #0b0b0b;
      }

      .cls-218 {
        fill: #252525;
      }

      .cls-219 {
        fill: #cf5219;
      }

      .cls-220 {
        fill: #96644c;
      }

      .cls-221 {
        fill: #a73f19;
      }

      .cls-222 {
        fill: #ea4c13;
      }

      .cls-223 {
        fill: #9f4b2c;
      }

      .cls-224 {
        fill: #a98778;
      }

      .cls-225 {
        fill: #434343;
      }

      .cls-226 {
        fill: #c34817;
      }

      .cls-227 {
        fill: #d4cfcf;
      }

      .cls-228 {
        fill: #d14b0f;
      }

      .cls-229 {
        fill: #f65202;
      }

      .cls-230 {
        fill: #c65421;
      }

      .cls-231 {
        fill: #a8440e;
      }

      .cls-232 {
        fill: #aeaead;
      }

      .cls-233 {
        fill: #e35e20;
      }

      .cls-234 {
        fill: #d5530c;
      }

      .cls-235 {
        fill: #ab4728;
      }

      .cls-236 {
        fill: #933a12;
      }

      .cls-237 {
        fill: #050201;
      }

      .cls-238 {
        fill: #b74314;
      }

      .cls-239 {
        fill: #606060;
      }

      .cls-240 {
        fill: #414448;
      }

      .cls-241 {
        fill: #f94d16;
      }

      .cls-242 {
        fill: #ef4e0f;
      }

      .cls-243 {
        fill: #525252;
      }

      .cls-244 {
        fill: #8b4833;
      }

      .cls-245 {
        fill: #da5114;
      }

      .cls-246 {
        fill: #454545;
      }

      .cls-247 {
        fill: #3f403d;
      }

      .cls-248 {
        fill: #d5683e;
      }

      .cls-249 {
        fill: #e35b03;
      }

      .cls-250 {
        fill: #090707;
      }

      .cls-251 {
        fill: #99341a;
      }

      .cls-252 {
        fill: #883d22;
      }

      .cls-253 {
        fill: #bdaaa4;
      }

      .cls-254 {
        fill: #e45211;
      }

      .cls-255 {
        fill: #484848;
      }

      .cls-256 {
        fill: #4f2c19;
      }

      .cls-257 {
        fill: #fa570d;
      }

      .cls-258 {
        fill: #cab6ab;
      }

      .cls-259 {
        fill: #e55312;
      }

      .cls-260 {
        fill: #813426;
      }

      .cls-261 {
        fill: #0b0000;
      }

      .cls-262 {
        fill: #e94e07;
      }

      .cls-263 {
        fill: #c44611;
      }

      .cls-264 {
        fill: #bc4517;
      }

      .cls-265 {
        fill: #404040;
      }

      .cls-266 {
        fill: #ca4a12;
      }

      .cls-267 {
        fill: #64554c;
      }

      .cls-268 {
        fill: #838383;
      }

      .cls-269 {
        fill: #f75a0d;
      }

      .cls-270 {
        fill: #ef5816;
      }

      .cls-271 {
        fill: #d3581a;
      }

      .cls-272 {
        fill: #833a23;
      }

      .cls-273 {
        fill: #e26124;
      }

      .cls-274 {
        fill: #a63b0a;
      }

      .cls-275 {
        fill: #ec5920;
      }

      .cls-276 {
        fill: #9a3b1a;
      }

      .cls-277 {
        fill: #e45518;
      }

      .cls-278 {
        fill: #ad4414;
      }

      .cls-279 {
        fill: #d44e14;
      }

      .cls-280 {
        fill: #6f6e68;
      }

      .cls-281 {
        fill: #52230c;
      }

      .cls-282 {
        fill: #9e8d86;
      }

      .cls-283 {
        fill: #e75715;
      }

      .cls-284 {
        fill: #3c3c3c;
      }

      .cls-285 {
        fill: #140907;
      }

      .cls-286 {
        fill: #1b0401;
      }

      .cls-287 {
        fill: #1a1b1b;
      }

      .cls-288 {
        fill: #a84018;
      }

      .cls-289 {
        fill: #b9b9b9;
      }

      .cls-290 {
        fill: #c84811;
      }

      .cls-291 {
        fill: #060606;
      }

      .cls-292 {
        fill: #f7590e;
      }

      .cls-293 {
        fill: #f0530d;
      }
    </style>
  </defs>
  <g id="Capa_1-2" data-name="Capa 1">
    <path class="cls-199" d="M117.38,126.68c-38.11,0-76.21-.03-114.31,.07C.5,126.76,0,126.25,0,123.7,.1,83.48,.1,43.27,0,3.05,0,.5,.5,0,3.06,0c76.46,.09,152.92,.09,229.38,0,2.56,0,3.07,.5,3.06,3.05-.1,40.22-.1,80.43,0,120.65,0,2.55-.5,3.06-3.06,3.05-38.35-.1-76.71-.07-115.06-.07Z"/>
    <path class="cls-225" d="M27.02,90.2c-.54-.49-1.08-.97-1.62-1.46,.11-1.45-.98-2.31-1.69-3.36-.72-.88-1.33-1.84-2.07-2.71l.02-.18c-.48-1.35-1.01-2.67-1.73-3.92-.76-1.55-.75-3.41-1.96-4.78-1.02-2.13-1.64-4.34-1.35-6.73,.47-2.96,.48-5.92,0-8.87,.82-1.67-.46-4.22,2.16-5.14,1.34,1.37,2.93,.28,4.4,.42,1.38-.04,2.76-.05,4.14-.06,1.74,0,3.47,0,5.21-.02,7.5,.02,15-.01,22.49,0,1.01-.01,2.03,.04,3.03-.23,.57-.1,1.15-.1,1.72,.02,1.57,.58,3.09,1.25,4.24,2.55,.45,.6,.77,1.27,.99,1.99,.35,1.45,.4,2.89,0,4.34-.68,1.15,.3,2.79-1.08,3.74-.45,.32-.96,.47-1.51,.52-.55,.03-1.09-.06-1.59-.27-.31-.17-.56-.4-.76-.69-.3-.67-.53-1.4-1.34-1.68-.32-.38-.31,.26-.2,.28,1.16,.17,1.2,1.03,.99,1.97-.36,.73-.99,.94-1.74,.94-1.68-.28-3.37-.5-5.05,.01-.74,.39-2.02-.12-2.12,1.3,1.66,3.48,4.72,5.9,6.8,9.04,.86,1.3,2.1,2.41,2.1,4.15-.23,.79-.78,1.11-1.57,1.07-.61-.04-1.17-.26-1.86-.49,.44,.63,1.06,.41,1.54,.56,1.09,1.3,2.47,1.12,3.89,.78,4.21,3.76,6.89,8.74,10.49,12.98,1.83,2.16,.06,3.31-1.86,4.06-5.82,2.3-11.92,2.18-18.02,1.97-2.48-.09-4.93-.48-7.29-1.26-5.74-2.16-11.25-4.72-15.5-9.34-.6-.73-1.31-1.31-2.27-1.51Z"/>
    <path class="cls-31" d="M59.09,81.26c-2.81-4.77-7.22-8.37-9.79-13.32,2-2.28,4.72-1.51,7.14-1.43,1.53,.05,2.87,.11,4.12-.82,.51-.01,1.02-.03,1.53-.04,.62,.71,1.86,.98,1.69,2.28-.22,.5-.58,.87-1.06,1.12-.49,.22-1.01,.34-1.55,.39-.7,.07-1.39,.07-2.09,.08-1.67-.05-3.34,.07-5.01-.2-.24-.04-.47-.06-.7-.04,.09,.08,.18,.16,.29,.24,.78,.89,1.25,2.1,2.62,2.31,.48,.17,.86,.47,1.17,.87,.39,.55,.66,1.17,.88,1.8,.3,1.58,1.8,2.3,2.56,3.54,.53,1.19,1.19,2.27,2.33,2.99,3,2.31,4.12,6.27,7.44,8.29,.58,.39,1.13,.81,1.64,1.28,1.56,1.7,2.91,3.53,3.76,5.7,.15,.75,.05,1.44-.52,2-.96,.68-.89,2.02-2.35,2.57-7.29,2.73-14.71,3.37-22.34,2.08-1.04-1.17-2.63,.06-3.73-.85-1.09,.11-2.13,.07-2.96-.79-.18-.2-.23-.39-.16-.58,.07-.19,.13-.28,.19-.28,8.38,1.29,16.72,1.63,25.01-.76,3.09-.89,3.46-1.68,1.12-4.21-3.49-3.77-6.47-8.01-9.67-12.05-.92-.45-1.17-1.36-1.56-2.19Z"/>
    <path class="cls-174" d="M164.42,85.59c0,1.12,0,2.23,0,3.35-.02,5.47-2.25,7.57-7.75,7.32-4.14-.18-5.68-1.46-5.95-5.52-.22-3.32-.05-6.67-.09-10.01-.01-1.31,.44-2.21,1.88-2.2,1.69,.02,1.44,1.32,1.5,2.42,.17,3.18-.51,6.4,.59,9.56,.56,1.62,1.19,3.27,3.04,3.22,2.13-.06,3.27-1.79,3.43-3.75,.22-2.83,.09-5.69,.12-8.54,.02-1.35-.19-3,1.9-2.84,1.95,.15,1.24,1.8,1.31,2.91,.09,1.36,.02,2.72,.02,4.09Z"/>
    <path class="cls-98" d="M75.53,98.31c0-.7,0-1.4,0-2.09,2.55-2.45,5.89-3.86,8.4-6.36,1.66-1.37,2.89-3.06,3.85-4.98,.28-.41,.61-.76,.97-1.09,1.47-1.11,1.99-2.83,2.77-4.38,1.07-2.07,2.24-4.1,2.77-6.4,.17-.49,.42-.95,.7-1.39,.71-1.09,.57-2.4,.95-3.57,.38-3.66,.42-7.31-.05-10.96-.43-2.03-.45-4.14-1.26-6.09-.06-.39,.02-.76,.21-1.11,.35-.25,.7-.25,1.05,.01,1.27,.44,1.45,1.56,1.6,2.66,.43,3.1,.82,6.21,1.23,9.32-1.15,3.4,.27,6.99-.79,10.4-1.88,9.3-6.75,16.9-14.15,22.61-2.18,1.68-4.77,4.1-8.26,3.43Z"/>
    <path class="cls-204" d="M135.94,84.72c-.84-6.51-1.84-5.77,6.07-5.78,4.77,0,6.81,3.61,4.93,8.02-.72,1.69-2.3,1.62-3.37,2.51-1.42,.87-3.13-.2-4.54,.69l-.02,.03c-.93,1.68,.19,3.62-.69,5.31-.5,.66-1.01,.27-1.51,0-1.88-1.31-.8-3.16-.87-4.8,0-.82,0-1.64,.01-2.46-.39-1.17-.08-2.35-.02-3.53Z"/>
    <path class="cls-174" d="M145.02,39.42c-2.61,.25-2.27,2.27-2.09,3.88,.26,2.27,2.36,1.05,3.57,1.56,.73,.71,1.48,.26,2.23,.03,1.16,.69,1.06,1.47,.09,2.21-.25,.19-.71,.1-1.08,.15q-8.11,.96-8.07-7.1c0-.87,.01-1.73,.01-2.6q0-7.44,7.61-7.01c.77,.04,2.01-.41,2,.91,0,1.26-1.22,.9-2.01,.97-4.67,.41-4.96,.77-3.79,4.97,.51,.44,1.31,.17,1.77,.72,.19,.5,.16,.95-.26,1.33Z"/>
    <path class="cls-174" d="M168.99,80.52c-.03-.12-.08-.24-.08-.36,0-2.09,1.42-1.64,2.61-1.39,2.85,.6,6.55-1.3,8.31,2.43,.73,1.54,.74,3.44-1.24,4.51-.66,.9-.15,1.54,.38,2.29,1.52,2.15,.64,2.86-1.68,2.58-.3-.15-.56-.34-.8-.57-.68-1.34-2.88-.89-3.2-2.65,.5-.53,.22-1.3,.58-1.88,.43-.97,2.23-2.04,.28-2.91-1.39-.62-1.88,.63-1.69,1.94,.21,.89,1.06,1.51,1.09,2.48-.44,.64-.52,1.43-.88,2.1-.48,1.01-.22,2.16-.55,3.2-.46,1-.78,2.11-2.58,2.57-.68-4.83,.59-9.67-.54-14.34Z"/>
    <path class="cls-152" d="M130.77,39.56c-2.16,.01-4.31,.02-6.47,.04-1.23,1.52-.3,3.28-.57,4.92-.13,.81,.16,1.91-1.09,1.97-1.09,.05-1.47-.86-1.45-1.76,.13-4.63-1.09-9.26-.06-13.9,.71-.59,1.46-.35,2.22-.11,1.06,2.09-.37,4.49,.81,6.57l-.04-.05c.45,.56,1.08,.43,1.67,.45q5.53,.17,5.43-5.16c-.01-.6-.09-1.22,.37-1.72,.72-.53,1.47-.36,2.22-.08,.85,4.61,.15,9.25,.36,13.88,.04,.84,.08,1.92-1.15,1.87-1.11-.04-1.59-.89-1.81-1.97-.33-1.64,.94-3.41-.44-4.94Z"/>
    <path class="cls-174" d="M125.71,93.19c.46,.25,.91,.51,1.37,.76,.45,.84-.39,1.05-.75,1.5-.68,.01-1.37,.03-2.05,.04-1.87,.17-1.95-1.36-1.96-2.43-.07-4.62-.32-9.25,.29-13.86,2.43-.84,4.92-.1,7.37-.27,.91-.06,1.98,.04,1.98,1.12,0,1.27-1.14,1.36-2.19,1.37-2.4,.02-5.44-.63-4.18,3.62,.62,1.18,1.72,1.07,2.81,1.07,1.17,0,2.45-.27,3.14,1.1,.18,.46-.05,.7-.46,.84-1.39,.37-2.78,.46-4.17-.04-.41,.22-.82,.44-1.23,.66-.78,1.51-.8,3.02,.02,4.52Z"/>
    <path class="cls-225" d="M104.88,32.07c-.41-.85-.2-1.55,.76-1.56,3.7-.02,7.4,.02,11.09,.15,.86,.03,.66,.81,.42,1.4-1.19,1.13-3.09-.51-4.16,1.06,0,3.96,0,7.91-.03,11.87-.01,1.07,.2,2.31-1.61,2.25-1.68-.05-1.64-1.1-1.62-2.27,.03-3.46,.04-6.92,.06-10.38-.21-3.59-3.46-1.32-4.91-2.53Z"/>
    <path class="cls-255" d="M112.89,79.01c2.39-.46,4.09,.31,4.95,2.69,.75,2.1,.37,4.42-1.35,5.29-2.36,1.19-.95,2.22-.43,3.27,.42,.85,1.57,1.44,1.75,2.29,.2,.93,2.04,1.74,.63,2.76-1.36,.98-2.7,.17-3.42-1.08-.91-1.57-1.59-3.26-3.01-4.49-.37-.92-.8-1.82-.86-2.84,.73-1.64,2.94-2.85,1.48-5.12-.06-.94-.29-1.89,.26-2.78Z"/>
    <path class="cls-225" d="M185.37,95.43c-1.02-.22-.86-1.04-.87-1.75-.06-4.19-.07-8.38-.18-12.57-.04-1.42,.22-2.53,1.89-2.51,1.57,.02,1.57,1.2,1.56,2.38-.03,2.84,.15,5.69-.04,8.51-.2,2.94,.3,4.89,3.9,4.37,.68-.1,2-.44,1.84,1.01-.11,.98-1.11,.76-1.8,.75-1.85-.03-3.7-.13-5.55-.21-.27-.26-.42-.55-.23-.93-.51,.13-.02,.8-.51,.94Z"/>
    <path class="cls-204" d="M168.99,80.52c2.41,4.32,.39,8.91,.72,13.42,1.42-.2,1.16-1.85,2.2-2.26,2.44,1.83,3.69-.59,5.37-1.49,1.34-.07,2.91-.21,1.11-1.87-1.28-1.18-.59-1.8,.21-2.6-.08,2.16,2.66,2.99,2.31,5.55-.34,2.52-1.41,3.78-3.69,4.34-.12,.03-.25,0-.37,.02-7.64,.99-7.94,.73-7.92-6.99,0-2.71,.04-5.41,.06-8.12Z"/>
    <path class="cls-246" d="M200.31,95.36c-2.45,.89-3.4,.05-3.31-2.55,.13-3.71,.21-7.45-.03-11.15-.2-2.92,1.18-3.05,3.33-2.49,.63,5.39,.59,10.79,.01,16.18Z"/>
    <path class="cls-255" d="M207.76,89.44c1.92,3.15,4,5.9,8.3,3.53,.64-.35,1.16-.29,1.33,.58,.19,1-.23,1.6-1.07,2.13-3.51,2.2-9.9,.01-11.53-3.99-.53-.65-.33-1.4-.29-2.13,.37-1.08,.73-2.18,2.25-1.93,.83,.33,.47,1.32,1.01,1.81Z"/>
    <path class="cls-226" d="M19.38,48.56c.13-.51,.26-1.02,.39-1.53,1.64,.8,3.3,1.53,5.22,1.12,3.95,.02,7.9,.06,11.85,.02,7.17-.06,14.34-.16,21.51,.02,.88,.02,1.77,.06,2.63,.27,2.33,.51,4.47,1.43,6.21,3.11,.9,.86,1.87,1.77,.7,3.12-.42,.16-.85,.19-1.29,.09-3.95-3.3-8.62-3.81-13.54-3.75-9.4,.11-18.8,.04-28.2,.02-1.72,0-3.48,.21-5.09-.66-.67-.49-.69-1.13-.4-1.83Z"/>
    <path class="cls-50" d="M26.95,37.21c.41-1.46,1.19-2.66,2.49-3.48,.77-.78,2.01-.79,2.71-1.68,.12-.84,.7-1,1.42-.97,.84,.35,1.03,1.13,1.26,1.88,.35,1.08,.73,.77,1.11,0,.19-.44,.44-.83,.88-1.05,1.59,.64,2.37,2.24,3.74,3.15-.3,2.08-1.99,2.26-3.56,2.59-1.97-.95-3.77-.73-5.38,.78-.6,.29-1.25,.43-1.88,.61-1.25,.29-1.7,1.36-2.28,2.32-.34,.43-.75,.7-1.33,.55-.6-.45-.92-1.06-1.11-1.76-.25-1.56,1.12-2.06,1.93-2.93Z"/>
    <path class="cls-166" d="M40.42,35.08c-2.45,.5-2.72-1.7-3.74-2.98-1.69-.3-1.3-1.27-.76-2.3,.97-1.7,2.61-2.15,4.39-2.35,1.55,.13,3.05,.61,4.61,.72,1.89,.04,3.6,.56,5.04,1.84,.27,.26,.46,.58,.58,.93,.07,.57-.04,1.08-.51,1.46-2.91,.44-5.59-1.92-8.65-.84,.3,1.72,2.79,.84,2.75,2.6-.01,.5-.63,.71-1.1,.91-.87,.23-1.74,.55-2.61,.02Z"/>
    <path class="cls-212" d="M109.12,60.38c.13,1.83-.55,3.75,.4,5.47,1.55,2.8,3.77,4.16,7.08,2.93,.96-.35,2.14-.46,2.34,.91,.13,.86-.48,1.57-1.41,1.94-6.36,2.56-12.49-1.6-12.15-8.28,.3-.26,.62-.27,.95-.07,1.11,2.94,1.87,6.15,5.63,7.19-3.54-1.64-5.33-4.51-4.89-7.75,.16-1.21,.23-2.56,2.05-2.36Z"/>
    <path class="cls-122" d="M141.2,70.06c-.24-4.7-.33-9.41,.04-14.11,2.02-2.13,3.44-.86,3.27,1.18-.31,3.83,.21,7.6,.1,11.39-.08,2.57-.97,2.9-3.4,1.54Z"/>
    <path class="cls-53" d="M58.4,53.62c-.53,.92-1.44,.8-2.29,.81-7.97-.63-15.93-.63-23.9,0-1.75,0-3.5,0-5.25,0-1.49-.59-2.98-.6-4.47,0-1.09-.86-3.74,2.44-3.73-1.38,.22-.08,.44-.17,.65-.26,.68-.62,1.52-.83,2.4-.83,11.73,.02,23.47-.34,35.2,.18,.72,.26,1.38,.57,1.39,1.48Z"/>
    <path class="cls-37" d="M109.95,89.49c-.06,1.59-.15,3.19-.18,4.78-.02,1.2-.84,1.3-1.74,1.42-1.05,.15-1.78-.21-1.71-1.31,.3-5.06-.84-10.17,.6-15.18,1.28,1.31,.78,3.08,1.22,4.61,.06,1.89-.56,3.99,1.67,5.2,.05,.16,.09,.32,.14,.48Z"/>
    <path class="cls-72" d="M206.18,81.95c1.64-3.58,5.27-4.68,9.83-2.98,1.45,1.54,1.42,1.95-.16,2.35-3.27-1.26-5.56,.77-7.99,2.36-.81-.34-1.38-.9-1.68-1.73Z"/>
    <path class="cls-217" d="M44.19,100.46c0,.29-.02,.57-.03,.86-6.47-1.26-11.49-4.9-15.91-9.56,.13-.46,.45-.68,.91-.72,4.34,4.2,9.9,6.47,15.03,9.42Z"/>
    <path class="cls-3" d="M153.92,61.36c-1.76-.4-1.35,.92-1.37,1.79-.04,2.22,0,4.44,0,6.67,0,.94-.3,1.71-1.42,1.79-.67,.05-1.52-.23-1.47-.81,.35-3.76-2.01-7.62,.42-11.28,.16,.1,.31,.21,.47,.31,.55,.83,.42,1.76,.39,2.67-.12,.57-.22,1.14-.41,1.69,.48-1.01,.43-2.12,.59-3.19,.25-.75,.7-1.32,1.48-1.58,1.07,.23,1.89,.62,1.31,1.94Z"/>
    <path class="cls-289" d="M57.55,52.9c-12.71-.04-25.43-.07-38.14-.11-.09-.2-.14-.41-.13-.64,.18-.16,.37-.31,.55-.47,.56-.28,1.14-.5,1.77-.51,11.26-.12,22.53-.14,33.79,0,.63,0,1.21,.24,1.77,.52,.5,.28,.63,.68,.39,1.2Z"/>
    <path class="cls-62" d="M121.13,30.82c.28,4.99,.57,9.99,.89,15.74,2.38-2.5,.09-5.36,2.28-6.96-.08,1.98-.22,3.96-.22,5.93,0,1.24-.54,1.91-1.72,1.91-.93,0-1.78-.42-1.7-1.54,.35-5.02-.76-10.09,.47-15.08Z"/>
    <path class="cls-292" d="M109.12,60.38c-2.88,3.84-.86,8.4,4.4,9.96-4.29,.93-7.23-1.85-7.37-6.95-.96-2.14,.43-3.69,1.41-5.31,.31-.51,.94-.92,1.54-.53,.61,.4,.38,1.06,.14,1.63-.04,.4-.09,.8-.13,1.19Z"/>
    <path class="cls-42" d="M130.82,55.15c4.73,.16,6.81,2.13,6.7,6.77-.04,1.71,.99,3.67-.73,5.17-1.44-1.58-.59-3.97-2-5.56-1.11-1.46-1.56-3.45-3.52-4.21-.3-.19-.55-.43-.75-.73-.18-.54-.13-1.03,.29-1.44Z"/>
    <path class="cls-206" d="M141.2,70.06c2.45,1.26,3.17-.05,3.03-2.19-.23-3.48-1.1-6.87-.13-10.47,.53-1.97-1.16-2.37-2.86-1.45-.1-1.48,.92-1.56,1.95-1.48,1.19,.09,1.71,.9,1.71,2.01,.02,4.43,.03,8.86,0,13.29,0,.91-.36,1.73-1.43,1.84-1.15,.11-2.33,.15-2.26-1.55Z"/>
    <path class="cls-106" d="M95.9,49.9c-.36,.05-.73,.09-1.09,.14-.35,.13-.67,.08-.96-.16-.74-.79-1.03-1.77-1.19-2.81-.11-.95-.18-1.92-1.14-2.49-.67-.53-1.17-1.21-1.61-1.93-.71-1.4-2.1-2.41-2.28-4.1,.01-.57,.18-1.07,.67-1.42,4.01,3.39,7.15,7.28,7.59,12.77Z"/>
    <path class="cls-270" d="M123.36,70.07c-.93-.45-1.23-1.31-1.43-2.22-.05-1.08-.47-2.05-.94-3.01-.33-1.24-.22-2.46,.05-3.69,.21-.26,.47-.34,.79-.24,.24,.18,.43,.4,.57,.65,.23,.42,.55,.45,.95,.2,.32-.07,.61-.01,.88,.17,1.43,1.82,.25,4.53,2.18,6.17,.63,.82,2.19,1.72,1.27,2.63-1.34,1.33-2.87-.27-4.31-.65Z"/>
    <path class="cls-62" d="M130.77,39.56c2.81,.49,.79,2.23,.87,3.42,.08,1.07-.29,2.66,1.07,2.77,1.7,.13,1.04-1.58,1.05-2.49,.08-4.17,.04-8.35,.04-12.52,1.77,5.06,.28,10.27,.66,15.4,.07,.95-.81,1.11-1.56,1.13-1.25,.03-1.73-.73-1.8-1.85-.12-1.95-.22-3.9-.33-5.85Z"/>
    <path class="cls-129" d="M107.66,84.23c-1.39-1.5-.44-3.35-.74-5.02,1.98-.44,3.97-.45,5.97-.2,.23,.75,1.17,1.52-.04,2.25-.45,.55-1.07,.61-1.71,.58-1.38-.08-1.27,1.46-2.12,1.96-.41,.29-.86,.45-1.37,.42Z"/>
    <path class="cls-167" d="M161.36,59.8c-.11-.22-.32-.44-.32-.66,.03-1.68-1.29-4.27,1.36-4.56,2.98-.32,2.08,2.56,1.99,4.14-.24,4.22,.98,8.54-.73,12.67-.26-.27-.46-.58-.61-.93-.17-.54-.24-1.1-.27-1.67-.06-.95-.06-1.91-.08-2.86-.02-1.93-.07-3.86-.01-5.78-.01-1.06,.02-2.12-.12-3.17-.26,1-.18,2.14-1.2,2.82Z"/>
    <path class="cls-273" d="M121.87,61.15c-.28,0-.56,0-.83,0-.12-1.93,.4-3.57,2.14-4.65,.31,.08,.56,.25,.75,.5,.46,1.01,1.83,1.31,2.02,2.54-.51,3.05,.34,6.02,.56,9.03-.3,.36-.61,.36-.93,.02-2.44-1.68-.66-4.74-2.22-6.71-.57-.11-.93-.63-1.5-.73Z"/>
    <path class="cls-269" d="M68.81,26.27c.24-.07,.48-.14,.73-.22,1.3,.7,2.29,1.56,1.67,3.25-1.08,1.51-2.57,1.54-4.18,1.14-.85-.3-1.49-1.01-2.4-1.19-1.32-.52-2.81-.56-4.01-1.41-.21-.32-.27-.66-.16-1.03,.81-.85,1.88-1.09,2.97-1.3,.54-.06,1.06,0,1.57,.21,1.18,.81,2.41,1.29,3.82,.55Z"/>
    <path class="cls-22" d="M109.25,59.19c-.21-.54-.19-1.96-1.13-.83-1.15,1.38-2.07,3.06-1.96,5.04-.26,0-.52-.01-.78-.02-.63-3.34,.9-5.69,3.5-7.54,1.41-.69,2.88-1.16,4.47-1.15,.59,.12,1.09,.34,1.21,1.01-.49,1.1-1.83,.17-2.42,1.02-.96,.83-1.92,1.66-2.89,2.48Z"/>
    <path class="cls-9" d="M23.98,49.2c-1.89,.21-3.65,.18-4.21-2.17,.89-2.17,1.95-4.25,3.5-6.05,1.05-.12,1.21,.65,1.4,1.39,.06,.55-.01,1.09-.2,1.61-1.42,1.62-1.71,3.35-.49,5.22Z"/>
    <path class="cls-277" d="M150.16,58.36c-.82-1.1-2.38-2.32-.55-3.52,1.3-.85,3.03-.8,4.29,.62,.67,.75,1.08,1.61,1.14,2.62-1.53,1.67-3.33-1.17-4.88,.28Z"/>
    <path class="cls-28" d="M150.16,58.36c.27-1.19,.27-2.77,2.13-1.15,.75,.65,1.7,1.01,2.75,.87,.38,.77,.76,1.55,1.15,2.32-.48,.61-.68,1.46-1.55,1.72-.24-.25-.48-.5-.72-.75-.12-.88-.66-1.39-1.44-1.71-.68,.52-1.38,.64-2.1,.07,0,0-.29-.21-.29-.21,.03-.39,.06-.77,.08-1.16Z"/>
    <path class="cls-255" d="M122.61,79.2c0,3.9,.01,7.8,0,11.7,0,1.75,.05,3.45,1.68,4.6-1.06,.73-2.25,.52-2.22-.69,.14-5.2-.97-10.45,.55-15.6Z"/>
    <path class="cls-152" d="M206.18,81.95c1.1,.05,1.59,.7,1.68,1.73-.06,.68-.12,1.37-.18,2.05-.61,.6-.24,1.56-.81,2.17-1.07,0-1.31,1.12-2.07,1.53-.4-2.02-.35-4.04-.06-6.07,.48-.47,.96-.94,1.44-1.41Z"/>
    <path class="cls-75" d="M154.64,62.11c.09-.95,.46-1.66,1.55-1.72,.62,.9,1.78,1.52,1.58,2.87,.85,1.02,2.39,1.49,2.5,3.11-.16,.71-.47,1.32-1.15,1.66-1.66-.41-1.2-2.85-3.01-3.12-1.17-.58-.45-2.14-1.46-2.81Z"/>
    <path class="cls-137" d="M41.14,26.9c2.48-1.67,5.4-2.1,8.2-2.86,.52,.42,1.59-.04,1.7,1.04-1.57,1.9-4.08,1.69-6.07,2.67-1.34,0-3.01,1.46-3.83-.85Z"/>
    <path class="cls-62" d="M131.59,30.81c.01,.49-.01,.99,.04,1.48,.58,6.03-1.57,7.45-7.51,4.95,.12,.02,.24,.05,.36,.06q6.13,.53,6.63-5.58c.03-.31,.31-.61,.48-.91Z"/>
    <path class="cls-200" d="M200.31,95.36c0-5.39,0-10.79-.01-16.18,1.15,5.39,1.16,10.79,.01,16.18Z"/>
    <path class="cls-75" d="M163.61,59.68c.02,2.22,.04,4.43,.06,6.65-.19,.26-.44,.33-.75,.23-.49-.53-1.28-.6-1.77-1.14-.07-.3-.02-.57,.19-.8,.04-1.41,.08-2.82,.12-4.23,.6-.58,1.18-1.21,2.14-.71Z"/>
    <path class="cls-196" d="M125.59,68.59c.32-.03,.63-.07,.95-.1,1.45-.74,2.75-.07,4.06,.44,.28,.21,.45,.49,.5,.83-.05,.62-.33,1.23-.16,1.88-2.73,.46-5.38,.55-7.58-1.56,1.26,.22,2.52,.43,3.8,.65,.29-1.43-1.33-1.25-1.58-2.13Z"/>
    <path class="cls-37" d="M108.41,83.48c1.2-.28,.16-2.83,2.25-2.21,.75,1.91-.31,4.01,.64,5.89,1.5,.51,1.28,1.5,.71,2.58-.69-.08-1.37-.17-2.06-.25l-.21-.26c-1.58-1.66-1.54-3.68-1.33-5.75Z"/>
    <path class="cls-203" d="M130.82,55.15c0,.51,0,1.02,0,1.53-1.14,1.13-2.61,1.03-4.04,1.1-1.07-.45-2.28-.41-3.32-.97-.1-.1-.2-.2-.29-.31,2.13-2.81,4.87-2.15,7.64-1.35Z"/>
    <path class="cls-59" d="M78.5,28.48c1.71,1.19,4.19,1.52,4.57,4.15,.18,.18,.25,.37,.2,.56-.05,.19-.11,.29-.16,.29-1.16,.63-1.81-.33-2.62-.82-.87-.71-1.92-1.06-2.95-1.45-.3-.15-.55-.35-.77-.6-.22-.47-.23-.95-.03-1.43,.43-.62,1.06-.76,1.76-.71Z"/>
    <path class="cls-233" d="M156.1,64.92c2.28-.32,2.04,1.99,3.11,2.94,.31,.13,.57,.31,.81,.54,.84,1.3,2.48,1.41,3.56,2.36,.02,.21,.04,.42,.08,.63-2.55,.92-4.11-.21-5.23-2.42-.7-1.39-1.55-2.7-2.33-4.05Z"/>
    <path class="cls-89" d="M51.8,23.83c3.93-1.06,7.86-1.12,11.79,.04-.14,.63-.52,1.04-1.13,1.25-.6,.14-1.2,.11-1.79-.04-2.91-.73-6.15,.88-8.86-1.25Z"/>
    <path class="cls-249" d="M163.61,59.68c-.71,.24-1.43,.47-2.14,.71-.18-.17-.21-.37-.11-.6,.03-.12,.04-.24,.09-.35,.49-1.22-.69-3.65,1.24-3.54,1.68,.1,.79,2.42,.92,3.78Z"/>
    <path class="cls-184" d="M71.05,29.11c-.51-1.02-1.01-2.04-1.52-3.06,.1-.4,.31-.66,.78-.57,.22,.16,.46,.26,.74,.3,.28,.05,.49,.19,.63,.44,.56,.25,1.12,.5,1.68,.76,.4,.24,.83,.46,1.05,.91,.17,.49,.09,.94-.2,1.37-.26,.21-.55,.36-.87,.45-.67,.13-1.32,.1-1.94-.24-.11-.12-.23-.24-.34-.36Z"/>
    <path class="cls-255" d="M126.34,95.45c.25-.5,.5-1,.75-1.5,1.35-.06,2.69-.14,4.04-.17,.66-.02,1.24,.2,1.18,1.02-.05,.72-.49,1.09-1.22,1.04-1.58-.11-3.17-.26-4.75-.39Z"/>
    <path class="cls-214" d="M51.8,23.83c3.17,.5,6.47-.7,9.57,.74-.15,.16-.29,.32-.44,.48-2.48,1.1-5.11,.44-7.67,.6-.89-.06-1.75-.2-2.38-.92-.52-.23-1.03-.46-1.55-.68,.82-.07,1.64-.14,2.46-.21Z"/>
    <path class="cls-283" d="M35.92,29.8c.04,.83-.13,1.74,.76,2.3,0,.49,0,.99,0,1.48-.75,.59-1.49,.66-2.24,0-.29-.83-.58-1.66-.88-2.49,.59-.79,1.31-1.32,2.35-1.29Z"/>
    <path class="cls-144" d="M135.32,61.15c1.78,1.66,1.44,3.84,1.47,5.93,0,0-.23,.15-.23,.15l-.27-.02c-2.19,.02-1.65-1.76-1.98-2.97-.01-1.14-.45-2.42,1.01-3.09Z"/>
    <path class="cls-241" d="M130.94,71.63c-.53-.17-1.34-.1-1.23-.92,.03-.26,.72-.44,1.11-.65,.53-.98,1.32-1.49,2.45-1.44,.63,.07,1.18,.28,1.53,.83-.87,1.47-1.97,2.52-3.87,2.18Z"/>
    <path class="cls-42" d="M134.81,69.45c-.58-.04-1.16-.09-1.75-.13-.02-2.27-.23-4.61,2.24-5.95,.19,1.31-.55,2.86,.98,3.84,.02,1.08-.46,1.84-1.48,2.24Z"/>
    <path class="cls-285" d="M97.94,72.28c.41-3.46-.86-7.04,.79-10.4,.33,3.51,.57,7.02-.79,10.4Z"/>
    <path class="cls-158" d="M88.3,37.13c-.03,.58-.06,1.15-.09,1.73-1.27,.38-1.9-.57-2.65-1.26-.46-.57-.78-1.19-.74-1.95,.14-.77,.55-1.3,1.31-1.56,.87,.92,2.32,1.42,2.18,3.05Z"/>
    <path class="cls-88" d="M23.99,84.97c1.26,.96,3.21,1.67,1.4,3.77-.97-.82-1.89-1.69-2.23-2.98,.09-.45,.38-.7,.82-.79Z"/>
    <path class="cls-186" d="M204.74,83.36c.46,2.02,.53,4.04,.06,6.07,0,.75,0,1.51-.01,2.26-1.25-2.77-1.48-5.54-.05-8.32Z"/>
    <path class="cls-13" d="M62.82,24.53c.26-.22,.51-.44,.77-.67,1.32,.6,3.49-1.26,4.1,1.4-.21,.24-.47,.39-.79,.44-1.1,.32-2.19,.06-3.29-.06-.48-.22-.76-.59-.79-1.12Z"/>
    <path class="cls-126" d="M41.14,26.9c1.26,1.58,2.51-.19,3.77,0,.64,.74,.59,1.48,0,2.22-1.69-.11-3.33-.35-4.59-1.66,.09-.46,.32-.71,.83-.55Z"/>
    <path class="cls-218" d="M16.6,58.19c1.05,2.96,1.04,5.91,0,8.87,0-2.96,0-5.91,0-8.87Z"/>
    <path class="cls-202" d="M17.96,73.8c2.47,.65,1.45,3.02,2.24,4.5-.28,.41-.57,.43-.88,.04-.85-1.39-1.65-2.8-1.36-4.54Z"/>
    <path class="cls-148" d="M67.45,25.28s.24-.02,.24-.02c.37,.34,.74,.67,1.12,1.01-1.32,2.16-2.57,2.23-3.73-.13,.7-.53,1.63-.43,2.37-.86Z"/>
    <path class="cls-179" d="M24,42.53c-.02-.62-.17-1.18-.73-1.55,.32-.45,.65-.89,.97-1.34,.63-.2,.94,.21,1.24,.64,.6,.32,.74,.87,.76,1.49-.49,1.01-1.15,1.49-2.23,.75Z"/>
    <path class="cls-230" d="M74.08,29.1l-.06-1.43c.27-.36,.58-.4,.94-.12l.25-.11,.22,.17c.57,.46,1.45,.6,1.6,1.51,.07,.46,.13,.91,.2,1.37-.58,.66-1.34,.31-2.03,.37-.81-.31-1.17-.9-1.11-1.76Z"/>
    <path class="cls-248" d="M116.6,54.48c1.43-.17,2.87-.15,2.55,1.84-.19,1.17-1.01,1.62-2,.49,.07-.67-.59-.97-.77-1.52-.08-.31,0-.59,.22-.81Z"/>
    <path class="cls-72" d="M145.02,39.42c0-.43,0-.85-.01-1.28,1.2-.75,2.42-.62,3.64-.07-.22,3.1-2.42,.9-3.63,1.35Z"/>
    <path class="cls-255" d="M131.55,87.2c-1.59-1.78-4.79,.79-5.95-2.17,1.18,1.1,2.63,.9,4.06,.85,.94-.04,2.05-.24,1.89,1.32Z"/>
    <path class="cls-16" d="M104.88,32.07c1.73,.66,5.1-1.84,4.91,2.53-.53-2.97-3.56-1.14-4.91-2.53Z"/>
    <path class="cls-211" d="M19.32,78.33c.3-.01,.59-.02,.89-.04,.97,1.23,1.88,2.48,1.45,4.19-1.89-.76-1.65-2.72-2.34-4.16Z"/>
    <path class="cls-91" d="M113.64,55.18c-1.59,.22-3.18,.43-4.76,.65,1.61-1.5,3.48-2.03,5.63-1.46-.09,.48-.55,.57-.87,.82Z"/>
    <path class="cls-62" d="M124.16,37.29c-1.62-2.02-.46-4.39-.81-6.57,1.68,2.02,.19,4.42,.81,6.57Z"/>
    <path class="cls-91" d="M116.65,55.17c.62,.41,1.71,.68,.5,1.64-1.67-.04-3.34-.07-5.01-.11,.52-.9,1.42-.75,2.24-.81,.6-.73,1.45-.7,2.27-.72Z"/>
    <path class="cls-233" d="M161.35,64.62l.14,.98c.23,.61-.11,.89-.62,1.07-.34,0-.64-.11-.89-.35-.74-1.02-1.48-2.05-2.22-3.07,1.48-.3,1.87,2.25,3.58,1.36Z"/>
    <path class="cls-153" d="M86.12,34.08c-.3,.61-.59,1.22-.89,1.83-.51,.19-.86-.06-1.2-.39-.4-.46-.73-.96-.96-1.53-.01-.15-.03-.3-.04-.45,.01-.3,.03-.6,.04-.9,1.26-.04,2.3,.4,3.05,1.45Z"/>
    <path class="cls-62" d="M135.95,90.7c.93,1.48-.43,3.38,.87,4.79-2.72-1.16-1.26-3.07-.87-4.79Z"/>
    <path class="cls-273" d="M120.99,64.84c.9,.82,2.03,1.57,.94,3.01-.97-.8-1.32-1.79-.94-3.01Z"/>
    <path class="cls-104" d="M148.65,38.08c-1.21,.02-2.43,.05-3.64,.07-.59-.09-1.2-.12-1.5-.77,1.71,.25,3.58-.66,5.14,.7Z"/>
    <path class="cls-151" d="M25.48,40.29c-.41-.21-.82-.43-1.24-.64,.45-1.31,1.33-2.15,2.71-2.43-.29,1.12-1.6,1.76-1.47,3.08Z"/>
    <path class="cls-291" d="M23.99,84.97c-.27,.26-.55,.52-.82,.79-.91-.83-1.51-1.82-1.53-3.09,1.14,.4,1.74,1.36,2.35,2.3Z"/>
    <path class="cls-62" d="M138.33,95.49c.23-1.77-.7-3.69,.69-5.31-.32,1.76,.79,3.7-.69,5.31Z"/>
    <path class="cls-195" d="M116.65,55.17c-.55,.88-1.44,.73-2.27,.72-.25-.24-.49-.48-.74-.71,.29-.27,.58-.55,.87-.82,.7,.04,1.4,.08,2.09,.12,.02,.23,.03,.46,.05,.69Z"/>
    <path class="cls-30" d="M77.02,29.12c-.83-.19-1.32-.74-1.6-1.51,1.27-.58,2.21,0,3.07,.87-.49,.21-.98,.43-1.47,.64Z"/>
    <path class="cls-186" d="M206.88,87.9c-.35-.95-.32-1.76,.81-2.17,.03,1.24,.05,2.47,.08,3.71-.3-.51-.59-1.03-.89-1.54Z"/>
    <path class="cls-255" d="M125.71,93.19c-1.31-1.5-1.29-3.01-.02-4.52,.33,1.51,.32,3.01,.02,4.52Z"/>
    <path class="cls-217" d="M29.16,91.04c-.3,.24-.61,.48-.91,.72-.62-.36-1.35-.63-1.23-1.57,1.1-.69,1.78-.33,2.14,.84Z"/>
    <path class="cls-62" d="M139.04,90.15c1.35-1.32,3.02-.51,4.54-.69-1.37,1.17-3.09,.03-4.54,.69Z"/>
    <path class="cls-139" d="M215.85,81.32c1.32-.7,.37-1.55,.16-2.35,1.16,.13,1.76,.67,1.39,1.91-.29,.97-.81,1.07-1.55,.44Z"/>
    <path class="cls-16" d="M112.99,33.12c.99-1.91,2.75-.8,4.16-1.06-1.39,.35-2.78,.7-4.16,1.06Z"/>
    <path class="cls-208" d="M32.15,32.06c-.38,1.39-1.51,1.58-2.71,1.67,.57-1.09,1.67-1.33,2.71-1.67Z"/>
    <path class="cls-62" d="M135.94,84.72c.82,1.17,.18,2.35,.02,3.52-.59-1.17-.53-2.35-.02-3.52Z"/>
    <path class="cls-19" d="M47.11,102.11c1.27,.18,2.75-.58,3.73,.85-1.23-.32-2.7,.37-3.73-.85Z"/>
    <path class="cls-41" d="M148.73,44.89c-.73,.58-1.39,1.34-2.47,.97-.03-.01,.16-.65,.24-.99,.74,0,1.49,.02,2.23,.03Z"/>
    <path class="cls-9" d="M19.38,48.56c.08,.46,.16,.91,.23,1.37,.38,.65,.53,1.25-.3,1.67-.05,.18-.05,.37-.02,.55-.69-1.22-.6-2.41,.09-3.59Z"/>
    <path class="cls-255" d="M126.92,88.01c1.39,.01,2.78,.02,4.17,.04-1.4,1.07-2.79,.77-4.17-.04Z"/>
    <path class="cls-41" d="M185.37,95.43c.06-.92-.2-1.91,.75-3.08v3.07c-.25,0-.5,0-.75,.01Z"/>
    <path class="cls-4" d="M74.96,27.55c-.31,.04-.62,.08-.94,.12-.23-.23-.45-.46-.68-.7,.67-.17,1.4-.5,1.61,.58Z"/>
    <path class="cls-175" d="M71.67,26.22c-.21-.05-.41-.12-.6-.2-.18-.12-.24-.24-.18-.36,.06-.12,.11-.18,.17-.18,.58-.06,.78,.19,.61,.74Z"/>
    <path class="cls-109" d="M71.06,25.48c0,.18,0,.36,0,.54-.47,.13-.67-.12-.76-.54,.25,0,.5,0,.75,0Z"/>
    <path class="cls-25" d="M26.18,59.54c.04-.71,.07-1.42,.11-2.13,1.5-.32,3.17-1.34,4.01,.98-.11,.58-.32,1.12-.62,1.62-1.76,2.83-.89,5.87-.67,8.85,.38,1.08-.16,2.42,.96,3.28,.74,1.57,1.49,3.14,2.23,4.71-.18,.11-.26,.23-.22,.37,.04,.15,.09,.22,.14,.22l.76,.19c.91,.72,1.15,1.89,1.84,2.76,.64,1.33,1.95,2.14,2.7,3.4,.94,1.32,1.98,2.54,3.48,3.26,.76,.33,1.48,.71,2.05,1.32,.53,.77,1.46,1.34,1.33,2.47-.49,.73-1.08,.4-1.61,.11-9.27-4.98-15.51-12.12-16.47-23.01-.51-2.8-.51-5.6,0-8.4Z"/>
    <path class="cls-168" d="M42.87,88.78c-.86-.3-1.71-.59-2.57-.89-.85-1.45-1.95-2.65-3.47-3.43-.5-1.5-2.46-2.13-2.35-3.98,.25-.28,.53-.29,.82-.07,4.53,4.13,9.05,8.22,15.44,9.34,3.8,.67,7.59,.36,11.39,.26,1.26-.1,1.9,.55,2.09,1.73,.14,4.74-2.22-.45-2.98,.75-3.71,1.91-7.46,.71-11.21,.15-1.15-.21-2.25-.6-3.33-1.04-1.28-.94-2.61-1.8-3.84-2.81Z"/>
    <path class="cls-250" d="M64.21,57.44c-.58-.29-.65-.82-.69-1.37-.32-.51-.41-1.03-.16-1.6,.44-.43,.96-.52,1.54-.39,1,.54,1.7,1.36,2.21,2.36,.13,.33,.2,.68,.24,1.03-.28,2.21-.52,4.41,.36,6.56,.02,.38-.04,.73-.17,1.09-.65,1.04-1.52,1.73-2.79,1.79-.8-.17-1.6-.33-1.26-1.47,1.06-.74,.17-1.97,.72-2.84,.78-1.72,.78-3.45,0-5.17Z"/>
    <path class="cls-190" d="M32.21,54.43c1.22-1.27,2.79-.69,4.2-.71,5.41-.07,10.83-.05,16.24-.01,1.18,0,2.5-.41,3.46,.72-7.97,0-15.93,0-23.9,0Z"/>
    <path class="cls-108" d="M49.49,91.71c3.88,.92,7.83,.72,11.76,.77-.26,.44-.52,.87-.78,1.31-2.62,.84-5.23,.72-7.84-.04-1.13-.56-3.03,.07-3.14-2.04Z"/>
    <path class="cls-120" d="M49.49,91.71c.6,1.18,1.78,1.31,2.88,1.59,.22,.14,.29,.28,.22,.42-.07,.14-.14,.21-.22,.21-2.75-.19-5.72,.17-7.38-2.85,.37-.61,.82-.55,1.33-.18,1.15-.08,2.18,.27,3.17,.81Z"/>
    <path class="cls-250" d="M60.56,65.69c-.42,2.08-2.1,1.21-3.32,1.41-2.63,.43-5.45-.92-7.94,.85q-.13-1.46,3.06-1.58c1.75-.59,3.49-.58,5.24,0,.63,.05,1.19-.04,1.54-.65,.42-.54,.93-.55,1.48-.22l-.07,.2Z"/>
    <path class="cls-247" d="M60.63,65.49c-.49,.07-.99,.15-1.48,.22-.06-.24-.07-.5-.19-.71-.57-1.08-2.74,.8-2.68-1.42,.01-.56,.51-.82,1.02-.88,1.44-.19,2.32,.66,3.01,1.74,.19,.3,.21,.7,.31,1.05Z"/>
    <path class="cls-217" d="M52.37,93.93c0-.21,0-.42,0-.63,2.64,1.12,5.39,.53,8.11,.49-2.67,1.62-5.38,1.1-8.1,.14Z"/>
    <path class="cls-183" d="M29.96,72.15c-2.02-.13-1.19-1.86-1.62-2.87,.16-.72,.15-1.51,.74-2.09,.27-.19,.54-.19,.81,0,.74,1.64-.15,3.31,.08,4.96Z"/>
    <path class="cls-240" d="M53.93,80.67c-1.02-1.74-1.76-2.96,.19-4.76,.08,1.71,.74,2.94-.19,4.76Z"/>
    <path class="cls-265" d="M59.09,81.26c.94,.43,1.41,1.19,1.56,2.19-1.6,2.27-2.18,.17-3.05-.71-.22-.17-.3-.33-.22-.5,.07-.17,.15-.25,.22-.25,.61-.01,1.17-.14,1.49-.73Z"/>
    <path class="cls-87" d="M26.18,59.54c0,2.8,0,5.6,0,8.4-1.07-2.8-1.11-5.6,0-8.4Z"/>
    <path class="cls-210" d="M57.6,81.99c0,.25,0,.5,0,.74-1.04,.19-2.08,.39-3.3,.61,.65-2.12,1.54-2.95,3.3-1.36Z"/>
    <path class="cls-243" d="M29.88,67.19c-.26,0-.51-.02-.77-.02-.12-.15-.25-.31-.37-.46-.43-1.94-.36-3.88-.05-5.82,.17-.39,.47-.62,.89-.69,1.21,.92,.84,2.03,.4,3.16-.03,1.28-.06,2.56-.1,3.83Z"/>
    <path class="cls-97" d="M35.3,80.4c-.27,.02-.55,.05-.82,.07-1.35-.49-1.65-1.57-1.61-2.84,1.9-.03,1.98,1.53,2.43,2.77Z"/>
    <path class="cls-38" d="M46.32,90.9c-.44,.06-.88,.12-1.33,.18-.24-.08-.49-.16-.73-.24-.35-.77-2.11-.59-1.39-2.07,1.37,.35,2.78,.64,3.45,2.12Z"/>
    <path class="cls-178" d="M64.22,91.73c-.7-.58-1.39-1.15-2.09-1.73,.53-.95,1.16-1.27,2.01-.35,.62,.67,1.24,1.34,.07,2.08Z"/>
    <path class="cls-154" d="M57.55,52.9c.08-.21,.07-.41-.02-.61,1.32-1.22,2.64-1.1,3.95,.01,.19,.39,.22,.8,.1,1.22-.46,.66-1.03,.57-1.64,.24-.52-.05-1.03-.09-1.55-.14-.28-.24-.56-.48-.85-.72Z"/>
    <path class="cls-92" d="M59.95,53.76c.47-.02,.94-.04,1.4-.06,1.1-.76,1.77-.28,2.23,.78-.02,.53-.04,1.05-.07,1.58-1.19-.77-2.38-1.53-3.57-2.3Z"/>
    <path class="cls-87" d="M29.96,58.9c-.46-2.36-2.37-1.18-3.67-1.49,1.91-.85,3.97-2.16,4.4,1.45-.23,.28-.47,.31-.73,.04Z"/>
    <path class="cls-284" d="M29.96,58.9c.24,0,.49-.01,.73-.04-.2,1.5,.62,3.17-.71,4.49-.08-1.14,.21-2.37-.9-3.23,.03-.16,.05-.32,.08-.48,.27-.25,.54-.5,.8-.75Z"/>
    <path class="cls-92" d="M64.21,57.44c1.39,1.72,1.38,3.45,0,5.17,0-1.72,0-3.45,0-5.17Z"/>
    <path class="cls-64" d="M63.49,65.45c.36,.72,1.01,.9,1.74,.95-.04,1.06-.4,1.75-1.65,1.36-.5-.7-1.6-.98-1.49-2.11,.47-.07,.93-.13,1.4-.2Z"/>
    <path class="cls-40" d="M57.61,66.36c-1.75,0-3.49,0-5.24,0,1.75-1.19,3.49-1.19,5.24,0Z"/>
    <path class="cls-115" d="M22.49,54.43c1.49-1.12,2.98-1.12,4.47,0-1.49,0-2.98,0-4.47,0Z"/>
    <path class="cls-232" d="M32.11,77.45c-.19-.12-.37-.23-.56-.35,.21-.08,.42-.16,.64-.24,0,.2-.02,.4-.08,.59Z"/>
    <path class="cls-48" d="M84.6,90.21c-2.63,2.59-5.39,4.98-9.07,6.01-1.25-1.76-2.5-3.52-3.74-5.28-.58-.78-.68-1.56,.05-2.31,.89-.45,1.93-.28,2.82-.71,1.3-.31,1.5-1.58,2.14-2.46,.52-.5,1.07-.88,1.84-.57,.5,.5,.64,1.16,.81,1.8,.21,1.26,1.37,1.51,2.23,2.09,.68,.39,1.45,.56,2.19,.82,.3,.14,.54,.35,.72,.62Z"/>
    <path class="cls-235" d="M63.58,67.76c.85-.09,1.23-.75,1.65-1.36,.69-.52,1.37-1.03,2.06-1.55,.48-.43,1-.44,1.56-.17,1.16,2.66-.97,3.64-2.51,4.94-.95,.55-1.81,1.25-2.92,1.49-.39-.03-.69-.2-.93-.51-.35-.76-.21-1.44,.32-2.06,.26-.26,.52-.52,.77-.78Z"/>
    <path class="cls-260" d="M72.62,88.69c-.95,.5-.79,1.42-.84,2.25-.45-.26-.9-.53-1.35-.79-.77-1.5-3.03-2.11-2.6-4.32,2.44,.88,2.33-1.74,3.54-2.56,.72-.12,1.31,.18,1.84,.62,.71,.94-.09,1.78-.19,2.66-.04,.73,.16,1.51-.4,2.14Z"/>
    <path class="cls-64" d="M67.9,85.75c.84,1.47,1.69,2.93,2.53,4.4-3.69-1.99-5.09-5.92-7.6-8.9,.12-.11,.25-.21,.37-.32,.32-.1,.64-.13,.98-.08,.32,.1,.61,.25,.88,.45,1.04,.84,1.84,1.88,2.5,3.03,.25,.44,.42,.9,.35,1.41Z"/>
    <path class="cls-188" d="M58.99,68.66c.81,0,1.63,.02,2.44,.02,.57,2.37-1.47,2.02-2.67,2.55-.36,.08-.73,.11-1.1,.1-.76-.11-1.37-.47-1.75-1.15-.08-.35-.03-.68,.15-1,.92-.51,2.05,.13,2.94-.52Z"/>
    <path class="cls-227" d="M56.09,69.37c-.05,.25-.1,.5-.15,.75,.17,.65,.44,1.31-.03,1.95-1.92,.09-2.59-1.07-2.74-2.74,.98-.53,1.95-.57,2.92,.03Z"/>
    <path class="cls-280" d="M56.09,69.37c-.97-.01-1.95-.02-2.92-.03-.11-.05-.22-.11-.34-.14-.38-.12-.42-.43-.09-.44,2.08-.07,4.17-.06,6.26-.08-.75,1.13-1.95,.42-2.91,.7Z"/>
    <path class="cls-223" d="M57.62,71c.25-.06,.49-.11,.74-.17,.13,.1,.26,.21,.39,.31,.2,.26,.37,.55,.52,.85,.45,1.2,1.55,2.44-.21,3.51-.88,.05-1.18-.52-1.35-1.24-.2-.43-.4-.85-.6-1.28,.14-.67-.31-1.49,.52-1.99Z"/>
    <path class="cls-74" d="M58.36,70.83c.64-1.26,3-.08,3.08-2.15,.46-.05,.92-.1,1.37-.15,0,.76,.02,1.51,.03,2.27-1.45,1.28-2.93,1.14-4.43,.09l-.05-.07Z"/>
    <path class="cls-64" d="M57.71,74.27c.49,.28,.98,.55,1.47,.83,.45,.14,.8,.42,1.11,.76,.5,.61,.88,1.26,.6,2.09-.1,.11-.21,.22-.31,.34-1.34-1.07-3.44-1.59-2.87-4.02Z"/>
    <path class="cls-187" d="M57.62,71c-.05,.7,.08,1.44-.52,1.99-.4-.31-.8-.62-1.19-.92-.84-.66-.86-1.32,.03-1.95,.56,.3,1.12,.59,1.68,.89Z"/>
    <path class="cls-64" d="M62.83,81.25c-1.92-.11-2.3-1.38-2.25-2.97,0,0,.14-.13,.14-.13,.33-.12,.63-.08,.92,.12,.64,.9,1.74,1.61,1.2,2.98h0Z"/>
    <path class="cls-276" d="M94.83,73.04c.04,2.63-1.6,4.59-2.72,6.75-1.33,1.28-1.71,3.19-2.94,4.54-.23,.25-.46,.49-.7,.74-1.05,.43-1.65,1.69-2.98,1.6-.14-.08-.29-.17-.43-.25-.16-.28-.25-.59-.27-.91,.22-1.72-1.32-1.73-2.27-2.31-.26-.19-.43-.44-.5-.75,.03-.92,.71-1.63,.82-2.53,0-.29,0-.58-.02-.88-.08-.46-.14-.91-.06-1.37,.22-.64,.62-1.13,1.28-1.37,1.2-.29,2.04,.17,2.61,1.23,.41,.76,.85,.59,1.31,.03,.24-.2,.51-.29,.81-.29,.65,.1,1.1,.93,1.88,.49,.44-.33,.69-.79,.91-1.28,.29-.65,.47-1.35,.83-1.96,.46-.59,1-1.1,1.6-1.55,.29-.14,.57-.11,.83,.07Z"/>
    <path class="cls-107" d="M85.25,86.46c1.08-.45,1.79-1.73,3.21-1.39-.62,2.21-2.02,3.85-3.86,5.14-.28-.01-.56-.02-.85-.03-.52-1.65,.31-2.76,1.5-3.72Z"/>
    <path class="cls-125" d="M96.52,56.61c1.09,4.02,1.14,8.03-.03,12.04-.16-.16-.32-.31-.48-.47-.91-3.71-.94-7.41,.01-11.12,.16-.15,.33-.3,.49-.46Z"/>
    <path class="cls-65" d="M94.2,49.97c.2,.02,.41,.04,.61,.07,.03,.24,.1,.47,.21,.69,.87,1.89,1.27,3.85,1.03,5.93,0,.48-.23,.78-.7,.9-2.09-2.27-2.65-4.78-1.16-7.59Z"/>
    <path class="cls-244" d="M89.16,84.33c.4-1.88,1.18-3.53,2.94-4.54-.59,1.77-1.01,3.64-2.94,4.54Z"/>
    <path class="cls-125" d="M95.82,56.5c-.27-1.92-.53-3.85-.8-5.77,1.87,1.61,1.33,3.84,1.5,5.88,0,0-.16,.14-.16,.14-.32,.2-.5,.11-.55-.25Z"/>
    <path class="cls-288" d="M94.83,73.04c-.2,0-.4,.01-.61,.02-1.01-.98-.93-2.13-.51-3.32,.19-.37,.49-.59,.91-.64,.92,.21,1.06,1.02,1.33,1.72,.1,.56,.21,1.12-.44,1.45-.23,.26-.46,.51-.69,.77Z"/>
    <path class="cls-285" d="M95.52,72.27c.03-.49,.05-.99,.08-1.48-.21-.91-.81-1.95,.74-2.28,0,0,.16,.15,.16,.15-.28,1.22,.59,2.75-.98,3.62Z"/>
    <path class="cls-239" d="M139.03,81.99c1.6-1.08,3.23-.77,4.33,.51,1.17,1.36,.61,2.9-.61,4.14-1.2,.37-2.29,1.65-3.68,.46l.08,.08c-.81-1.71-.61-3.45-.12-5.19Z"/>
    <path class="cls-62" d="M139.03,81.99c.04,1.73,.08,3.46,.12,5.19-1.1-1.71-1.63-3.42-.12-5.19Z"/>
    <path class="cls-62" d="M139.08,87.1c1.32,.57,2.43-.54,3.68-.46-1.08,1.34-2.24,2.05-3.68,.46Z"/>
    <path class="cls-239" d="M177.28,90.18c-.12,2.03-1.48,3.06-3.22,3.44-1.29,.28-1.88-.79-2.15-1.95-.17-.92-.88-1.86,.09-2.74,1.91-1.21,3.58-.79,5.08,.75-.07,.22,0,.39,.2,.5Z"/>
    <path class="cls-239" d="M171.92,85.17c-1.02-1.45-1.01-2.85,.7-3.61,1.08-.48,2.54-.63,3.31,.69,1.15,1.97-.39,2.84-1.76,3.71-.98,.39-1.63-.13-2.24-.78Z"/>
    <path class="cls-204" d="M177.08,89.68c-1.59-.97-3.25-1.47-5.08-.75,.11-.87,.64-1.4,1.42-1.73h0c.9,1.29,3.41,.23,3.66,2.48Z"/>
    <path class="cls-204" d="M171.92,85.17c.7,.39,1.34,.96,2.24,.78-.03,.55-.2,1.01-.75,1.26,0,0,0,0,0,0-.38-.76-1.54-.96-1.49-2.04Z"/>
    <path class="cls-239" d="M111.3,87.17c-2.52-1.71-1.91-3.77-.64-5.89,.73,0,1.47,0,2.2-.01,3.85,3.11,.21,4.26-1.56,5.91Z"/>
    <path class="cls-54" d="M61.53,52.9c-1.2-1.05-2.64-.57-4-.61-11.44-.02-22.88-.03-34.32-.1-1.3,0-2.75,.55-3.91-.58,.1-.56,.2-1.12,.3-1.68,11.88,.03,23.76,.06,35.64,.08,4.58,0,8.86,.79,12.09,4.43,.92,.54,1.46,1.21,.87,2.31-.52,.35-1.04,.38-1.57,.03-.44-.84-1.67-1.15-1.57-2.35-1.11-.68-2.47-.75-3.54-1.53Z"/>
    <path class="cls-69" d="M59.09,49.2c-7.47,0-14.94-.01-22.41-.02-.17-.19-.23-.38-.19-.58,.04-.2,.09-.3,.14-.3,.89-.75,2.17-.54,3.08-1.23,.24-.17,.5-.3,.78-.4,1.07-.12,.24-1.35,.98-1.68,3.76-1.92,7.56-1.75,11.39-.29,.29,.23,.55,.5,.78,.79,1.16,2.14,3.59,.82,5.16,1.87,.29,.23,.5,.52,.63,.86,.03,.38-.08,.71-.34,.98Z"/>
    <path class="cls-44" d="M68.09,54.43c-1.08-3.24-4.2-3.86-6.75-5.2,.56-.77,1.41-.97,2.28-1.12,1.29-.01,2.3,.67,3.32,1.33,2.64,1.63,4.4-.65,6.49-1.46,.72-.21,1.43-.2,2.13,.11,1.88,1.39,1.15,2.79,.04,4.2-.65,.78-1.18,1.67-1.95,2.36-.53,.41-1.11,.74-1.69,1.07-1.22,.72-2.25,.32-3.2-.56-.25-.22-.47-.47-.66-.74Z"/>
    <path class="cls-176" d="M36.69,48.47c0,.24,0,.48,0,.71-4.23,0-8.47,.01-12.7,.02-3.5-1.57-3.5-1.67,0-5.19,.84-.51,1.61-.13,2.4,.16,1.22,.5,1.37,2.11,2.66,2.55,.6,.17,1.21,.32,1.81,.48,1.25,.4,2.52,.44,3.81,.32,.67-.07,1.35-.19,2.01,.08,.18,.19,.24,.39,.18,.59-.06,.2-.11,.3-.17,.3Z"/>
    <path class="cls-165" d="M68.09,54.43c.23,.01,.46,.02,.7,.02,1.61,1.91,2.33,3.99,1.23,6.42-.38,.56-.92,.72-1.56,.62-.61-.22-.81-.71-.87-1.3,.09-1.19,.35-2.36,.56-3.53-.27-.74-.53-1.48-.8-2.22,.25,0,.5,0,.75-.01Z"/>
    <path class="cls-182" d="M63.58,48.48c-.54,.88-1.43,.71-2.25,.75-.75,0-1.49-.02-2.24-.03,0-.24,0-.48,0-.73,1.01-.97,2.21-.99,3.48-.69,.4,.13,.74,.37,1,.7Z"/>
    <path class="cls-189" d="M31.45,38.06c1.47-2.13,3.04-3.61,5.23-.75,.5,1.28-.5,1.85-1.21,2.57-1.16,.66-2.09,1.66-3.3,2.26-.96,.19-1.66-.08-1.88-1.12,0-.32,.07-.63,.2-.92,.38-.65,.87-1.25,.95-2.04Z"/>
    <path class="cls-242" d="M30.71,40.29c.03,.97,.52,1.46,1.49,1.49,.2,.29,.24,.6,.13,.93-.4,.57-.93,.9-1.66,.81-.83-.19-1.57-.96-2.51-.33-.62,.56-1.15,1.22-1.94,1.56-.75-.25-1.49-.5-2.24-.74,0-.49,.01-.99,.02-1.48,.74-.25,1.49-.5,2.23-.75,.25-.25,.49-.49,.74-.74,1.1-.99,2.19-1.99,3.74-.75Z"/>
    <path class="cls-283" d="M35.18,39.53c.5-.74,1.01-1.48,1.51-2.23,1.24-.75,2.75-1.04,3.73-2.23,.75-.25,1.49-.5,2.24-.75,.34,.31,.83,.47,1.03,.94,.03,.33-.03,.64-.19,.93-.29,.41-.67,.72-1.13,.94-2.29,.53-3.9,2.57-6.31,2.84-.34-.05-.64-.2-.89-.45Z"/>
    <path class="cls-179" d="M30.71,40.29c-1.25,.25-2.49,.5-3.74,.75,.06-1.51,1.04-2.33,2.24-2.98,.66,.64,2.6,.42,1.49,2.23h0Z"/>
    <path class="cls-259" d="M30.71,40.29c.12-1.16-1.04-1.46-1.49-2.23,.75,0,1.49,0,2.24,0,1.22,1.23,.84,1.93-.75,2.23Z"/>
    <path class="cls-163" d="M34.45,33.58c.75,0,1.49,0,2.24,0-.14,1.45-1.08,1.71-2.22,1.3-.81-.29-.51-.86-.01-1.3Z"/>
    <path class="cls-35" d="M44.9,29.11c0-.74,0-1.48,0-2.22,1.99-.72,3.99-1.45,5.98-2.17,.76,0,1.51,0,2.27,0,1.36,.68,2.82,.11,4.22,.36,1.12,.52,2.42,.72,3.22,1.81,0,.25,0,.5,0,.74,.07,.25-1.21,.6,.04,.75,.73,.08,1.48-.01,2.18,.33,.69,.44,1.06,1.05,1.07,1.88-.18,.82-.52,1.51-1.37,1.83-3.77,.03-7.55-.27-11.31,.2-.42-.05-.77-.22-1.07-.51,0-.49,0-.99,0-1.48,.43-.65,1.47-.71,1.6-1.62-.62-.93-.46,.32-.75,.27-.54,.29-1.43,.35-.85,1.34-1.81-.26-3.18-2.07-5.23-1.49Z"/>
    <path class="cls-126" d="M50.13,32.09c.25,0,.5,0,.75,0,.25,.27,.32,.59,.22,.94-.23,.49-.57,.88-.99,1.22-.88,.68-1.91,.88-2.98,.99-1.19-.05-2.41,.74-3.58-.1-.3-.27-.59-.54-.89-.8,.12-.02,.28,0,.36-.06,.15-.13,.26-.31,.39-.47-1.29-.57-3.95,.22-3.48-2.13,.55-2.76,3.07-.75,4.66-1.13,2.24-.53,3.51,1.75,5.54,1.55Z"/>
    <path class="cls-41" d="M108.41,83.48c.44,1.92,.89,3.83,1.33,5.75-3.68-.43-2.8-2.75-2.08-5,.25-.25,.5-.5,.75-.75Z"/>
    <path class="cls-293" d="M151.72,61.14c-.06,1.88-1,3.64-.56,5.61-1.36-1.22-.7-2.75-.89-4.13,.65-.34,.04-1.89,1.45-1.48Z"/>
    <path class="cls-229" d="M151.72,61.14c-.48,.49-.97,.99-1.45,1.48,.04-.97,.07-1.93,.11-2.9,.7-.02,1.4-.04,2.1-.07-.25,.49-.5,.99-.76,1.48Z"/>
    <path class="cls-239" d="M126.33,57.45c1.44-.61,2.96-.76,4.5-.78,.15,.15,.32,.18,.51,.08,4.58,3.82,4.3,10.26-.55,12.45-1.54,.5-2.86-.31-4.25-.72-2.32-3-2.42-6.23-.98-9.61-.44-.84-.5-1.49,.76-1.43Z"/>
    <path class="cls-127" d="M130.79,69.21c4.23-3.53,4.4-7.42,.55-12.45,2.98-.02,2.75,2.84,3.98,4.4-.48,.74-.46,1.48,0,2.22-1.15,1.83-.82,4.22-2.24,5.95-.75,.24-1.49,.49-2.24,.73-.01-.28-.02-.57-.03-.85Z"/>
    <path class="cls-266" d="M94.2,49.97c-.01,2.57,.41,5.06,1.41,7.44,.82,.8,.35,1.79,.41,2.7-.56,.93-1.3,.47-2.01,.28-.87-.41-1.5-1.06-1.88-1.94-.53-2.07-1.73-1.23-2.86-.64-1.31-.36-3.77,2.11-3.79-1.51,.12-.46,.36-.87,.63-1.26,.44-.63,.66-1.37,1.08-2.01,.22-.23,.5-.33,.82-.33,.3,.11,.53,.3,.71,.56,.39,.57,.85,.66,1.4,.2,1.83-1.78,1.81-4.24,2.43-6.46,.33-.24,.6-.17,.81,.17,.28,.93,.57,1.87,.85,2.8Z"/>
    <path class="cls-145" d="M86.1,37.09c.71,.59,1.41,1.18,2.12,1.77,.44,1.42,2.41,1.89,2.27,3.66,.48,.76,.55,1.6,.48,2.46-.56,1.19-2.1,.53-2.81,1.46-.34,0-.63-.13-.87-.35-.3-.16-.35-.93-.48-.7-.26,.44-.26,1.06-.68,1.49-1.84-.04-2.49-2.71-4.63-2.09-.75-.6-1.13-1.35-.98-2.32,2.58-2.94,2.95-3.04,6.33-1.73-.56-.93-1.34-1.67-1.28-2.77,.07-.36,.24-.65,.53-.87Z"/>
    <path class="cls-279" d="M90.47,45.5c0-.99,0-1.99,0-2.98,.44,.54,.88,1.07,1.32,1.61,.93,.74,1.65,1.55,.94,2.83,.65,2.92-.32,5.35-2.26,7.48-.7-.57-1.68-.71-2.24-1.49h0c-.56-.56-.77-1.23-.72-2,.04-.36,.13-.71,.25-1.04,.98-1.42,1.24-3.28,2.7-4.4Z"/>
    <path class="cls-117" d="M92.74,46.95c-.31-.94-.63-1.89-.94-2.83,2.32,.1,1.54,1.77,1.56,3.04-.21-.06-.41-.13-.61-.21Z"/>
    <path class="cls-18" d="M121.87,61.15c1.18-1.14,1.33-.19,1.5,.73,0,.25-.01,.5-.02,.75-.86,.46-1.07-.34-1.48-.76,0-.24,0-.49,0-.73Z"/>
    <path class="cls-102" d="M121.87,61.88c.49,.25,.98,.5,1.48,.76-.14,.52-.1,1.37-.93,1.07-.79-.28-.49-1.17-.55-1.83Z"/>
    <path class="cls-75" d="M163.58,70.76c-1.98,.32-3.47-.32-4.34-2.19,.39-.5,.7-1.09,1.44-1.16,.32,0,.62,.07,.91,.19,.75,.51,1.48,1.05,2.07,1.75-.03,.47-.05,.94-.08,1.4Z"/>
    <path class="cls-233" d="M163.65,69.36c-1.06-.03-2.15-.04-2.21-1.52-.32-1.34,.69-1.32,1.52-1.48,.24,0,.47-.02,.71-.03,0,1.01-.01,2.02-.02,3.02Z"/>
    <path class="cls-124" d="M126.33,57.45c-.25,.48-.51,.95-.76,1.43-1.53,.14-2.46-.32-2.09-2.08,.98,.09,2.45-1.94,2.85,.65Z"/>
    <path class="cls-128" d="M62.84,32.08c.01-.61,.15-1.16,.75-1.47,.83-.92,1.7-1.66,2.99-.74,1.54,.02,3.1,.14,4.48-.75,0,0,0,0,0,0,.77,.92,.34,1.78-.14,2.64-.71,.98-1.7,1.52-2.86,1.8-.95,.19-1.89,.14-2.82-.1-.89-.29-1.81-.54-2.39-1.37Z"/>
    <path class="cls-113" d="M62.83,29.12c-1.85-.15-3.78,.35-5.79-.48,1.13-1.55,2.45-.78,3.54-1.01,1.58-.26,2.99,.5,4.48,.75-.22,1.82-1.26,1.19-2.24,.74Z"/>
    <path class="cls-142" d="M60.59,26.88c-1.28,.07-2.42-.13-2.99-1.49,1.13-.81,2.52,0,3.68-.58,0,0,.08-.25,.08-.25,.48-.01,.97-.02,1.45-.03,.27,.26,.53,.52,.8,.78,.39,.3,.38,.57-.04,.83-.93,.51-1.9,.86-2.99,.75Z"/>
    <path class="cls-184" d="M62.83,29.12c.82-.03,1.7,.13,2.24-.74,.97,.02,1.47,.52,1.5,1.49-1,.25-1.99,.5-2.99,.74-.25-.5-.5-.99-.75-1.49Z"/>
    <path class="cls-184" d="M63.58,26.14c.01-.28,.03-.55,.04-.83,1.28,0,2.56-.02,3.83-.02-.56,.92-1.48,.86-2.37,.86-.5,0-1,0-1.5,0Z"/>
    <path class="cls-60" d="M160.71,67.84c-.49,.25-.98,.49-1.47,.74-.02-.24-.03-.48-.04-.72,.03-.63,.17-1.2,.78-1.53,.24,.01,.48,.02,.73,.03,.46,.49,.43,.98,0,1.47Z"/>
    <path class="cls-84" d="M160.71,67.84c0-.49,0-.98,0-1.47,.26-.25,.52-.51,.78-.76,.84-.42,1.51-.49,1.47,.76-.51,.49-1.01,.98-1.52,1.48-.24,0-.49,0-.73,0Z"/>
    <path class="cls-257" d="M75.52,30.54c.54-.71,1.14,.13,1.7-.06,.21,0,.39,.07,.55,.21,.9,1.5-.54,1.84-1.25,2.54-.72,.55-.53,1.21-.21,1.89,.34,1.11,.22,2.02-1.05,2.43-1.03-.11-1.55-.82-1.93-1.68q-1.59-3.94,2.2-5.33Z"/>
    <path class="cls-155" d="M75.54,32.84c.49-.98,2.32-.57,2.23-2.15,1.39-.12,2.35,.47,2.9,1.74,.51,.38,.61,.89,.45,1.48-.38,.77-1.05,.99-1.84,.98-1.44-.32-2.71-.98-3.74-2.05Z"/>
    <path class="cls-56" d="M80.77,33.58c-.03-.38-.07-.77-.1-1.15,.79,.37,1.57,.73,2.36,1.1,0,0-.1,.22-.1,.22,.09,.99-.58,.96-1.25,.91-.51-.19-.65-.69-.91-1.08Z"/>
    <path class="cls-85" d="M75.52,30.54c-2.02,1.33-2.59,3.07-1.48,5.28-1.31,.63-2.51,.14-3.72-.33-.81-.83-2.4-1.01-2.26-2.65l2.24-1.49c1.12-.58,1.92-1.58,2.99-2.23,.26,0,.52-.02,.78-.02,.48,.48,.96,.96,1.44,1.44Z"/>
    <path class="cls-269" d="M73.3,29.13c-.56,1.32-1.23,2.51-2.99,2.23,.25-.75,.5-1.49,.75-2.24,.75,0,1.5,0,2.24,.01Z"/>
    <path class="cls-194" d="M61.28,24.81c-1.1,1-2.45,.43-3.68,.58-1.48-.23-3.12,.57-4.45-.68,2.71,.03,5.42,.06,8.13,.1Z"/>
    <path class="cls-157" d="M86.1,37.09c-.04,.33-.07,.65-.11,.98-1.98,.15-2.67-.9-2.55-2.71,.21-.36,.5-.45,.88-.27,.3,.27,.6,.55,.9,.82,.29,.39,.58,.79,.87,1.18Z"/>
    <path class="cls-34" d="M84.32,35.08c-.19,.01-.39,.02-.58,.03-.43,.38-.93,.52-1.5,.42-.54-.22-.93-.53-.72-1.2,.47-.2,.94-.39,1.41-.59,.82,.07,1.32,.48,1.39,1.33Z"/>
    <path class="cls-87" d="M29.15,59.65c.02,.17,0,.33-.08,.48,0,0,.13,.28,.13,.28-.6,2.25-.6,4.5,0,6.75,0,0-.11,0-.11,0-.03,.79,.27,1.69-.78,2.11-.55-3.28-1.96-6.62,.82-9.62Z"/>
    <path class="cls-268" d="M36.83,84.45c1.7,.6,3.39,1.21,3.47,3.43-1.55-.75-2.45-2.15-3.47-3.43Z"/>
    <path class="cls-92" d="M68.19,59.72c0,.47,0,.94,.01,1.41,.22,.31,.39,.65,.49,1.02-.03,.92,.18,2-1.29,2-2.25-2.03-.99-4.47-.8-6.79,1.68,.03,1.59,1.22,1.58,2.37Z"/>
    <path class="cls-207" d="M67.4,64.14c.96-.51,.49-1.51,.77-2.25,2.54-.37,2.19,1.14,1.75,2.69-.28,.41-.64,.51-1.09,.29-.52,0-1.03-.01-1.55-.02,.05-.24,.09-.47,.12-.71Z"/>
    <path class="cls-256" d="M68.19,59.72c-.53-.79-1.06-1.58-1.58-2.37,.01-.19,.02-.38,.03-.58,.5-.04,1-.08,1.5-.12,.9,1.01,1.07,2.02,.05,3.06Z"/>
    <path class="cls-287" d="M61.53,52.9c1.41-.03,2.63,.4,3.54,1.53-.49,.02-.99,.03-1.48,.05-.74-.26-1.49-.52-2.23-.78,.06-.27,.12-.53,.18-.8Z"/>
    <path class="cls-143" d="M29.22,67.16c-1.54-2.25-1.62-4.5,0-6.75,0,2.25,0,4.5,0,6.75Z"/>
    <path class="cls-215" d="M83.94,76.77c-.27,.51-.53,1.02-.8,1.53,.06,.13,.12,.27,.19,.4-.07,.29-.2,.55-.39,.78-.3,.32-.61,.64-.89,.99-.17,.25-.35,.49-.53,.73-.46,.6-.83,1.25-1.04,1.99-.16,.44-.42,.83-.75,1.17-.35,.33-.75,.55-1.24,.55-.47,.31-.95,.63-1.42,.94-.47,.4-.82,1-1.55,1.02-1.23-.02-2.52,.58-3.65-.39,.47-.75,.95-1.5,1.42-2.25,1.04-1.83,2.6-3.24,3.96-4.81,1.03-1.02,1.77-2.18,1.89-3.66,.05-.51,.14-1.01,.3-1.49,.26-.69,.68-1.26,1.28-1.7,1.78-1.12,3.51-.95,5.19,.21,.76,2.03-.81,2.92-1.98,4Z"/>
    <path class="cls-237" d="M71.87,86.47c1.22,.51,2.51-1.43,3.71,.1,.41,.94-.22,1.52-.75,2.13-.74,.17-1.48,1.07-2.21,0-.25-.74-.5-1.48-.75-2.22Z"/>
    <path class="cls-251" d="M85.25,86.46c-.5,1.24-1,2.48-1.5,3.72-.82-.02-1.7,.13-2.24-.74,.02-.46,.23-.84,.46-1.22,.31-.52,.62-1.04,1.1-1.43,.68-.38,1.35-.86,2.17-.33,0,0,0,0,0,0Z"/>
    <path class="cls-11" d="M83.01,87.21c-.02,.61-.14,1.17-.74,1.49-1.33-.27-2.63-.65-3.73-1.48-.01-.77-.03-1.55-.04-2.32,.24-.25,.48-.49,.72-.74,.78,.44,1.45,1.05,2.33,1.32,.64,.45,1.19,.98,1.47,1.74Z"/>
    <path class="cls-73" d="M78.53,87.21c1.46-.05,2.76,.3,3.73,1.48-.25,.25-.5,.5-.75,.75-.93-.82-2.87-.31-2.99-2.23Z"/>
    <path class="cls-138" d="M74.83,88.7c-.19-.86,.35-1.47,.75-2.13,.5-.24,.99-.49,1.49-.73,.01,1.54-.4,2.76-2.24,2.86Z"/>
    <path class="cls-55" d="M78.29,91.93c.29,.19,.94,.38,1.05,.73,.18,.57-.5,.68-.93,.8-.58,.16-.97-.22-1.09-.72-.14-.6,.22-.86,.97-.81Z"/>
    <path class="cls-2" d="M68.83,64.87c.24,0,.48-.01,.71-.01,.66-1.49,1.36-2.88,3.12-1,.55,2.2-1.03,3.22-2.42,4.34-.97,.68-1.58,1.73-2.53,2.44-.43,.3-.9,.52-1.42,.6-1.77-.24-1.7-.94-.48-1.92,.94-1.53,3.07-2.25,3.02-4.45Z"/>
    <path class="cls-8" d="M58.41,70.9c1.48-.03,2.95-.06,4.43-.09,.25,0,.49,0,.74,0,.2,.31,.23,.64,.09,.99-1.84,1.54-3.59,1.08-5.3-.24,0-.22,.02-.44,.05-.66Z"/>
    <path class="cls-170" d="M63.58,71.56c0-.25,0-.5,0-.75,.42-.98,1.17-1.47,2.24-1.49-.36,.8-.58,1.54,.75,1.5-.57,1.95-1.74,1.49-2.99,.74Z"/>
    <path class="cls-103" d="M77.79,79.79c-1.32,1.66-2.4,3.56-4.5,4.43-.61-.02-1.17-.14-1.5-.74-.76-.35-1.52-.69-1.71-1.63,.35-1.38,1.36-.92,2.25-.82,1.32-.53,1.76-2.13,3.16-2.56,.81-.32,1.61-.77,2.49-.17,.27,.53,.22,1.03-.18,1.48Z"/>
    <path class="cls-1" d="M70.3,81.99c.71,.28,1.21,.78,1.49,1.49-1.3,.99-.41,2.51-.92,3.76-1.42,.36-1.75-1.49-2.97-1.5-.2-.25-.4-.49-.59-.74-.18-.18-.26-.37-.24-.58,.02-.22,.05-.33,.09-.33,.99-.79,1.49-2.3,3.15-2.11Z"/>
    <path class="cls-24" d="M64.31,81.27c-.21-.01-.43-.04-.64-.07-.73-.91-1.63-1.71-1.97-2.88-.11-1.16-1.69-1.82-1.11-3.22,2.39-.76,2.86,1.49,4.09,2.57,.63,.81,1.45,1.53,1.36,2.7-.36,.7-1,.87-1.72,.9Z"/>
    <path class="cls-49" d="M64.31,81.27c.32-.61,.88-.75,1.5-.76,.3,.15,.57,.35,.8,.6,.59,.95,1.68,1.79,.73,3.1-.01,.27-.02,.53-.04,.8-1-1.25-2-2.49-2.99-3.74Z"/>
    <path class="cls-286" d="M62.07,78.31c.53,.97,1.07,1.93,1.6,2.9-.28,.01-.56,.03-.84,.04-.41-1.02-1.57-1.64-1.51-2.89,.23-.31,.48-.32,.75-.04Z"/>
    <path class="cls-221" d="M64.33,78.27c-1.62-.52-1.56-3.13-3.73-2.98-.14,.33-.39,.54-.73,.63-.23-.28-.46-.56-.69-.84,.99-1.47-1.15-2.22-.81-3.54,1.74-.08,3.48,.96,5.22,0,1.03-.1,2.2,.35,2.99-.74,.25-.25,.5-.49,.75-.74,.76,.33,1.47,.73,1.87,1.5,.16,.27,.29,.56,.42,.85,.27,1.26,1.69,1.25,2.33,2.1,0,1.42-1.17,1.42-2.09,1.59-.92,.18-1.66,.47-1.88,1.48-.1,.33-.26,.63-.45,.92-1.17,1.29-2.18,.41-3.19-.25Z"/>
    <path class="cls-272" d="M59.87,75.93c.24-.21,.49-.42,.73-.63,.42,1.04,1.64,1.69,1.47,3.02-.25,.01-.5,.03-.75,.04-.19-.1-.4-.17-.61-.2-.28-.74-.56-1.48-.85-2.22Z"/>
    <path class="cls-67" d="M68.81,72.31c0-.25,0-.5,0-.74,.09-.14,.18-.28,.27-.42,.76-.7,1.72-.96,2.7-1.17,.81-.16,1.62-.36,2.46-.28,2.7,.92,5.18,.33,7.57-1.04,2.02-.92,3.96-1.66,6.12-.08,1.14,.83,2.57,.13,3.88-.13,.88-.18,2.24-1.11,2.4,.88,0,1.24,0,2.48,0,3.72-.04,.95-.52,1.47-1.49,1.5-.85-.3-1.59-.83-2.44-1.12-1.18-.48-2.18-1.31-3.36-1.78-2.34-.66-4.62-1.14-6.1,1.56-.28,.44-.56,.89-.85,1.33-.67,.6-.95,1.67-2.06,1.76-.66-.05-1.22-.33-1.73-.74-.21-.23-.38-.5-.49-.79-.16-.42-.29-.86-.47-1.26-.34-.47-.77-.77-1.35-.83-.44,.05-.68,.36-.88,.72-.13,.28-.31,.5-.55,.69-.3,.09-.6,.1-.91,.04-1.16-.23-1.98-.96-2.73-1.82Z"/>
    <path class="cls-135" d="M83.94,76.77c.66-1.23,1.33-2.46,1.99-3.69,.33-.21,.66-.22,1-.04,.68,1.42,1.68,2.76,1.31,4.48-.15,.88,.46,2.21-.67,2.53-1.27,.36-1.47-.9-1.57-1.85-.14-1.32-1.05-1.43-2.06-1.43Z"/>
    <path class="cls-288" d="M88.24,77.53c-1-1.32-1.82-2.71-1.49-4.47-.14-.87,.02-1.65,.74-2.23,1,.74,1.99,1.49,2.99,2.23-.09,.13-.17,.26-.26,.4-.35,.33-.73,.62-1,1.01-.19,.47-.03,.91,.1,1.36,.1,.3,.13,.61,.12,.92-.07,.31-.21,.57-.45,.79h-.37s-.37,0-.37,0Z"/>
    <path class="cls-236" d="M82.26,82.74c1.28,.71,5.12-1.13,2.98,2.98-1.48,.98-2.26-.15-3.12-1.03-.18-.31-.28-.65-.31-1.01,.04-.36,.19-.67,.44-.94Z"/>
    <path class="cls-140" d="M82.27,84.23c1.03,.43,1.68,1.6,2.98,1.49,0,.25,0,.5,0,.74-.75,.25-1.49,.5-2.24,.75-.98-.03-1.47-.53-1.5-1.5-.35-.8,.09-1.2,.76-1.48Z"/>
    <path class="cls-78" d="M90.48,73.06c1.1-.02,2.17,0,2.25,1.5-.04,.82,.12,1.7-.76,2.23-1.15-.34-1.57-1.3-1.92-2.3-.09-.54,.01-1.03,.43-1.42h0Z"/>
    <path class="cls-112" d="M88.99,77.53c0-.25,0-.5,0-.74,.41-.56,.77-1.2,1.65-.86,.45,.72,1.01,1.41,.59,2.35-.26,.56-.6,1.2-1.28,1.03-.82-.21-.91-1.03-.96-1.78Z"/>
    <path class="cls-121" d="M91.23,78.27c-.25-.75-.5-1.49-.75-2.24-.47-.5-.39-.99,.01-1.49,.49,.75,.99,1.49,1.48,2.24-.01,.61-.15,1.17-.75,1.49Z"/>
    <path class="cls-252" d="M83.73,79.71c.04,1.1-.48,1.85-1.46,2.29-.1-.09-.2-.17-.3-.26-.12-.24-.17-.5-.17-.77,.06-.26,.17-.51,.31-.74,.16-.22,.35-.41,.58-.56,.12-.06,.24-.12,.36-.18,.28-.09,.51-.01,.69,.22Z"/>
    <path class="cls-252" d="M82.26,82.74c0,.25-.01,.49-.02,.74-.6,.26-.87-.09-1.09-.56-.04-.33,.02-.64,.17-.94,.28-.21,.57-.24,.87-.05,0,0,.07,.08,.07,.08,0,.25,0,.49,0,.74Z"/>
    <path class="cls-281" d="M83.73,79.71c-.27,0-.54,0-.81,0-.23-.28-.19-.53,.1-.74l-.06,.05c.25-.24,.5-.24,.76-.02,0,.24,0,.47,0,.71Z"/>
    <path class="cls-224" d="M83.73,79c-.25,0-.51,.01-.76,.02,.02-.25,.08-.49,.17-.72,.2,.23,.4,.47,.59,.7Z"/>
    <path class="cls-6" d="M95.67,60.38c-.02-.99-.04-1.98-.06-2.97,.07-.3,.14-.61,.21-.91,.18,.1,.36,.18,.55,.25,0,3.92-.02,7.83-.03,11.75-.25,.76-.5,1.52-.74,2.28-.22-.49-.44-.97-.65-1.46-1.32-2.18,.1-4.45-.21-6.66,.08-.86,.23-1.69,.94-2.29Z"/>
    <path class="cls-238" d="M95.69,62.63c.37,2.3-.52,4.46-.74,6.7-.24,0-.48,0-.73,0-.75-1.04-1.52-.35-2.24,.02-1.13,.58-2.61,1.27-3.49,.57-2.31-1.85-4.61-.96-6.97-.59-1.94,.86-3.22-.42-4.6-1.4-.22-1.76,1.2-2.25,2.31-2.98,1.91-1.01,4.02-1.39,6.04-.88,2.79,.7,5-.14,7.1-1.76,.47-.13,1.25-.27,1.36,.05,.52,1.5,1.3,.33,1.95,.28Z"/>
    <path class="cls-114" d="M53.12,45.5c-4.06-.95-8.11-1.81-11.95,.74-.04,.45-.44,.55-.74,.75h-.02c-.6,.57-1.28,.67-2.03,.36-1.29-1.24-.33-2.25,.41-3.21,.75-.98,1.68-1.81,2.35-2.86,.26-.44,.52-.87,.78-1.31,.17-.3,.37-.57,.6-.83,.51-.49,1.1-.8,1.82-.86,1.52,.19,3.02-.4,4.54-.13,1.02,.23,2.02,.5,2.87,1.14,.66,.61,.38,2.45,2.15,1.62,2.31-.29,4.67,.06,6.95-.56,1.85-.04,2.8,.78,2.6,2.7-.81,2.15-2.76,2.27-4.6,2.61-1.72,.02-3.44,.12-5.16-.07-.19-.03-.37-.06-.56-.1Z"/>
    <path class="cls-254" d="M58.35,44.76c1.64-.07,3.19-.4,4.49-1.49,1.09-.36,2.03-1.21,3.3-1.03,.54,.29,.74,.72,.6,1.31q-2.14,4.54-7.19,3.61c-.6-.11-1.2-.17-1.81-.17-1.55-.15-3.22,.42-4.61-.74,0-.25,0-.5,0-.74,0,0,0,0,0,0,1.64-.97,3.59,.26,5.23-.74Z"/>
    <path class="cls-198" d="M53.12,46.25h5.23c.36,.3,.78,.54,.91,1.04-.05,.15-.11,.3-.16,.45-1.96-.64-4.61,1.49-5.98-1.49Z"/>
    <path class="cls-262" d="M38.17,46.99c.74,0,1.49,0,2.23,0-.48,2.4-2.41,1.16-3.72,1.48,0-.24,0-.49,0-.73,.28-.66,.66-1.15,1.48-.76Z"/>
    <path class="cls-51" d="M40.42,46.99c.25-.25,.49-.5,.74-.75,.56,.1,1.45,.21,1.09,.91-.46,.89-1.2-.05-1.83-.16Z"/>
    <path class="cls-198" d="M62.83,48.48c-1.24,0-2.49,0-3.73,0,0-.25,0-.49,0-.74h0c1.46-.81,2.82-1.17,3.73,.74Z"/>
    <path class="cls-192" d="M62.83,48.48c-1.04-1.24-2.47-.56-3.73-.74-.25-.5-.5-.99-.75-1.49,2.05-.25,3.83,.75,6.1,1.35-.3-1.96,.26-3.52,2.12-4.33,2.97-.68,3.25,2.2,4.71,3.53,.09,.36,.05,.71-.09,1.05-1.48,.83-2.64,2.37-4.62,2.13-1-.5-1.99-.99-2.99-1.49-.25,0-.5,0-.75,0Z"/>
    <path class="cls-132" d="M71.05,47.74c0-.25,0-.5,0-.74-.05-.89-1.69-1.44-.54-2.58,.65-.35,1.33-.34,2.02-.2,1.02,.28,2.07,.43,3.04,.9,.83,.55,1.28,1.29,1.13,2.32-.18,.57-.57,.93-1.16,1.06-.75,0-1.49,0-2.24,0-1.08,.74-1.76,.29-2.24-.75Z"/>
    <path class="cls-116" d="M71.05,47.74c.75,.25,1.49,.5,2.24,.75-1.95,1.8-3.81,3.99-6.72,1.49,1.5-.74,2.4-2.65,4.48-2.23Z"/>
    <path class="cls-146" d="M69.55,61.13c.12-2.27,.03-4.52-.77-6.68,.98,.36,1.72,1.7,3.02,.73,1.05,.88,1.31,2.07,1.34,3.36-.12,1.17-1.03,1.68-1.87,2.26-.25,.22-.53,.39-.82,.54-.33,.09-.63,.02-.89-.21Z"/>
    <path class="cls-161" d="M72.55,58.91c-.25-1.24-.5-2.48-.75-3.72,.32-.6,.88-.73,1.5-.75,1.24-.25,1.6,1.5,2.86,1.25,.29,.26,.43,.57,.45,.96-.48,2.32-1.41,3.82-4.06,2.26Z"/>
    <path class="cls-105" d="M75.54,48.48c.25-.25,.51-.5,.76-.75,1.15-.4,1.57,.38,1.97,1.21,.32,1.3-.37,2.28-1.02,3.28-.18,.28-.4,.52-.63,.75-.28,.19-.58,.27-.92,.25-.49-.17-.8-.5-.91-1.02,.67-1.16,1.99-2.18,.75-3.72Z"/>
    <path class="cls-228" d="M74.79,52.2c.25,.25,.5,.5,.75,.74,.79,.99,.79,1.99,0,2.98-1.82,1.1-1.3-1.28-2.24-1.49,.5-.74,1-1.49,1.49-2.23Z"/>
    <path class="cls-9" d="M38.17,46.99c-.49,.25-.99,.5-1.48,.76-.5,.24-1,.49-1.5,.73-1.37-.95-3.08,.16-4.47-.71-.75-.01-1.5-.02-2.25-.03-.49-1.61-.39-3.14,.57-4.57,.58-.37,1.13-.29,1.66,.09l1.49-.75c1.02-1.11,1.63-2.8,3.63-2.47,.27,.23,.4,.53,.4,.89-.62,1.79-2.38,2.68-3.33,4.2,1.23,1.78,1.9,.54,2.6-.48,1.47-1.68,2.72-3.62,5.11-4.19,.36,0,.7,.06,1.04,.19,.13,.12,.27,.23,.4,.35-.26,2.66-3.67,3.29-3.85,5.99Z"/>
    <path class="cls-259" d="M29.21,43.26c.02,1.53,.14,3.08-.74,4.47-1.57-.38-1.17-2.23-2.25-2.98,.5-.74,.99-1.49,1.49-2.23,.84-.44,1.2,.09,1.5,.74Z"/>
    <path class="cls-271" d="M30.72,47.76c1.5,.19,3.16-.62,4.47,.71-1.49-.23-3.15,.59-4.47-.71Z"/>
    <path class="cls-264" d="M69.55,61.13c.25,0,.5,0,.75,0,.55,.14,1.04-.07,1.53-.27,.27-.05,.54-.04,.81,.02,.53,.21,1.06,.14,1.6,.01,.81,.08,1.26,.77,1.9,1.12,1.3,.56,2.2-.27,3.14-.9,3.15-1.42,6.58-.04,9.79-1,.76,1.49,2.61,1.4,3.65,2.5-1.81,2.66-4.02,3.56-7.26,2.36-1.96-.72-4.16,0-6.19,.61-2.4,.23-4.55-.68-6.73-1.49-1.32-1.04-2.15-.11-3,.74-.14-1.13,.54-2.65-1.38-2.97,0-.26,.02-.51,.03-.77,.45,0,.9,0,1.36,0Z"/>
    <path class="cls-259" d="M35.79,40.28c-1.66,0-2.23,1.76-3.6,2.22,0-.24,.01-.48,.01-.72,.65-1.19,1.47-2.17,2.98-2.24,.3,.02,.61,.04,.91,.06,.1,.31,0,.54-.29,.68Z"/>
    <path class="cls-189" d="M29.21,43.26c-.5-.25-1-.5-1.5-.74,1.41-1.44,2.23-.48,2.99,.73-.5,0-.99,.01-1.49,.02Z"/>
    <path class="cls-141" d="M32.16,44.65c.92-1.5,2.08-2.77,3.59-3.69,2.18-1.67,4.33-3.41,6.88-4.52,.23-.22,.47-.44,.7-.66,.61-.47,1.34-.33,2.03-.41,.54,.15,.93,.48,1.22,.94,.12,.33,.13,.67,.04,1-.6,.95-1.67,1.07-2.59,1.43-.43,.31-.85,.62-1.28,.93-.24,.13-.46,.29-.67,.47-.31,.27-.6,.56-.89,.86-2.36,.39-3.2,2.82-5.11,3.81-1,.93-1.83,2.34-3.54,1.58-.79-.35-.78-1.06-.37-1.76Z"/>
    <path class="cls-201" d="M42.63,36.44c-2.09,1.82-4.15,3.67-6.88,4.52,.11-.22,.12-.45,.05-.68,.1-.23,.19-.45,.29-.68,2.23-.95,3.88-3.09,6.54-3.15Z"/>
    <path class="cls-39" d="M45.64,35.82c-.77-.01-1.54-.03-2.32-.04,.09-.21,.16-.43,.22-.65,1.29,.17,2.22-1.32,3.6-.77,.25,1.25-.68,1.3-1.5,1.45Z"/>
    <path class="cls-47" d="M62.84,32.08c.82,.04,1.69-.1,2.26,.72-.4,.55-.99,.78-1.62,.91-1.67,.21-3.36,.09-5.04,.15-.43,.02-.86,.02-1.29,.01-2.1-.27-4.42,.65-6.26-1.09,0-.23,0-.46,0-.69,3.99-1.19,7.97-1.17,11.96-.01Z"/>
    <path class="cls-130" d="M50.88,29.11c-.15-.65-.99-1.36-.1-1.92,.42-.26,1.28-.26,1.69,0,.89,.56,.05,1.27-.1,1.92-.5,.4-.99,.4-1.49,0Z"/>
    <path class="cls-133" d="M50.88,29.11c.5,0,.99,0,1.49,0,.6,2.5-1.42,1.1-2.24,1.49,0,0,0,0,0,0-.38-.81-.57-1.53,.75-1.49Z"/>
    <path d="M57.61,32.82c.25,0,.5,.02,.74,.03,1.42,.97,3.21-.22,4.63,.77-.27,1.67-1.65,1.49-2.8,1.68-1.69,.11-3.41-.22-5.07,.36-1.24,.38-2.38,1.02-3.6,1.46-.74,.24-1.49,.34-2.26,.36-1,0-1.95-.12-2.72-.84-.29-.27-.59-.54-.88-.81,.5-.48,1-.97,1.5-1.45,1.04,.06,1.97-.26,2.8-.88,2.51-.79,5.18,.34,7.67-.67Z"/>
    <path class="cls-197" d="M57.61,32.82c-2.44,1.54-5.1,.54-7.67,.67,.31-.23,.63-.47,.94-.7,2.24,.01,4.49,.02,6.73,.04Z"/>
    <path class="cls-275" d="M44.97,31.48c-1.63,.67-2.35,1.33-3.53,.82,.61-1.41,1.71-.81,3.53-.82Z"/>
    <path class="cls-111" d="M75.54,62.63c-.5-.5-.99-.99-1.49-1.49-.5,.08-1,.08-1.5,0-.25,0-.5,0-.74,0-.65,.07-1.09-.31-1.5-.74,.75-.5,1.49-1,2.24-1.49,2.54,.62,3.05-1.29,3.73-2.98,.92-.72,1.71-.28,2.49,.27,2.63,4.73,6.3,3.32,10.01,1.69,1.29,.38,2.67-.45,3.94,.27,.28,.71,.78,1.21,1.49,1.49-1.39,2.71-3.29,1.84-5.23,.74-2.9,2.68-6.66-.2-9.71,1.49-1.42-.61-2.64-.24-3.74,.74Z"/>
    <path class="cls-290" d="M88.98,58.16c-1.81,.35-2.71,2.45-4.68,2.48-2.84,.03-4.9-1.12-5.78-3.96,.02-.47,.19-.9,.4-1.31,.37-.68,.48-1.55,1.36-1.86,1.72,.49,2,4.01,4.79,2.25,.35-.08,.66,0,.93,.24-.38,3.34,2.43,.03,2.99,1.43,.17,.17,.22,.33,.17,.5-.06,.17-.11,.25-.17,.25Z"/>
    <path class="cls-100" d="M88.98,60.4c1.74-.29,3.65,.68,5.23-.74,.49,.24,.97,.48,1.46,.72,0,.75,0,1.5,.01,2.26-.99,2.79-1.98-.24-2.97,0-1.57-.21-3.89,.83-3.74-2.23Z"/>
    <path class="cls-17" d="M88.98,58.16c0-.25,0-.5,0-.74,.97-.47,.99-2.24,2.42-1.94,1.41,.29,1.29,1.58,1.32,2.69-1.25,.52-2.49,1.42-3.74,0Z"/>
    <path class="cls-45" d="M88.24,50.71c0,.75,0,1.49,0,2.24-.25,0-.5,0-.75,0-.61,.06-1.21,0-1.8-.21-.29-.12-.55-.3-.78-.52-.48-.68-.8-1.4-.66-2.26,.2-.48,.53-.83,.98-1.08,.49-.18,.97-.19,1.47-.03,.88,.31,1.02,1.24,1.54,1.85Z"/>
    <path class="cls-149" d="M88.24,52.95c1.09,0,2.17-.02,2.24,1.49-2.36,1.91-2.36,.3-2.24-1.49Z"/>
    <path class="cls-32" d="M85.26,52.05c.2,.09,.41,.16,.64,.18,1.07,.82,.82,1.92,.67,3.01-.19,.25-.38,.49-.57,.74-.26,0-.51,0-.77,0-.3,.2-.6,.21-.9,.01-.2-.27-.34-.57-.41-.9-.04-.33-.02-.67,.03-1,.23-.81,.51-1.59,1.3-2.05Z"/>
    <path class="cls-14" d="M86.57,55.25c-1.01-.83-.37-2.02-.67-3.01,.66-.04,1.23,.09,1.59,.71-.02,.88,.1,1.81-.92,2.3Z"/>
    <path class="cls-15" d="M82.26,35.07c.49,.01,.99,.03,1.48,.04,.09,1.48,1.07,2.29,2.25,2.95,.49,1.08,1.65,1.79,1.76,3.52-2.61-1.4-4.95-1.08-6.96,.91-.85-.41-1.38-1.23-2.19-1.68-.99-.84-2.14-1.43-3.21-2.15-.26-.48-.32-.94,.14-1.35,.47-.74,.47-1.49,.01-2.23,1.24-1.15,2.45-.63,3.64,.08,1.04,.7,2.14,3.18,3.07-.09Z"/>
    <path class="cls-234" d="M85.28,49.22l-.69,.72c-.49,.42-.85,.12-1.22-.2-.31-.35-.56-.75-.78-1.16-.28-.52-.53-1.07-.76-1.61-.18-.39-.35-.78-.51-1.18-.09-.27-.1-.55-.04-.84,.1-.1,.21-.19,.32-.29,3.1-2.3,3.55,.39,4.4,2.32,.1,.12,.2,.24,.3,.35,.32,.98-.42,1.38-1.01,1.88Z"/>
    <path class="cls-134" d="M90.47,45.5c-.52,1.61-.42,3.52-2.24,4.47-1.01-1.24-1.09-2.48,0-3.73,.14-2.04,.94-2.13,2.24-.75Z"/>
    <path class="cls-245" d="M79.27,40.3c.99,.4,1.48,1.15,1.52,2.2,.27,.72,.54,1.45,.81,2.17,0,0-.09,.1-.09,.1-.2,.24-.46,.34-.77,.3-.44-.12-.85-.31-1.24-.56-.26-.18-.47-.41-.63-.67-.13-.29-.22-.59-.28-.9-.05-.31-.07-.63-.06-.95,.03-.66,.18-1.27,.74-1.7Z"/>
    <path class="cls-123" d="M85.99,46.99c.04-1.54-.17-3.17,1.56-4.19,.89,1.23-.46,2.33-.06,3.45-.06,.15-.13,.31-.19,.46-.37,.37-.77,.63-1.3,.29h0Z"/>
    <path class="cls-63" d="M88.24,46.24c0,1.24,0,2.48,0,3.73,0,.25,0,.49,0,.74-.71-.28-1.21-.77-1.49-1.48-.89-1.28,.33-2.03,.75-2.98,0,0,0,0,0,0,.25,0,.5,0,.74,0Z"/>
    <path class="cls-12" d="M63.37,32.95c.58-.05,1.15-.1,1.73-.15,.99,.01,1.98,.03,2.97,.04,.54,.97,2.4,.62,2.25,2.26,.21,.35,.18,.67-.1,.96-.32,.18-.67,.28-1.04,.31-1.89-.94-4.26-.72-5.87-2.37-.07-.36-.05-.72,.07-1.07Z"/>
    <path class="cls-21" d="M70.33,35.8c0-.23-.01-.46-.02-.69,1.31-.11,2.58,0,3.73,.71,.27,.72,.77,1.21,1.49,1.49,.02,.42,.03,.85,.05,1.27-.1,.13-.19,.25-.29,.38-1.33-.03-2.37-.84-3.56-1.26-.7-.46-1.3-1-1.4-1.9Z"/>
    <path class="cls-93" d="M79.27,35.82c-1.15-.71-2.42-.83-3.73-.75-.47-.74-.47-1.49,0-2.23,1.57-.31,2.56,.82,3.73,1.49,.45,.5,.4,.99,0,1.49Z"/>
    <path class="cls-157" d="M79.27,35.82c0-.5,0-.99,0-1.49,.62-.02,1.18-.15,1.5-.75,.25,.25,.5,.5,.75,.76,.24,.24,.49,.49,.73,.73,.31,.9,.62,1.81,.95,2.78-1.91,.35-3.61,.49-3.94-2.03Z"/>
    <path class="cls-7" d="M87.49,70.82c-.02,.82,.13,1.7-.74,2.23-.27,0-.55,.02-.82,.02-1.7-.07-3.42-.93-5.1,.13,.62-5.21,4.12-2.48,6.66-2.39Z"/>
    <path class="cls-46" d="M81.51,82.72c.25,.25,.49,.51,.73,.76,0,.25,.02,.5,.03,.74-.25,.49-.51,.99-.76,1.48-1.89,1.13-2.32,.13-2.29-1.55,.16-.23,.32-.46,.47-.7,.56-.36,.94-1.16,1.82-.74Z"/>
    <path class="cls-43" d="M77.79,79.79c0-.51-.02-1.02-.03-1.53-.24-.26-.3-.56-.2-.9,.66-.69,1.17-1.63,2.38-1.35-.06,1.63-.84,2.85-2.16,3.77Z"/>
    <path class="cls-26" d="M79.95,76.02c-.72,.51-1.44,1.01-2.16,1.52-.41-.5-.41-1,0-1.5,.77-.45,1.06-1.6,2.2-1.49-.01,.49-.03,.98-.04,1.48Z"/>
    <path class="cls-136" d="M81.51,82.72c-.61,.25-1.21,.49-1.82,.74-.18-1.5,.36-2.54,1.89-2.96,.08,.1,.17,.2,.25,.29,.04,.38,.09,.77-.18,1.1-.05,.27-.1,.55-.14,.82Z"/>
    <path class="cls-181" d="M83.03,78.97c-.03,.25-.07,.5-.1,.74,0,0,.08-.02,.08-.02-.19,.2-.42,.33-.68,.41-.29,.03-.51-.09-.65-.34,.06-.92,.84-.63,1.35-.79Z"/>
    <path class="cls-253" d="M81.68,79.76c.21,0,.43,.01,.64,.02,.18,.28,.13,.52-.12,.73l.03-.08c-.22,.4-.45,.41-.7,.03,0,0,.05,.05,.05,.05,.03-.25,.07-.49,.1-.74Z"/>
    <path class="cls-27" d="M72.55,64.12c2.53-.78,4.53,.77,6.73,1.49-.75,.74-1.49,1.49-2.24,2.23-.76,.86-1.79,.91-2.82,.97-.82,.03-1.63,.05-2.45-.03-.83-.08-1.63-.25-2.2-.94,1.26-1.03,2.48-2.09,2.99-3.72Z"/>
    <path class="cls-278" d="M69.56,67.84c.75,0,1.5,0,2.24,0,.42,.41,.47,.89,.28,1.42-.98,.92-2.34,1.31-3.27,2.31,0,0,0,0,0,0-.71-.28-1.21-.77-1.49-1.48,.75-.75,1.49-1.5,2.24-2.24Z"/>
    <path class="cls-24" d="M67.32,78.27v-.75c1.84-2.71,3.13-2.6,5.18,.42,.3,1.34,.94,2.69,.05,4.05-.75-.2-1.49-1.18-2.24,0-1.01,.72-1.29,2.38-2.96,2.22,.06-1.27-1.1-1.93-1.51-2.97,.2-.24,.45-.38,.76-.45,.44-.02,.87,0,1.27-.18,.42-.93-.62-1.52-.54-2.35Z"/>
    <path class="cls-90" d="M72.55,81.99c-.25-1.24-.5-2.48-.75-3.72,.59-1.31,1.25-2.54,3.01-2.41,.61,.42,.94,1.03,1.15,1.72,.09,.55-.01,1.04-.43,1.43-1.43,.56-1.26,2.71-2.99,2.98Z"/>
    <path class="cls-79" d="M75.54,79.01c0-.5,0-.99,0-1.49-.67-1.05-.26-1.74,.75-2.23,.62,.01,1.18,.15,1.5,.75,0,.5,0,1,0,1.5-.01,.24-.02,.48-.03,.72-.74,.25-1.49,.5-2.23,.75Z"/>
    <path class="cls-205" d="M67.32,78.27c1.25,1.04,3.62,1.86,.75,3.72-.41-.43-.57-1.33-1.49-.75-.25,0-.49,0-.74,0-.01-.24-.02-.49-.02-.73-.5-.75-.99-1.5-1.49-2.24,1,.02,1.99,.72,2.99,0Z"/>
    <path class="cls-159" d="M74.79,76.03c-1,.75-1.99,1.49-2.99,2.24-1.08-2.7-2.58-2.92-4.48-.75-.79-1.63,.09-2.11,1.53-2.23,1.02-.08,2.17,.31,2.95-.75-.26-.17-.34-.33-.26-.5,.09-.16,.17-.25,.26-.25,.25,0,.5,0,.75,0,1.08-1.05,2.4-.93,3.73-.74,0,.5,0,.99,0,1.49-.46,.53-.72,1.26-1.49,1.49Z"/>
    <path class="cls-131" d="M71.8,73.8c0,.25,0,.5,0,.74-1.6,.06-3.22,.14-2.99-2.24,1.3-.11,1.95,1.07,2.99,1.49Z"/>
    <path class="cls-5" d="M74.04,67.85c1,0,1.99,0,2.99,0,1.81-.46,2.83,1.48,4.48,1.49-2.29,2.26-4.78,2.5-7.47,.74-.64-.74-.59-1.49,0-2.23Z"/>
    <path class="cls-147" d="M74.04,67.85c0,.74,0,1.49,0,2.23-.75,.25-1.49,.5-2.24,.74-.44-.49-.45-.99-.01-1.49,0-.5,0-.99,0-1.49,.75,0,1.49,0,2.24,0Z"/>
    <path class="cls-221" d="M76.28,73.06c-1.15,.71-2.42,.82-3.73,.74,0-.25,0-.49,0-.74,.26-.74,1.07-.92,1.49-1.49,.75,.5,1.49,.99,2.24,1.49Z"/>
    <path class="cls-221" d="M71.79,69.33c0,.5,0,.99,.01,1.49-1,.25-1.99,.5-2.99,.75,.55-1.33,1.22-2.51,2.98-2.23Z"/>
    <path class="cls-231" d="M74.04,71.57c-.02,.97-.52,1.46-1.49,1.49-1.03-2.01,.73-1.26,1.49-1.49Z"/>
    <path class="cls-221" d="M74.79,76.03c.28-.71,.78-1.21,1.49-1.49,0,.25,0,.5,0,.74-.25,.74-.5,1.49-.75,2.23-.6-.32-.73-.88-.74-1.49Z"/>
    <path class="cls-23" d="M90.49,74.55c0,.5,0,.99-.01,1.49-.5,.25-.99,.5-1.49,.75,0-.25,0-.5,0-.75-.54-.75-.63-1.49,0-2.24,.32-.6,.88-.73,1.5-.74,0,.5,0,.99,.01,1.49Z"/>
    <path class="cls-274" d="M88.98,73.8c0,.75,0,1.49,0,2.24-1.16-.75-2.35-1.49,0-2.24Z"/>
    <path class="cls-96" d="M81.52,80.45c.24,.04,.47,.03,.7-.03,0,.5-.02,1-.03,1.5,0,0-.27,0-.27,0,0,0-.27-.04-.27-.04-.04-.48-.09-.96-.13-1.44Z"/>
    <path class="cls-76" d="M82.19,80.51c.04-.24,.08-.49,.12-.73,.23-.02,.46-.05,.69-.09-.27,.27-.54,.55-.82,.82Z"/>
    <path class="cls-36" d="M65.82,42.52c-.96,.4-1.69,1.7-2.99,.74,.16-1.65-.58-2.4-2.24-2.23-2.41,1.02-5.06-.32-7.47,.74-2.77,.77-.99-1.49-1.5-2.23-.04-.77,.21-1.41,.87-1.85,.69-.32,1.37-.3,2.05,.02,1.96,1.59,4.29,.62,6.44,.91,2.18,.59,5.1,.29,4.84,3.89Z"/>
    <path class="cls-191" d="M52.38,38.06c-.02,.61-.15,1.17-.75,1.49-1.14,.11-2.14-.31-3.1-.84-.17-.28-.21-.58-.11-.9,.2-.45,.58-.74,.95-1.04,.75-.1,1.5-.2,2.25-.29,.13,.09,.25,.18,.38,.27,.29,.39,.42,.83,.38,1.32Z"/>
    <path class="cls-254" d="M53.12,41.78c2.36-1.52,4.99-.41,7.47-.74-2.36,1.52-4.99,.4-7.47,.74Z"/>
    <path class="cls-171" d="M48.69,38.02c-.05,.23-.1,.46-.16,.69-1.5-.24-2.99,1.37-4.51,.04,.49-.93,1.2-1.53,2.32-1.51,.83,.12,1.75-.03,2.36,.78Z"/>
    <path class="cls-222" d="M58.35,44.76c-1.57,1.43-3.49,.46-5.23,.74,1.57-1.43,3.49-.45,5.23-.74Z"/>
    <path class="cls-70" d="M42.6,40.32c-.19,.23-.39,.45-.58,.68,0,0-.11-.03-.11-.03-.2-.15-.28-.32-.24-.5,.04-.19,.09-.28,.15-.28,.3-.2,.57-.15,.78,.14Z"/>
    <path class="cls-180" d="M42.6,40.32l-.34-.02h-.34c-.21-.12-.28-.25-.21-.38,.07-.12,.14-.19,.22-.19,.27-.02,.54-.03,.8-.05-.05,.21-.1,.42-.13,.63Z"/>
    <path class="cls-185" d="M65.82,42.52c-.88-2.5-3.02-2.8-5.23-2.98-.26-.37-.22-.71,.1-1.02,.84-.58,1.8-.63,2.77-.57,2.45,.71,4.82,1.59,6.81,3.26,.19,.27,.31,.58,.35,.91-.21,.86-.42,1.73-.31,2.64-.01,.83,1.63,1.11,.74,2.23-1.97-.67-2.32-3.28-4.48-3.73-.25-.25-.5-.5-.75-.74Z"/>
    <path class="cls-86" d="M84.45,55.69c.26,.1,.52,.21,.78,.31-.92,2.52-2.37,1.46-3.54,.37-.74-.69-1.12-1.77-1.67-2.68-.71-.17-1.08-.7-1.37-1.31-.63-.97-.17-2.23-.87-3.18-.5-.49-.99-.98-1.49-1.47-.28-.73-.57-1.46-.85-2.19-.18-.36-.12-.67,.18-.94,4.1,1.16,4.47,5.21,6.35,8.1,.37,1.38,1.24,2.33,2.49,2.98Z"/>
    <path class="cls-219" d="M75.5,45.08c0,.15-.01,.31-.06,.46-1-.15-2.15,.28-2.9-.77-.8-.7-2.09-.91-2.24-2.25,0-.24,0-.49-.01-.73-.21-.2-.28-.4-.22-.61,.06-.21,.12-.31,.19-.32,1.86-.7,3.1,.71,4.58,1.34,.29,.25,.53,.54,.72,.87,.22,.68,.85,1.38-.08,2.02Z"/>
    <path class="cls-101" d="M70.31,42.52c1,.5,1.77,1.23,2.24,2.25-.75,0-1.49,0-2.24,0-1.17-.75-2.35-1.5,0-2.24Z"/>
    <path class="cls-20" d="M70.31,60.4c.62,.01,1.17,.14,1.5,.74-.19,.39-.33,1.05-.59,1.11-.81,.17-.8-.57-.91-1.12,0-.25,0-.49,0-.74Z"/>
    <path class="cls-71" d="M79.27,55.93c-.25,.25-.5,.5-.75,.75-.75-.25-1.49-.5-2.24-.75-.25,0-.5,0-.75,0,0-.99,0-1.99,0-2.98,.25,0,.5,0,.75,0,2.72-.73,2.84,1.14,2.99,2.98Z"/>
    <path class="cls-228" d="M79.27,55.93c-.91-1.08-1.23-2.75-2.99-2.98,0-.25,0-.5,0-.74,.99-.66,1.98-.82,2.98,0,.25,.5,.51,.99,.76,1.49-.03,.82,.13,1.7-.75,2.24Z"/>
    <path class="cls-52" d="M79.26,52.2c-.99,0-1.98,0-2.98,0,.43-1.03,1.61-1.69,1.5-3,.96,.77,1.37,1.81,1.48,3Z"/>
    <path class="cls-201" d="M32.16,44.65c1.13,3.9,2.65-.74,3.91,.18-.06,3.19-2.56,2.58-4.14,2.15-1.97-.55-.13-1.54,.23-2.33Z"/>
    <path class="cls-258" d="M41.93,39.73c.02,.19,.01,.38-.01,.57,0,.22,0,.44,0,.66,0,0-.37,.06-.37,.06,0,0-.37,0-.37,0,.03-.56-.12-1.21,.75-1.28Z"/>
    <path class="cls-263" d="M75.54,62.63c.74-2.78,1.83-3.78,3.74-.74-.98,1.59-2.17,2.1-3.74,.74Z"/>
    <path class="cls-94" d="M72.55,61.14c.5-.76,1-.76,1.5,0-.11,.54-.1,1.28-.91,1.11-.26-.06-.39-.72-.59-1.11Z"/>
    <path class="cls-220" d="M48.69,38.02c-.88,.04-1.78,.12-2.36-.78,.08-.2,.14-.4,.19-.61,.95,.04,1.9,.09,2.84,.13,.02,.55-.07,1.04-.68,1.25Z"/>
    <path class="cls-197" d="M63.37,32.95c.1,.21,.12,.42,.08,.65-.22,.32-.47,.33-.75,.08-1.44-.34-3.1,.51-4.35-.83,1.67,.03,3.34,.07,5.02,.1Z"/>
    <path class="cls-58" d="M62.7,33.68c.25-.03,.5-.06,.75-.08,1.96,.96,4.48,.47,6.07,2.36,.29,.77-.12,1.25-.69,1.66-.31,.12-.63,.18-.96,.18-.82-.09-1.55-.44-2.31-.72-.9-.34-1.86-.47-2.79-.73-.94-.32-1.97-.42-2.79-1.07-.17-.19-.24-.39-.22-.6,.02-.22,.05-.33,.09-.33,.97-.15,2.09,.38,2.86-.66Z"/>
    <path class="cls-282" d="M51.62,36.47c.81-.9,1.88-1.3,3.02-1.56,.34-.14,.67-.12,1,.06,.49,.29,.8,.7,.91,1.26,.02,.57-.12,1.07-.7,1.33-1.39-.29-2.91,.02-4.16-.9l-.06-.19Z"/>
    <path class="cls-197" d="M55.41,35.14c-.26-.08-.51-.15-.77-.23,1.63-1.13,3.47-.37,5.21-.57,0,.18-.01,.35-.03,.53-.11,.17-.22,.34-.34,.51-1.41,.91-2.75,.45-4.07-.23Z"/>
    <path class="cls-150" d="M83.71,49.21c.29,.25,.59,.49,.88,.74,.22,.7,.45,1.4,.67,2.11-.26,.8-.52,1.6-.78,2.39-2.86-.76-2.41-2.77-1.83-4.83,.27-.35,.62-.49,1.06-.41Z"/>
    <path class="cls-213" d="M87.49,46.25c-.25,.99-.5,1.99-.75,2.98-.49,0-.97,0-1.46,0,.24-.74,.47-1.49,.71-2.23,.5-.25,1-.5,1.5-.74Z"/>
    <path class="cls-82" d="M82.87,49.1c.47,1.8-.43,4.01,1.61,5.35-.05,.19-.1,.38-.13,.58-2.25,1.21-1.84-1.56-3-1.99-2.03-2.6-2.52-6.31-5.85-7.95-.24-.61-.48-1.21-.72-1.82,.18-.21,.4-.38,.65-.51,.27-.08,.54-.13,.82-.15,.28-.02,.55-.02,.83-.01,.28,0,.55,.04,.82,.1,.13,.04,.26,.08,.39,.12,.12,.07,.23,.14,.35,.21,.24,.31,.36,.73,.78,.88l-.05,.02c.15,.38,.57,.46,.82,.72,.26,.28,.54,.53,.79,.81,.12,.22,.23,.45,.32,.68,.07,.23,.11,.48,.13,.72,.04,.23,.08,.46,.14,.69,.12,.24,.26,.47,.43,.67,.21,.19,.41,.38,.61,.57,.09,.11,.17,.22,.26,.33Z"/>
    <path class="cls-77" d="M81.35,53.04c1.45,0,1.42,2.2,3,1.99,.06,.21,.09,.43,.1,.66-2.31,.6-2.87-.83-3.1-2.65Z"/>
    <path class="cls-10" d="M79.27,40.3c0,.77-.02,1.53-.02,2.3-.33,.12-.64,.09-.94-.08-.85-1.3-2.82-1.77-2.77-3.74,0,0,.04-.2,.04-.2,1.84-.73,2.4,1.27,3.69,1.72Z"/>
    <path class="cls-162" d="M82.06,46.25c.55,.67,1.13,1.33,.87,2.31-.12,.07-.24,.14-.35,.21-.27-.06-.51-.19-.7-.39-.2-.19-.39-.39-.56-.6-.1-.26-.15-.53-.15-.81,0-.29,.07-.55,.21-.8,.26-.2,.49-.15,.69,.09Z"/>
    <path class="cls-160" d="M82.06,46.25c-.17,0-.35,0-.52-.01-.24,.35-.49,.38-.76,.04-.01-.25-.02-.5-.03-.76,.24-.33,.5-.34,.76-.02,.18,.25,.37,.5,.55,.75Z"/>
    <path class="cls-4" d="M81.51,45.5c-.25,0-.5,.01-.76,.02-.25-.25-.49-.5-.74-.74,.29-.33,.61-.36,.96-.09,.18-.01,.36,.02,.53,.08,0,.24,0,.49,0,.73Z"/>
    <path class="cls-177" d="M83.71,49.21c-.28-.04-.56-.07-.84-.11,0,0,.06,.05,.06,.05-.19-.12-.25-.25-.2-.38,.06-.13,.12-.2,.18-.2,0,0,.02-.02,.02-.02,.47-.03,.75,.16,.78,.65Z"/>
    <path class="cls-193" d="M80.98,44.69c-.32,.03-.64,.06-.96,.09-.21-.29-.42-.57-.63-.86,.72-.13,1.31,.02,1.6,.77Z"/>
    <path class="cls-68" d="M79.43,43.9c-.3-.21-.61-.43-.91-.64,.23-.29,.47-.31,.72-.02,.16,.19,.23,.41,.18,.66Z"/>
    <path class="cls-57" d="M79.24,43.24c-.24,.02-.48,.03-.72,.02,0,0,.01,.02,.01,.02-.09-.13-.19-.25-.28-.38,.1-.12,.19-.25,.29-.37,.24-.02,.47,0,.7,.07,.05,.21,.04,.42,0,.64Z"/>
    <path class="cls-156" d="M68.8,37.26c.24-.44,.48-.87,.72-1.31,.27-.05,.54-.1,.81-.15,.51,.46,1.02,.92,1.53,1.38,.27,.38,.25,.74-.05,1.09-1.33,.65-2.37,.44-3-1.01Z"/>
    <path class="cls-61" d="M71.79,38.01c.02-.28,.05-.56,.07-.84,1.49-.06,2.48,1,3.67,1.61,1.13,1.14,2.86,1.81,3.01,3.74,0,0,0,.09,0,.09-.12,.07-.24,.14-.35,.21-.14-.02-.27-.05-.41-.07-.39-.15-.8-.24-1.21-.26-.43-.02-.86-.06-1.27-.21-.28-.12-.54-.25-.81-.38-.96-.54-1.66-1.37-2.4-2.16-.34-.54-.78-1.06-.29-1.73Z"/>
    <path class="cls-221" d="M66.58,81.24c.14-.51,.09-1.36,.92-1.07,.79,.28,.49,1.17,.57,1.82-.5-.25-.99-.5-1.49-.75Z"/>
    <path class="cls-83" d="M60.59,38.8c0,.25,0,.5,0,.74-1.74,0-3.48-.01-5.21,0-1.28,.01-.99-.74-.76-1.48,1.31-.6,2.67-.99,4.14-.78,.86,.21,1.54,.62,1.84,1.51Z"/>
    <path class="cls-173" d="M59.1,38.04c-1.49,0-2.99,.01-4.48,.02-.75,0-1.5,0-2.24,0-.58-.3-.74-.8-.7-1.4,1.52-.16,3.01-.18,4.43,.52,.9-.64,1.84-.74,2.82-.18,.35,.3,.41,.65,.17,1.05Z"/>
    <path class="cls-95" d="M70.33,40.99c0,.27-.02,.53-.03,.8-2.24-1-4.49-2-6.73-3-.22-.33-.2-.66,.05-.96,1.27-.75,2.47-.21,3.68,.2,1.2,.41,2.36,.89,3.13,1.98,.15,.35,.12,.68-.11,.98Z"/>
    <path class="cls-209" d="M63.57,38.12c0,.22,0,.44,0,.67-.99,0-1.98,0-2.98,0-.5-.25-1-.5-1.49-.75,0-.2,0-.41,0-.61,.12-.3,.32-.55,.59-.73,.74-.44,1.52-.48,2.33-.2,.31,.1,.59,.25,.86,.42,.39,.31,.66,.69,.69,1.2Z"/>
    <path class="cls-57" d="M70.33,40.99c-.05-.19-.09-.39-.12-.59,.23-1.83,1.29-1.36,2.37-.86,1.03,.47,1.72,1.26,2.22,2.25,.24,.34,.2,.66-.11,.94-1.76,.19-2.77-1.5-4.36-1.74Z"/>
    <path class="cls-261" d="M74.69,42.73c.04-.31,.07-.63,.11-.94,.22,0,.45,0,.67-.03,.27,.18,.44,.42,.49,.74-.05,.32-.19,.58-.45,.78-.24,0-.48,0-.71-.01-.13-.16-.16-.34-.1-.54Z"/>
    <path class="cls-99" d="M72.57,39.54c-.85,.11-1.83-.11-2.37,.86-.96-.53-1.93-1.06-2.89-1.59-.45-.81,.11-1.14,.69-1.47,.27-.03,.53-.06,.8-.09,.92,.54,1.88,.93,2.99,.76,.26,.51,.52,1.02,.78,1.53Z"/>
    <path class="cls-110" d="M68.01,37.34c-.23,.49-.46,.98-.69,1.47-1.25-.23-2.5-.46-3.75-.69-.21-.24-.43-.49-.64-.73,.75-1.1,1.91-.73,2.94-.81,.71,.25,1.43,.51,2.14,.76Z"/>
    <path class="cls-33" d="M65.87,36.58c-.73,1.18-1.97,.51-2.94,.81-.24-.07-.48-.14-.72-.21-.71-.87-.62-1.38,.63-1.36,1.01,.26,2.3-.59,3.03,.77Z"/>
    <path class="cls-80" d="M62.83,35.82c-.49,.33-.7,.78-.63,1.36-.76-.09-1.52-.54-2.28,.02-.46-.29-.61-.72-.58-1.24,.09-.32,.26-.59,.51-.81l-.14-.13,.1-.16c.98,.4,2.26-.15,3.02,.96Z"/>
    <path class="cls-267" d="M59.85,35.85c.03,.45,.05,.9,.08,1.35-.28,.08-.55,.15-.83,.23-1-.09-1.99-.17-2.99-.26,.02-.41,.04-.83,.06-1.24,1.21-.78,2.44-.65,3.68-.08Z"/>
    <path class="cls-172" d="M59.85,35.85c-1.23,.03-2.45,.05-3.68,.08-.25-.26-.51-.53-.76-.79,1.48,0,2.96,0,4.45,.01,.05,.23,.05,.47,0,.7Z"/>
    <path class="cls-29" d="M75.49,42.64c-.01-.29-.02-.59-.03-.88,.52,0,1.03,.02,1.55,.03,.18,.19,.3,.42,.36,.67,.03,.27-.08,.49-.3,.65-.23,.06-.46,.09-.7,.08-.33-.13-.57-.4-.89-.55Z"/>
    <path class="cls-216" d="M82.91,48.58c-.11,.19-.1,.39,.02,.57-.54-.11-1.29,.24-1.46-.66,.26-.29,.53-.31,.8-.01,.2,.14,.41,.17,.65,.1Z"/>
    <path class="cls-66" d="M82.26,48.48c-.27,0-.53,0-.8,.01-.41-.1-.67-.31-.55-.78,.23-.33,.46-.33,.69,0,.22,.26,.44,.51,.66,.77Z"/>
    <path class="cls-119" d="M77.77,42.56c.26,.02,.51,.04,.77,.06,0,.22,0,.44,0,.66-.28-.02-.56-.05-.84-.07-.17-.17-.21-.32-.14-.46,.07-.13,.15-.2,.21-.2Z"/>
    <path class="cls-81" d="M77.77,42.56c0,.22-.02,.44-.08,.65,0,0-.32,.02-.32,.02,0,0-.29-.12-.29-.12,0-.26,0-.51,0-.77,.27-.06,.5,0,.71,.18v.03Z"/>
    <path class="cls-77" d="M75.49,42.64c.3,.18,.59,.36,.89,.55-.29,.03-.59,.06-.88,.09,.01-.21,0-.43,0-.64Z"/>
    <path class="cls-164" d="M81.6,47.71l-.35-.02-.35,.02c-.13-.2-.15-.41-.07-.63,.2-.33,.4-.35,.62-.02,.08,.21,.13,.43,.14,.65Z"/>
    <path class="cls-118" d="M81.46,47.06l-.31-.04s-.31,.06-.31,.06c-.02-.27-.04-.53-.06-.8,.25-.01,.5-.02,.76-.04-.03,.27-.05,.54-.08,.81Z"/>
    <path class="cls-169" d="M77.78,42.52c-.25,0-.49-.07-.71-.18,.04-.19,.02-.38-.06-.56,.25,.25,.51,.49,.76,.74Z"/>
  </g>
</svg>