<?xml version="1.0" encoding="utf-8"?>
<!-- Generator: Adobe Illustrator 26.0.3, SVG Export Plug-In . SVG Version: 6.00 Build 0)  -->
<svg version="1.0" id="katman_1" xmlns="http://www.w3.org/2000/svg" xmlns:xlink="http://www.w3.org/1999/xlink" x="0px" y="0px"
	 viewBox="0 0 800 600" style="enable-background:new 0 0 800 600;" xml:space="preserve">
<style type="text/css">
	.st0{fill:#1D1D1B;}
	.st1{fill:#FF9D00;}
</style>
<g id="Layer_2">
	<g id="Layer_1-2">
		<g id="CoinQuoraLogoFinal3">
			<path id="Path_33" class="st0" d="M225.6,338.9c-7,0-13.1-1.3-18.4-4c-5.2-2.6-9.4-6.6-12.3-11.6c-2.9-5.1-4.3-11-4.3-17.8
				s1.4-12.7,4.3-17.8c2.8-5,7.1-9.1,12.3-11.7c5.3-2.7,11.5-4.1,18.4-4.1c4.2,0,8.3,0.4,12.3,1.4c3.6,0.9,6.9,2.3,10,4.3v15.5
				c-2.7-2.2-5.8-3.7-9.2-4.7c-3.8-1-7.8-1.5-11.7-1.5c-6.3,0-11.2,1.6-14.6,4.9s-5.2,7.8-5.2,13.7c0,5.8,1.7,10.4,5.2,13.7
				c3.5,3.3,8.3,5,14.6,5c4,0.1,8-0.5,11.9-1.6c3.5-1.1,6.8-2.7,9.8-5V333C242.9,337,235.2,338.9,225.6,338.9z M285.6,338.9
				c-6.1,0.1-12.2-1.4-17.6-4.2c-5.1-2.7-9.4-6.8-12.4-11.8c-3-5.1-4.5-10.9-4.5-17.4c-0.1-6.1,1.5-12.2,4.5-17.5
				c3-5,7.3-9.1,12.4-11.9c11-5.6,24.1-5.6,35.1,0c5.1,2.7,9.4,6.8,12.4,11.9c3.1,5.3,4.6,11.4,4.5,17.5c0,6.6-1.5,12.4-4.5,17.4
				c-3,5-7.2,9.1-12.4,11.8C297.7,337.6,291.7,339,285.6,338.9L285.6,338.9z M285.6,323.7c3.1,0,6.2-0.7,8.9-2.2
				c2.7-1.5,4.9-3.7,6.4-6.3c1.6-2.9,2.5-6.3,2.4-9.7c0.1-3.4-0.7-6.7-2.3-9.6c-1.5-2.7-3.7-4.9-6.4-6.3c-2.8-1.5-5.9-2.3-9-2.3
				c-3.2,0-6.3,0.7-9.1,2.3c-2.7,1.5-4.9,3.7-6.4,6.3c-1.6,2.9-2.4,6.3-2.3,9.6c-0.1,3.4,0.7,6.7,2.3,9.7c1.5,2.7,3.7,4.9,6.4,6.3
				C279.3,323,282.5,323.7,285.6,323.7L285.6,323.7z M326.4,273.3h16.3v64.3h-16.3L326.4,273.3z M351,273.3h16.1l23.6,38.3v-38.3
				H407v64.3h-16l-23.7-38.4v38.4H351L351,273.3z"/>
			<path id="Path_32" class="st1" d="M451.9,337.6c-7.3,0-13.7-1.3-19.2-3.9c-5.3-2.4-9.7-6.3-12.8-11.2c-3-4.8-4.5-10.5-4.5-17.1
				c-0.1-6.1,1.5-12.2,4.5-17.5c3-5,7.3-9.1,12.4-11.8c11-5.6,24.1-5.6,35.1,0c5.2,2.7,9.4,6.8,12.4,11.8c3.1,5.3,4.6,11.4,4.5,17.5
				c0,3.8-0.9,7.5-2.6,10.9c-1.5,3.3-3.7,6.2-6.5,8.6H486v12.7L451.9,337.6z M449.9,323.7c3.1,0,6.2-0.7,8.9-2.2
				c2.7-1.5,4.9-3.7,6.4-6.3c1.6-2.9,2.5-6.3,2.4-9.7c0.1-3.4-0.7-6.7-2.3-9.6c-1.5-2.7-3.7-4.9-6.4-6.3c-2.8-1.5-5.9-2.3-9-2.3
				c-3.2,0-6.3,0.7-9.1,2.3c-2.7,1.5-4.9,3.7-6.4,6.3c-1.6,2.9-2.4,6.3-2.3,9.6c-0.1,3.4,0.7,6.7,2.3,9.7c1.5,2.7,3.7,4.9,6.4,6.3
				C443.6,322.9,446.7,323.7,449.9,323.7L449.9,323.7z M519.8,338.9c-9.7,0-17-2.6-21.9-7.8c-4.9-5.2-7.4-12-7.4-20.6v-37.3h16.3
				v37.5c0,4.3,1.2,7.5,3.5,9.7c2.3,2.2,5.5,3.3,9.5,3.3c4,0,7.2-1.1,9.5-3.3c2.3-2.2,3.4-5.5,3.4-9.7v-37.5H549v37.3
				c0,8.6-2.4,15.5-7.3,20.6C536.8,336.4,529.5,338.9,519.8,338.9z M589.5,338.9c-6.1,0.1-12.2-1.4-17.6-4.2
				c-5.1-2.7-9.4-6.8-12.4-11.8c-3-5.1-4.5-10.9-4.5-17.4c-0.1-6.1,1.5-12.2,4.5-17.5c3-5,7.3-9.1,12.4-11.9c11-5.6,24.1-5.6,35.1,0
				c5.1,2.7,9.4,6.8,12.4,11.9c3.1,5.3,4.6,11.4,4.5,17.5c0,6.6-1.5,12.4-4.5,17.4c-3,5-7.2,9.1-12.4,11.8
				C601.6,337.6,595.6,339,589.5,338.9L589.5,338.9z M589.5,323.7c3.1,0,6.2-0.7,8.9-2.2c2.7-1.5,4.9-3.7,6.4-6.3
				c1.6-2.9,2.5-6.3,2.4-9.7c0.1-3.4-0.7-6.7-2.3-9.6c-1.5-2.7-3.7-4.9-6.4-6.3c-2.8-1.5-5.9-2.3-9-2.3c-3.2,0-6.3,0.7-9.1,2.3
				c-2.7,1.5-4.9,3.7-6.4,6.3c-1.6,2.9-2.4,6.3-2.3,9.6c-0.1,3.4,0.7,6.7,2.3,9.7c1.5,2.7,3.7,4.9,6.4,6.3
				C583.3,323,586.4,323.7,589.5,323.7L589.5,323.7z M630.4,273.3h28.9c7.5,0,13.4,1.9,17.7,5.7s6.4,9.3,6.4,16.4
				c0,4.8-1,8.9-3.1,12.2c-2.1,3.4-5.2,6-8.8,7.5l11.4,22.4H666l-10.2-20.1h-9.2v20.1h-16.3L630.4,273.3z M656.4,303.7
				c3.3,0,5.8-0.6,7.5-1.9c1.8-1.3,2.7-3.4,2.7-6.5c0-3.2-0.9-5.4-2.6-6.6c-1.7-1.2-4.3-1.8-7.6-1.8h-9.7v16.7L656.4,303.7z
				 M709.6,273.3h16l25.7,64.3h-16.6l-5.2-13.3h-23.7l-5.2,13.3h-16.7L709.6,273.3z M725.4,311.8l-7.8-21.6l-7.9,21.6H725.4z"/>
			<path id="Subtraction_49" class="st1" d="M117.9,364.9c-7.6,0-15.1-1.5-22-4.5c-6.7-2.9-12.8-7-18-12.3
				c-16.3-16.6-21.1-41.3-12.1-62.8c2.8-6.8,7-13,12.1-18.2c21.7-22.1,57.3-22.4,79.4-0.7c0.2,0.2,0.4,0.4,0.7,0.7
				c20.9,21.1,22.2,54.7,3.2,77.5l-17.2,0c20.4-15,24.9-43.6,9.9-64.1c-1.3-1.8-2.7-3.5-4.3-5.1c-17.1-17.5-45.2-17.8-62.7-0.7
				c-0.2,0.2-0.4,0.4-0.7,0.7c-12.9,13.2-16.7,32.8-9.6,49.8c2.2,5.4,5.5,10.3,9.6,14.4c4.1,4.1,8.9,7.5,14.2,9.7
				c5.5,2.4,11.4,3.6,17.4,3.6c0.3,0,0.6,0,0.8,0l0,0h33.6C142.5,360.7,130.4,364.9,117.9,364.9z M117.9,344.7
				c-4.9,0-9.7-1-14.1-2.9c-4.3-1.9-8.3-4.6-11.5-7.9c-3.3-3.4-6-7.4-7.8-11.8c-3.8-9.2-3.8-19.6,0-28.8c1.8-4.4,4.5-8.4,7.8-11.8
				c3.3-3.4,7.2-6.1,11.5-7.9c9-3.9,19.3-3.9,28.3,0c4.3,1.9,8.3,4.6,11.5,7.9c3.3,3.4,6,7.4,7.8,11.8c3.8,9.2,3.8,19.6,0,28.8
				c-1.8,4.4-4.5,8.4-7.8,11.8c-3.3,3.4-7.2,6.1-11.5,7.9C127.6,343.7,122.8,344.7,117.9,344.7z M117.5,279c-3.7,0-7.4,0.8-10.8,2.2
				c-3.3,1.4-6.3,3.5-8.9,6.1c-2.6,2.6-4.6,5.7-6,9.1c-2.9,7.1-2.9,15.1,0,22.2c1.4,3.4,3.4,6.5,6,9.1c2.5,2.6,5.5,4.7,8.8,6.1
				c6.9,3,14.7,3,21.7,0c3.3-1.4,6.3-3.5,8.8-6.1l0,0l0,0l-5.9-5.9l0,0v0c-7.3,7.6-19.4,7.9-27,0.6c-0.2-0.2-0.4-0.4-0.6-0.6
				c-7.6-8-7.6-20.5,0-28.5c7.3-7.6,19.4-7.9,27-0.6c0,0,0,0,0,0c0.2,0.2,0.4,0.4,0.6,0.6l0,0l0,0l5.9-5.9l0,0l0,0
				c-2.5-2.6-5.5-4.7-8.8-6.1C124.9,279.8,121.2,279,117.5,279z"/>
		</g>
	</g>
</g>
</svg>
