<?xml version="1.0" encoding="UTF-8"?>
<svg id="Capa_2" data-name="Capa 2" xmlns="http://www.w3.org/2000/svg" viewBox="0 0 297 128.25">
  <defs>
    <style>
      .cls-1 {
        fill: #efefee;
      }

      .cls-2 {
        fill: #fed31d;
      }

      .cls-3 {
        fill: #785625;
      }

      .cls-4 {
        fill: #75502d;
      }

      .cls-5 {
        fill: #fcc518;
      }

      .cls-6 {
        fill: #fbbc01;
      }

      .cls-7 {
        fill: #fdfcfc;
      }

      .cls-8 {
        fill: #775425;
      }

      .cls-9 {
        fill: #878684;
      }

      .cls-10 {
        fill: #2a2521;
      }

      .cls-11 {
        fill: #3e3b3c;
      }

      .cls-12 {
        fill: #3d3b3a;
      }

      .cls-13 {
        fill: #292827;
      }

      .cls-14 {
        fill: #b48863;
      }

      .cls-15 {
        fill: #c9ac92;
      }

      .cls-16 {
        fill: #f9d01a;
      }

      .cls-17 {
        fill: #765426;
      }

      .cls-18 {
        fill: #fdbc00;
      }

      .cls-19 {
        fill: #464339;
      }

      .cls-20 {
        fill: #fac019;
      }

      .cls-21 {
        fill: #755326;
      }

      .cls-22 {
        fill: #3e3c3a;
      }

      .cls-23 {
        fill: #ad7c47;
      }

      .cls-24 {
        fill: #a38b76;
      }

      .cls-25 {
        fill: #f9c007;
      }

      .cls-26 {
        fill: #fdc103;
      }

      .cls-27 {
        fill: #fcc212;
      }

      .cls-28 {
        fill: #3e3c3c;
      }

      .cls-29 {
        fill: #f8bb02;
      }

      .cls-30 {
        fill: #413d3a;
      }

      .cls-31 {
        fill: #2a2927;
      }

      .cls-32 {
        fill: #fdc102;
      }

      .cls-33 {
        fill: #f7ca16;
      }

      .cls-34 {
        fill: #daa417;
      }

      .cls-35 {
        fill: none;
      }

      .cls-36 {
        fill: #e0ac0a;
      }

      .cls-37 {
        fill: #775525;
      }

      .cls-38 {
        fill: #3f3d3a;
      }

      .cls-39 {
        fill: #8b6737;
      }

      .cls-40 {
        fill: #f8b902;
      }

      .cls-41 {
        fill: #3c3a3b;
      }

      .cls-42 {
        fill: #b48862;
      }

      .cls-43 {
        fill: #8a6637;
      }

      .cls-44 {
        fill: #fabb03;
      }

      .cls-45 {
        fill: #785732;
      }

      .cls-46 {
        fill: #2f241b;
      }

      .cls-47 {
        fill: #6f6d6a;
      }

      .cls-48 {
        fill: #75532a;
      }

      .cls-49 {
        fill: #78522e;
      }
    </style>
  </defs>
  <g id="Capa_1-2" data-name="Capa 1">
    <path class="cls-35" d="M148.5,128.18c-48.48,0-96.96-.03-145.44,.07C.5,128.26,0,127.75,0,125.2,.1,84.48,.1,43.77,0,3.05,0,.5,.5,0,3.06,0,100.02,.08,196.98,.08,293.94,0c2.56,0,3.07,.5,3.06,3.05-.1,40.72-.1,81.43,0,122.15,0,2.55-.5,3.06-3.06,3.05-48.48-.1-96.96-.07-145.44-.07Z"/>
    <path class="cls-18" d="M281.33,54.61c-2.93,12.16-5.89,24.3-8.76,36.47-.39,1.67-1.22,2.29-2.84,2.09-.37-.04-.75,0-1.12,0-65.83,0-131.67,0-197.5,0-.73,0-1.47,0-2.57,0,.41-1.4,1.48-1.77,2.29-2.37,4.38-1.89,9.14-2.17,13.74-3.08,9.84-1.95,19.72-3.72,29.6-5.49,1.1-.2,2.19-.42,3.31-.18,1.18,.28,1.71,1.26,2.38,2.14,2.97,3.97,7.42,3.5,9.51-.99,.46-.99,.65-2.11,1.32-3.02,.72-.74,1.53-1.1,2.54-.62,1.67,1.95,.25,4.63,1.56,6.91,1.48-.85,1.09-2.2,1.18-3.3,.16-2.09,.88-3.33,3.28-2.64,3.24,.93,4.55-1.89,6.53-3.4,.69-.34,1.41-.4,2.15-.25,.91,.22,1.42,.91,1.91,1.63,1.2,1.77,2.83,2.81,5.01,2.29,2.14-.51,3.22-2.1,3.56-4.22,.12-.73,.23-1.45,.61-2.11,.75-.78,1.35-1.87,2.74-1.42,.7,.8,.66,1.83,.83,2.79,.59,3.28,2.75,5.15,5.8,5.06,3-.09,5.34-2.57,5.64-5.85,.12-1.3-.65-2.73,.54-3.88,.95-.46,1.87-.43,2.77,.12,1.09,1.22,.85,2.74,.96,4.19,.1,1.31-.3,2.71,.67,3.91,1.29-.39,.99-1.56,1.18-2.42,.34-1.51,1.21-2.51,2.73-2.55,4.37-.1,6.73-2.42,7.6-6.52,1.53-.9,2.99-.33,4.44,.23,1.28,1.44-.14,2.52-.58,3.67-1.48,3.85-.49,7.22,2.63,8.57,3.04,1.32,6.2,.25,7.65-2.59,1.6-3.12,.47-6.48-2.86-8.56-.81-.51-1.94-.63-2.2-1.81,2.68-2.31,6.09-2.04,9.26-2.62,1.53,2.38,.68,5.04,.88,7.57,.1,1.23,0,2.47,.06,3.7,.14,2.65,1.17,4.58,4.16,4.66,2.63,.07,3.77-1.45,3.92-5-.21-.17-.43-.15-.56,.12-.84,1.77-1.47,4.09-4.1,3.27-2.45-.77-2.48-3.11-2.48-5.27,0-2.26,.79-3.83,3.34-4.01,.84-.06,1.73,.07,2.82-.59-1.62-.67-3.33-.18-4.61-1-1.55-1-1.62-2.34-.51-3.78,6.81-2.09,13.87-2.95,20.84-4.21,14.09-2.54,28.06-5.75,42.3-7.5,1.75-.21,3.48-.2,5.21-.18,1.36,.01,1.71,.78,1.24,1.99Z"/>
    <path class="cls-2" d="M195.4,68.68c-1.49-.21-3.1,.25-4.42-.81-2.77-2-5.46-3.97-9.28-3.53-2.21,.26-3.42,.83-3.41,3.23,0,1.4,.28,2.99-1.18,4l-2.55,.02c-.82,.01-1.32-.57-1.93-.98-4.09-2.79-6.77-2.42-9.86,1.34-.39,.48-.73,.99-1.38,1.15-.59,.53-.81,1.54-1.88,1.47-2.19-.33-2.13,1.64-2.86,2.79-.68,1.08-1.36,2.2-2.84,1.98-1.53-.22-2.27-1.38-2.68-2.77-1.22-4.15,.11-5.83,6.33-7.42-2.94-.36-5.58-.16-7.18-2.75-1.58,1.48-.96,3.17-1.12,4.67-.24,2.16,.6,4.47-.95,6.44-.73,0-1.47,0-2.2,.01-1.46-1.18-.95-2.95-1.33-4.45-.89-3.53-7-5.73-9.72-3.41-1.05,.89-.61,2.29-.76,3.49-.27,2.23,.8,4.71-1.21,6.62-.7,.25-1.41,.49-2.11,.74-1.38-1.58-.81-3.51-.95-5.31-.15-1.78,.34-3.66-.86-5.71-1.27,1.99-.69,3.87-.89,5.6-.26,2.24-.88,4.4-3.52,4.43-2.62,.03-3.35-2.07-3.64-4.33-.22-1.74,.33-3.62-.96-5.82-1.48,4.4-.8,7.93,1.3,11.3,.16,.37,.19,.74,.12,1.13-.78,1.17-1.89,1.28-3.13,.99-8.94,1.57-17.86,3.25-26.83,4.69-6.89,1.11-13.62,3.26-20.68,3.33,3.32-3.61,5.04-7.9,5.45-12.75,.07-.77-.16-1.5,1.21-1.81,4.44-1,5.63-4.5,2.31-7.6-2.8-2.61-3.14-4.58-.68-7.49,1.31-1.55,.81-3.54-.5-5.14-.85-1.03-1.73-2.04-2.61-3.07,1.08-1.21,2.26-.71,3.28-.71,66.52-.03,133.04-.03,199.57,0,1.34,0,4.23-1.06,2.48,2.37-1.12-2.94-3.63-1.76-5.39-1.43-20.49,3.77-40.95,7.72-61.42,11.59-.84,.16-1.73,.05-2.6,.07-1.11,.86-2.23,.86-3.35,.02-2.36,2.76-6.14,1.16-8.84,2.87-1.22,1.3-2.64,1.7-4.32,.96Z"/>
    <path class="cls-23" d="M74.81,72.27c-1.61,2.84,.32,6.22-1.4,9.04-.64-1.56-1.02-.8-1.65,.09-5.23,7.37-20.89,9.57-26.85,5.97,.72-4.09,2.8-7.96,2.01-12.3-.94-7.43-4.88-12.5-11.99-15.04-.92-.33-1.98-.32-2.7-1.11-.17-.33-.2-.67-.1-1.03,.87-1.49,.7-3.11,.57-4.71-.11-1.38-.14-2.73,.77-3.9,1.1-.67,1.91,.11,2.67,.66,2.27,1.64,4.34,1.57,6.27-.51,.88-.72,1.99-1,2.98-1.51,4.08-2.11,5.29-5.78,3.34-9.92-.46-.97-1.34-1.85-.86-3.09,1.54-1.33,3.74-1.31,5.31-2.57,.89-.71,1.78-1.46,1.56-2.74-.21-1.25-1.25-1.72-2.3-2.19-1.51-.68-3.59,.26-4.68-1.63,1.42-2.17,3.6-2.08,5.8-1.94,2.6,.84,4.57,2.81,7.09,3.84,2.86,1.17,5.83,1.76,8.84,2.31,3,7.41,5.06,14.98,4.28,23.09-.07,.71,.6,1.48,.93,2.23-.54,1.82,.65,4.56-2.58,4.97-2.16,.28-4.11-1.71-4.78-4.81-1.2-5.55-1.67-5.86-7.2-4.15-1.2,.37-2.12,.1-3.2-.31-4.09-1.58-5.61-.7-6.49,3.66-.25,1.21-.35,2.44-1.11,3.5-2.03,2.82-4.49,2.74-7.01-.26-.23,2.77,1.09,4.06,4.12,3.58,4.06-.64,7.63-2.49,10.08-5.81,1.75-2.38,3.03-2.52,4.79-.19,2.5,3.3,5.82,5.32,9.94,6.06,.96,.17,1.97,.41,2.58,1.34,.75,3.08,1.81,6.14,.97,9.38Z"/>
    <path class="cls-39" d="M44.92,87.18c6.15,1.06,12.28,1.44,18.26-.91,4.12-1.62,7.64-3.99,9.97-8.94,.12,1.93,.19,2.96,.26,3.98-.33,3.38-2.01,6.18-4.66,8.04-2.58,1.8-3.33,3.92-3.02,6.83,.23,2.18,.17,4.4,.23,6.6-.14,.15-.27,.3-.41,.46-1.51,.56-3.01,1.33-4.56,.12-.8-1.49-.65-3.13-.61-4.72,.05-2.16-.53-3.31-3.03-2.67-3.16,.81-6.45,.73-9.63,.36-3.2-.36-4.34,.72-4.03,3.78,.09,.85-.11,1.73-.52,2.52-.89,1.15-2.1,1.12-3.36,.89-.41-.13-.74-.37-.99-.72,.02-2.44-.13-4.9,.1-7.33,.18-1.97-.6-3.26-2.06-4.33,2.54-1.63,5.11-3.19,8.07-3.96Z"/>
    <path class="cls-9" d="M65.95,102.78c2.64,1.96,5.9,1.66,8.85,2.49,1.48,.42,3.88,.39,3.95,2.18,.07,1.87-2.26,1.91-3.75,2.21-10.68,2.18-21.48,2.43-32.32,1.74-4.96-.32-9.95-.61-14.76-1.98-1.1-.31-2.78-.46-2.7-2,.07-1.21,1.52-1.51,2.61-1.74,2.43-.51,4.86-1.06,7.32-1.35,1.44-.17,2.65-.55,3.67-1.55,.14,.02,.26,.08,.38,.16,1.8,1.45-.54,2.57-.34,3.87,.56,.45,1.19,.29,1.79,.31,2.34,.06,4.95,.47,4.19-3.37-.1-.5,.61-.68,1.05-.91,4.63-.59,9.25-.63,13.86,0,.22,.09,.61,.21,.61,.35-.03,4.97,3.35,4.07,6.45,3.74-.29-1.4-1.91-2.37-1.25-4.03,.12-.08,.25-.13,.39-.15Z"/>
    <path class="cls-46" d="M73.34,62.65c-6.42-.46-9.75-2.4-14.53-8.54-2.41,4.42-6.31,6.8-10.96,8.17-2.32,.68-4.42,.27-6.32-1.18-.98-.75-1.4-1.77-.99-2.95,.4-1.15,1.41-1.74,2.54-1.94,.65-.11,1.61-.04,1.23,1.1-1.31,3.92,1.67,2.3,2.81,1.88,1.74-.64,2.21-2.4,2.42-4.26,.68-5.85,3.36-7.21,8.43-4.29,.8,.46,1.11,.38,1.85-.02,5.24-2.84,7.58-1.6,8.36,4.35,.18,1.39,.58,2.66,1.56,3.68,.84,.88,1.93,1.26,3.05,.84,1.27-.48,1-1.24,.44-2.33-.38-.75,.63-1.47,1.45-1.84,3.82,3.45,3.85,3.73,.7,6.57-.39,1.05-1,1.51-2.05,.76Z"/>
    <path class="cls-43" d="M53.87,24.67c-2.13-.11-4.19,.06-5.95,1.46-1.68,1.97-4.44,2.13-6.34,3.78-1.35,1.17-2.77,2.17-2.47,4.24-2.36,1.6-3.86,4.14-6.29,5.66-1.49,.93-1.21,2.14-.83,3.57,1.3,4.8,1.37,9.66,.35,14.53l-.12,.34c-1.02,.97-2.26,1.07-3.57,.92-1.09-.88-1.7-2.11-2.45-3.25-.15-9.41,1.83-18.16,7.76-25.76,4.31-5.53,9.89-8.91,16.83-10.05,1.5,1.2,3.3,2.21,3.08,4.56Z"/>
    <path class="cls-32" d="M44.92,87.18c-2.33,2.06-4.86,3.7-8.08,3.96-2.65-.06-5.31-.08-7.6-1.71-.71-1.24-.13-1.7,1.07-1.79,4.76,2.07,6.97,1.94,11.58-.79-3.53,2.52-7.18,2.56-10.98,1.24-.78-2.28,1.41-2.91,2.36-4.24,1.42-2.44,4.6-2.77,6.14-5.07,1.77-1.3,3.19-3.04,5.07-4.17,1.03-.62,2.22-1.93,3.38-.07,.53,4.56,.08,8.9-2.94,12.64Z"/>
    <path class="cls-5" d="M33.73,84.23c-.99,1.24-1.98,2.47-2.98,3.71l-.03,.04c-.95,.02-1.45,.49-1.48,1.45-6.05-2.83-9.33-7.67-10.37-14.14,1.87-1.57,3.46-3.52,5.99-4.15,2.17,.66,3.77,2.07,5.12,3.82,.47,.87,.9,1.87,.39,2.76-1.7,2.97,.23,3.84,2.52,4.28,1.79,.35,1.53,1.13,.84,2.23Z"/>
    <path class="cls-48" d="M29.3,75.17c-1.46-1.22-2.92-2.45-4.38-3.67-2.24-3.69-1.71-7.48-.39-11.3,.1-1.6-.19-3.35,1.66-4.28,2.03,.09,2.32,1.51,2.37,3.1,2.58,2.26,1.41,5.29,1.68,8.02-.31,2.43,1.68,3.91,2.45,5.9,.12,.36,.18,.73,.18,1.11-.54,2.44-1.72,2.86-3.57,1.12Z"/>
    <path class="cls-28" d="M55.44,17.95c2.74-2.02,5.46-5.27,8.33-.12,.13,.24,.64,.3,.98,.4q5.32,1.64,4.75,6.89c-.19,.51-.58,.86-1.11,.81-5.16-.49-9.44-2.72-12.85-6.59-.34-.38-.32-.91-.1-1.4Z"/>
    <path class="cls-11" d="M53.87,24.67c-.81-1.66-2.87-2.49-3.08-4.56,.3-.5,.59-1.01,.89-1.51,1.14-.53,2.38-.39,3.12,.44,3.98,4.46,9.32,6.29,14.82,7.84,.42,1.06,1.16,2.13-.13,3.13-5.14,1.48-9.05-1.52-13.21-3.6-.87-.44-1.61-1.15-2.41-1.73Z"/>
    <path class="cls-26" d="M24.54,60.2c.13,3.77,.26,7.53,.39,11.3-2.13,1.08-3.34,3.63-6.06,3.79-.85-6.05-.03-11.48,5.67-15.09Z"/>
    <path class="cls-1" d="M69.62,26.88c-6,.27-10.62-2.61-14.66-6.6-.98-.96-1.64-2.16-3.28-1.68,1.08-1.2,2.5-.47,3.76-.64,3.68,4.34,8.25,6.96,14.05,7.18,.04,.58,.08,1.16,.12,1.75Z"/>
    <path class="cls-45" d="M73.34,62.65c.68-.25,1.37-.51,2.05-.76,.12,2.95-.8,6.13,2.76,8.08,1.19,.65,2.09,2.69,.69,3.83-1.65,1.33-2.7-.9-4.04-1.52-1.06-3.12-1.13-6.39-1.47-9.62Z"/>
    <path class="cls-22" d="M118.33,82.78c.84-.71,1.9-.53,2.87-.7,1.47,.12,2.55,2.7,4.7,.44-1.76-.28-3.58,.33-4.7-1.17-2.27-2.01-3.97-9.88-2.68-12.33,.51-.97,1.38-.9,2.24-.87,.95,.03,1.26,.65,1.27,1.48,.02,2.1,.03,4.2,.03,6.3,0,1.54,.51,2.78,2.23,2.82,1.79,.05,2.71-1.06,2.78-2.8,.06-1.85,.02-3.71,.02-5.56,0-1.14-.08-2.26,1.62-2.29,1.77-.03,1.99,1,2,2.39,.02,3.33,.1,6.66,.16,10-.31,2.58-.56,5.15-3.24,6.61-3.97,2.16-7.71,.44-9.3-4.33Z"/>
    <path class="cls-12" d="M132.98,79.76c.05-2.95,.08-5.9,.15-8.84,.02-.83-.34-2.25,.43-2.37,2.68-.4,5.43-.67,8.11-.46,2.11,.17,3.51,1.91,3.95,3.94,.38,1.77,.27,3.65,.37,5.49-2.5,4.65-3.84,5.17-8.95,3.44-.71,1.64-.28,3.36-.33,5.04-.04,1.4-.55,1.97-1.99,1.94-1.41-.02-1.59-.8-1.6-1.9-.02-2.09-.09-4.18-.14-6.27Z"/>
    <path class="cls-37" d="M177.1,71.56c.05-.49,0-1.01,.17-1.46,.79-2.16-1.88-5.64,1.71-6.55,6.15-1.56,9.81,.03,11.99,4.3-.24,5.55-1.56,7.12-6.97,7.21-2.62,.05-3.12,1.08-2.98,3.3,.08,1.36,.51,3.15-1.95,3.05-2.45-.1-1.72-1.92-1.8-3.24-.12-2.2-.12-4.41-.17-6.62Z"/>
    <path class="cls-3" d="M235.82,71.6c0-1.74-.01-3.47,0-5.21,0-.8,.29-1.49,1.2-1.61,.73-.1,1.94-.25,2.01,.45,.39,3.66,3.09,2.68,5.27,2.81,1.04,.07,2.51-.32,2.48,1.41-.03,1.75-1.53,1.25-2.54,1.31-4.65,.26-5.79,1.67-4.74,5.92,.26,1.06,.78,1.94,1.88,2.04,1.34,.12,2.02-.84,2.24-2.03,.16-.85,.08-1.73,.17-2.59,.1-.94,.8-1.15,1.61-1.12,.66,.02,1.11,.25,1.41,.94,1.17,2.72-.6,6.88-3.37,7.78-3.27,1.07-6.56-.53-7.25-3.8-.43-2.04-.38-4.18-.54-6.27,.06,0,.11,0,.17-.01Z"/>
    <path class="cls-37" d="M233.42,75.96c0,1.24,0,2.48,0,3.72,0,.98-.4,1.92-1.46,1.68-2.3-.52-4.37,.7-6.59,.57-2.11-.12-3.58-1.06-3.91-3.25-.32-2.1,.54-3.66,2.58-4.39,1.16-.41,2.41-.57,3.59-.92,.88-.26,2.27-.29,1.79-1.75-.39-1.2-1.6-.89-2.57-.81-.24,.02-.52,.1-.69,.25-1.02,.97-2.06,1.85-3.59,1.11-.56-.27-.5-.84-.36-1.3,.51-1.78,1.96-2.51,3.58-2.89,5.34-1.26,7.64,1.17,7.62,7.98Z"/>
    <path class="cls-38" d="M148.19,77.5c.04-3.33,.04-6.65,.13-9.98,.03-1.12-.51-2.61,1.42-2.87,1.59-.21,1.97,.51,2.27,2.03,.5,2.52,2.79,1.03,4.26,1.43,1.06,.28,2.87-.7,2.97,1.19,.12,2.33-1.92,1.36-3.04,1.41-4.64,.18-4.76,.29-4.29,5.19,.14,1.47,.47,2.84,2.24,2.78,1.61-.05,1.68-1.52,1.93-2.72,.21-1.01-.53-2.43,.82-2.95,1.3-.5,2.47-.19,2.59,1.55-.31,2.02,.11,4.19-1.63,5.87-3.06,2.96-7.47,1.66-9.67-2.93Z"/>
    <path class="cls-12" d="M161.38,73.09c2.88-6.59,8.82-7.27,13.17-1.5,1.43,6.74-1.69,11.06-7.41,10.28-4.06-.56-5.69-3.04-5.76-8.77Z"/>
    <path class="cls-8" d="M262.63,74.82c.01,4.35-2.65,7.12-6.82,7.1-3.95-.01-6.69-2.77-6.77-6.83-.08-4.35,2.54-7.18,6.7-7.24,4.3-.06,6.87,2.55,6.89,6.97Z"/>
    <path class="cls-17" d="M195.4,68.68c1.44-.32,2.88-.64,4.32-.96,3.27,.39,5.59,1.93,6.37,5.27,.67,2.85,.12,5.44-2.16,7.4-2.32,1.99-5.01,2.01-7.68,.83-4.48-1.99-4.84-7.79-.85-12.54Z"/>
    <path class="cls-21" d="M208.56,64.85c1.12,0,2.23-.01,3.35-.02-.42,2.36,.42,3.56,2.97,3.22,.61-.08,1.24-.05,1.86,0,1.05,.08,2.48-.27,2.42,1.46-.04,1.47-1.3,1.16-2.24,1.24-.25,.02-.5,0-.74,0-4.24,.11-5.38,1.71-4.25,5.98,.27,1.04,.77,1.92,1.9,1.99,1.33,.07,2.02-.83,2.22-2.04,.14-.85,.07-1.73,.15-2.59,.09-.95,.78-1.15,1.6-1.12,.65,.03,1.3,.2,1.37,.95,.2,2.21,.56,4.51-1.14,6.36-1.71,1.87-3.92,2.04-6.17,1.32-2.3-.74-3.24-2.53-3.25-4.87-.01-3.96-.03-7.92-.04-11.87Z"/>
    <path class="cls-41" d="M90.98,73.31c.15-7.93,5.17-11.98,11.2-9.97,1.73,.58,3.12,1.6,3.94,3.2,.4,.78,1.48,1.88,.39,2.57-.95,.6-2.51,.81-3.38-.4-2.09-2.9-4.48-3.63-7.08-.88-2.04,2.16-1.65,8.37,.52,10.03,2.25,1.71,4.57,1.52,6.03-1,.99-1.72,2.57-2.08,3.67-1.3,1.44,1.01-.08,2.4-.72,3.4-1.82,2.88-4.69,3.49-7.84,3.07-3.14-.43-5.2-2.32-6.16-5.25-.46-1.39-.49-2.91-.57-3.46Z"/>
    <path class="cls-19" d="M108.71,74.55c0-1.11,.05-2.23-.01-3.33-.14-2.51,.52-4.05,3.35-2.63,1.11,.56,1.52-.5,2.31-.58,.94-.1,2.12-.6,2.25,.96,.08,.9,.48,2.27-.94,2.41-3.68,.37-3.31,3.01-3.31,5.49,0,.99-.04,1.98,0,2.96,.04,1.27-.61,1.72-1.82,1.71-1.25-.01-1.81-.6-1.81-1.8,0-1.73,0-3.46,0-5.19,0,0-.01,0-.02,0Z"/>
    <path class="cls-36" d="M121.2,81.35c1.97,.62,3.84,.12,5.68-.73,.55,2.07,0,3.56-1.8,4.12-2.2,.69-2.99-1.17-3.88-2.66-.01-.24-.01-.49,0-.73Z"/>
    <path class="cls-27" d="M29.3,67.82c-.25-2.94-.49-5.87-.74-8.81,1.07-.99,2.36-.89,3.66-.77,8.86,1.95,14.12,7.35,15.64,16.29-2.21-.8-3.22,1.11-4.6,2.09-1.16,.82-1.83,2.34-3.51,2.4-1.16-1.05-1.56-2.53-1.88-3.92-1.59-6.91-2.54-7.47-8.57-7.3Z"/>
    <path class="cls-30" d="M32.34,57.9c-.52-5.32,.9-10.88-2.12-15.88-.42-.69-.21-1.74,.46-1.99,3.45-1.28,4.76-5.26,8.29-6.39,3.83-1.89,6.54-1.44,8.87,1.49,5.22,6.89,3.57,11.67-5.13,14.83-3.48,1.49-5.66-.99-8.14-2.64-.47,.54-.47,1.35-.95,1.91,.03,2.25,.06,4.5,.07,6.76,0,.92,.24,2.07-1.34,1.91Z"/>
    <path class="cls-14" d="M47.83,35.13c-2.72-1.92-5.75-1.95-8.87-1.49-2.04-.36-1.26-1.3-.42-2.19,2.57-2.75,5.66-4.59,9.38-5.33,1.82,.16,3.67-.31,5.45,.5,3.26,1.49,3.69,3.94,.93,6.16-1.86,1.5-4.11,2.11-6.46,2.35Z"/>
    <path class="cls-42" d="M33.61,49.24c-.08-1.38-.16-2.75-.31-5.26,2.59,4.16,5.6,5.81,9.4,5.99-1.67,3-4,2.67-6.48,1.2-.93-.55-1.74-1.28-2.61-1.93Z"/>
    <path class="cls-10" d="M66.89,44.11c-1.26-.12-2.37-.63-2.39-2.14-.01-1.22,.95-2.48,1.95-2.1,1.15,.44,2.33,1.73,2.72,2.91,.28,.84-1.17,1.3-2.28,1.33Z"/>
    <path class="cls-4" d="M68.96,73.76c-.79-.01-1.5-.23-1.42-1.18,.08-.96,.9-1,1.62-1,.68,0,1.65-.13,1.63,.87-.03,1.01-.92,1.27-1.82,1.3Z"/>
    <path class="cls-49" d="M60.53,67.54c-.1,.71-.53,1.01-1.23,.95-.66-.05-1.23-.41-1.18-1.05,.04-.62,.61-.97,1.28-.98,.72,0,1.07,.39,1.13,1.08Z"/>
    <path class="cls-7" d="M60.7,103.71c-5.28-.25-10.57-.45-15.85,.06-1.08,.44-1.75,.11-1.99-1.03,.09-2.46-.74-5.67,.51-7.17,1.28-1.54,4.51,.28,6.92,.07,1.85-.16,3.73-.13,5.56-.4,1.7-.25,3.37-.78,5.32-1.25,.56,3.2,.3,6.34,.17,9.46-.13,.3-.35,.38-.64,.25Z"/>
    <path class="cls-31" d="M42.86,102.74l1.99,1.03q2.24,4.26-2.67,4.28c-.37,0-.76,.07-1.11,0-1.26-.25-3.02,.81-3.71-.6-.57-1.15,.9-2.11,1.62-3.09,.25-.34,.15-.92,.21-1.39,1.23-.07,2.45-.15,3.68-.22Z"/>
    <path class="cls-13" d="M60.7,103.71c.22-.08,.43-.16,.64-.25,1.34-.66,2.75-.78,4.21-.53,.78,1.63,2.41,2.81,2.72,5.12-1.8,0-3.5,.11-5.17-.04-1.27-.11-2.94,.76-3.74-.71-.78-1.44,.69-2.46,1.33-3.6Z"/>
    <path class="cls-34" d="M29.3,67.82c1.42-1.49,3.33-1.48,5.17-1.67,.06,3.23,5.62,3.35,4.23,7.37-.72,2.07,1.81,3.47,1.05,5.51-.41,3.57-4.7,2.67-6.02,5.19-.06-.47-.12-.95-.18-1.42-3.17,3.05-2.74-2.49-5-2.14-.62,.1-1.26-1.68,.05-2.21,2.08-.84,1.03-2.08,.71-3.29,1.52,.67,2.75,.71,2.99-1.38,.38-.55,1.24-.62,1.41-1.41-.65,0-.99,.56-1.52,.74-.81-1.85-3.45-2.71-2.89-5.3Z"/>
    <path class="cls-5" d="M30.75,87.94c4.67,.52,9.4,1.27,13.17-4.21-1.85,5.62-8.45,7.27-13.21,4.25,0,0,.03-.04,.03-.04Z"/>
    <path class="cls-20" d="M32.19,73.12c.02-1.36,.25-2.56,2.08-2.19,.78,.16,1.56,.61,1.37,1.45-.43,1.89-2.07,1.3-3.35,1.4-.08-.21-.11-.44-.1-.66Z"/>
    <path class="cls-16" d="M142.41,74.62c-.1,2.31-.51,4.2-2.97,4.18-2.45-.02-2.93-2-2.95-3.9-.02-1.88,.37-3.94,2.79-4.03,2.7-.1,2.96,2.04,3.13,3.75Z"/>
    <path class="cls-33" d="M183.62,71.74c-1.75,.28-2.65-.38-2.66-2.57,0-2.11,.71-2.9,2.78-2.68,1.9,.2,3.94,.37,3.9,2.87-.04,2.4-2.01,2.38-4.02,2.38Z"/>
    <path class="cls-29" d="M229.7,76.75c-.13,1.49-1.08,2.3-2.65,2.39-.9,.05-1.9-.07-1.85-1.27,.07-1.89,1.76-1.75,2.99-2.17,.89-.3,1.45-.12,1.51,1.05Z"/>
    <path class="cls-25" d="M171.41,74.23c.01,2.75-.52,4.63-3.16,4.64-2.67,0-3.13-1.94-3.13-4.09,0-2.03,.53-3.79,2.96-3.88,2.64-.1,3.29,1.69,3.33,3.34Z"/>
    <path class="cls-6" d="M258.95,74.31c0,2.76-.56,4.64-3.19,4.56-2.61-.08-3.05-2-3.03-4.16,.02-2.08,.68-3.75,3.02-3.8,2.6-.05,3.24,1.76,3.2,3.4Z"/>
    <path class="cls-40" d="M202.73,74.73c-.13,2-.49,4.03-3.08,4.15-2.49,.12-3.48-1.59-3.51-3.8-.03-2.08,.49-4.05,3.08-4.19,2.53-.13,3.39,1.52,3.5,3.84Z"/>
    <path class="cls-15" d="M36.05,44.69c-1.66-3.69-1.12-6.44,1.67-8.46,2.73-1.98,6.82-1.68,9.19,.66,2.18,2.16,2.55,5.6,.87,8.11-1.99,2.98-5.28,3.65-9.56,1.97-.3-1.75,1.64-2.02,2.14-3.25,.71-.72,2.28-.48,2.29-2.07-1.66-.2-2.1,1.02-2.66,2.11-1.07,1.34-2.44,1.43-3.95,.93Z"/>
    <path class="cls-24" d="M40.46,44.09c.2,1.69-1.6,1.84-2.24,2.88-1.1-.41-1.79-1.2-2.17-2.28,1.04-.93,2.72-.25,3.67-1.43,.66-.09,1.02,.09,.74,.83Z"/>
    <path class="cls-44" d="M34.5,79.02c-1-.04-2.1,.04-2.17-1.39-.07-1.39,.87-1.59,1.96-1.57,1.08,.02,2.06,.33,2.21,1.52,.2,1.53-1.04,1.35-2.01,1.44Z"/>
    <path class="cls-47" d="M40.46,44.09c-.25-.28-.49-.56-.74-.83-.5-2.4,1.98-2.31,3.04-3.33,.44-.42,1.38,.79,1.42,1.73,.07,1.51-.74,2.29-2.23,2.38-.5,.03-.99,.04-1.49,.05Z"/>
  </g>
</svg>