<?xml version="1.0" encoding="UTF-8"?>
<svg id="Capa_1" data-name="Capa 1" xmlns="http://www.w3.org/2000/svg" xmlns:xlink="http://www.w3.org/1999/xlink" viewBox="0 0 58.92 59.04">
  <defs>
    <style>
      .cls-1 {
        fill: #fff;
      }

      .cls-2 {
        clip-path: url(#clippath);
      }

      .cls-2, .cls-3 {
        clip-rule: evenodd;
      }

      .cls-2, .cls-3, .cls-4 {
        fill: none;
      }

      .cls-5 {
        clip-path: url(#clippath-2);
      }

      .cls-6 {
        clip-path: url(#clippath-1);
      }
    </style>
    <clipPath id="clippath">
      <polygon class="cls-3" points="0 59.04 58.92 59.04 58.92 0 0 0 0 59.04 0 59.04"/>
    </clipPath>
    <clipPath id="clippath-1">
      <polygon class="cls-2" points="0 0 58.92 0 58.92 59.04 0 59.04 0 0 0 0"/>
    </clipPath>
    <clipPath id="clippath-2">
      <polygon class="cls-4" points="0 59.04 58.92 59.04 58.92 0 0 0 0 59.04 0 59.04"/>
    </clipPath>
  </defs>
  <g class="cls-6">
    <g class="cls-5">
      <path class="cls-1" d="M49.15,12.78c0-2.35-1.9-4.26-4.24-4.26-2.35,0-4.25,1.9-4.25,4.26,0,1.44,.72,2.79,1.93,3.57l-3.14,9.21h0c-.87,0-1.71,.26-2.43,.76l-6.34-4.76c.81-2.21-.31-4.66-2.51-5.47-2.2-.81-4.64,.31-5.46,2.52-.68,1.84-.01,3.91,1.61,5.01l-4.05,12.9h-.25c-2.35,0-4.25,1.9-4.26,4.25,0,2.35,1.89,4.26,4.24,4.27,2.35,0,4.25-1.9,4.26-4.25,0-1.35-.63-2.62-1.71-3.42l4.08-13.01h.06c.91,0,1.79-.3,2.52-.84l6.28,4.72c-.2,.51-.31,1.05-.31,1.6,0,2.35,1.9,4.26,4.25,4.26,2.35,0,4.25-1.91,4.25-4.26,0-1.44-.72-2.77-1.92-3.56l3.13-9.22c2.35,0,4.25-1.91,4.25-4.26h0Z"/>
      <polygon class="cls-1" points="12.74 8.52 9.1 8.52 9.1 51.1 50.97 51.1 50.97 47.45 12.74 47.45 12.74 8.52 12.74 8.52 12.74 8.52"/>
    </g>
  </g>
</svg>