<?xml version="1.0" encoding="UTF-8"?>
<svg id="Modo_de_aislamiento" data-name="Modo de aislamiento" xmlns="http://www.w3.org/2000/svg" viewBox="0 0 64.44 64.44">
  <path d="M32.37,12.71c7.9,0,15.81,0,23.71,0,.89,0,1.79,.1,2.68,.21,1.58,.2,2.83,1.84,2.92,3.43,.06,1.09,.11,2.19,.11,3.29,0,8.7,0,17.4,0,26.11,0,.92-.05,1.83-.12,2.75-.14,1.83-1.56,3.28-3.39,3.46-.75,.08-1.51,.12-2.27,.12-15.81,0-31.62,0-47.42,0-.74,0-1.48-.04-2.21-.12-1.79-.19-3.18-1.68-3.26-3.49-.06-1.27-.1-2.55-.1-3.83,0-8.9,0-17.8,0-26.71,0-.68,.05-1.36,.13-2.03,.2-1.55,1.62-2.9,3.24-3.07,.73-.08,1.47-.12,2.21-.12,7.92,0,15.85,0,23.77,0ZM13.05,33.07c1.2,0,2.39,.02,3.59,0,1.28-.02,2.22-.87,2.26-2.15,.06-1.67,.05-3.35,0-5.02-.04-1.33-.81-2.13-2.15-2.17-2.51-.06-5.02-.03-7.52,.01-.95,.02-1.74,.74-1.78,1.71-.09,1.89-.12,3.78-.03,5.67,.06,1.26,.95,1.94,2.22,1.96,1.14,.02,2.27,0,3.41,0Zm6.81,14.38c3.31,0,6.63,0,9.94,0,.38,0,.76-.03,1.12-.13,.74-.21,1.28-.89,1.33-1.61,.06-.83-.29-1.51-1.1-1.79-.63-.21-1.32-.31-1.99-.31-6.19-.02-12.37-.02-18.56,0-.5,0-1,.05-1.49,.13-.9,.14-1.61,.94-1.64,1.8-.03,.86,.53,1.58,1.45,1.81,.34,.09,.71,.1,1.07,.1,3.29,0,6.59,0,9.88,0Zm28.6-24.57c2.09,0,4.19,0,6.28,0,.37,0,.76-.04,1.12-.15,.87-.26,1.35-.85,1.38-1.6,.05-1.26-.8-2.08-2.23-2.08-4.31-.01-8.62-.01-12.93,0-.39,0-.8,.08-1.17,.2-1.11,.36-1.56,1.56-.99,2.56,.47,.84,1.26,1.07,2.13,1.07,2.13,.01,4.27,0,6.4,0Zm-1.52,18.96c.98-.05,1.99-.08,3-.17,1.02-.1,1.77-.89,1.79-1.78,.01-.99-.71-1.87-1.77-1.91-1.99-.07-3.98-.07-5.96,0-1.07,.03-1.84,.93-1.82,1.86,.02,.93,.84,1.76,1.87,1.84,.95,.08,1.91,.11,2.9,.16Zm-34.62-4.05s0,.04,0,.06c-.76,0-1.52-.01-2.27,0-.3,0-.59,.07-.89,.11-1.06,.16-1.66,.87-1.63,1.94,.02,.96,.67,1.72,1.69,1.75,1.99,.06,3.98,.06,5.97,0,1.05-.03,1.79-.88,1.81-1.82,.02-.94-.69-1.75-1.75-1.87-.97-.11-1.95-.13-2.92-.18Zm11.42,4.05s0-.04,0-.06c.72,0,1.44,.01,2.15,0,.32,0,.63-.06,.95-.12,1.02-.17,1.65-.86,1.66-1.81,0-1.01-.56-1.81-1.57-1.86-2.06-.09-4.14-.09-6.2,0-1,.04-1.7,.9-1.7,1.78,0,1.01,.7,1.79,1.78,1.9,.97,.1,1.95,.12,2.92,.17Zm11.58-4.05c-.96,.06-2,.08-3.02,.2-.96,.11-1.62,.85-1.66,1.68-.05,1.09,.63,1.94,1.78,1.99,1.92,.08,3.85,.06,5.78,.01,1.1-.03,1.87-.82,1.91-1.76,.04-1-.68-1.82-1.8-1.94-.97-.11-1.94-.12-3-.18Z"/>
</svg>