<?xml version="1.0" encoding="UTF-8"?>
<svg id="Modo_de_aislamiento" data-name="Modo de aislamiento" xmlns="http://www.w3.org/2000/svg" xmlns:xlink="http://www.w3.org/1999/xlink" viewBox="0 0 64.44 64.44">
  <defs>
    <style>
      .cls-1 {
        fill: #2caa52;
      }

      .cls-2 {
        clip-path: url(#clippath);
      }

      .cls-3 {
        clip-rule: evenodd;
        fill: none;
      }
    </style>
    <clipPath id="clippath">
      <polygon class="cls-3" points="2.76 2.76 61.68 2.76 61.68 61.68 2.76 61.68 2.76 2.76 2.76 2.76"/>
    </clipPath>
  </defs>
  <g class="cls-2">
    <path class="cls-1" d="M50.09,26.23c.13,.19,.33,.24,.5,.32,2.34,1.17,4.67,2.36,7.03,3.51,.98,.48,1.6,1.21,1.61,2.31,.01,1.13-.6,1.87-1.61,2.36-2.35,1.15-4.69,2.33-7.03,3.5-.17,.08-.36,.13-.49,.32,2.55,1.28,5.1,2.54,7.63,3.83,1.2,.61,1.73,1.68,1.42,2.88-.21,.82-.77,1.33-1.51,1.7-4.75,2.37-9.5,4.75-14.25,7.12-3.21,1.61-6.43,3.2-9.63,4.83-1.01,.51-1.92,.52-2.94,0-7.95-4-15.91-7.97-23.87-11.95-1.3-.65-1.85-1.68-1.54-2.92,.19-.8,.72-1.32,1.44-1.68,2.36-1.17,4.72-2.36,7.07-3.54,.17-.09,.34-.17,.54-.28-.12-.21-.33-.24-.5-.33-2.37-1.19-4.75-2.37-7.12-3.56-1.2-.6-1.73-1.68-1.43-2.88,.21-.82,.76-1.33,1.5-1.7,2.36-1.17,4.72-2.35,7.07-3.54,.17-.08,.37-.12,.48-.32-2.55-1.27-5.1-2.54-7.64-3.81-1.58-.79-1.99-2.62-.87-3.88,.23-.26,.51-.45,.82-.61C14.87,13.87,22.97,9.82,31.07,5.77c.9-.45,1.75-.34,2.63,.1,6.69,3.36,13.4,6.71,20.1,10.06,1.28,.64,2.56,1.29,3.85,1.92,.98,.48,1.59,1.22,1.58,2.33,0,1.1-.62,1.84-1.6,2.32-2.52,1.24-5.02,2.49-7.54,3.75Zm-36.82,6.16c.18,.1,.24,.13,.31,.17,6.12,3.06,12.23,6.11,18.34,9.18,.31,.16,.53,.09,.79-.04,6.03-3.02,12.06-6.03,18.08-9.05,.14-.07,.34-.07,.38-.31-2.12-1.06-4.24-2.11-6.35-3.18-.3-.15-.51-.03-.74,.08-3.43,1.72-6.87,3.42-10.29,5.17-1.05,.54-2,.53-3.05,0-3.4-1.74-6.83-3.43-10.24-5.15-.34-.17-.61-.2-.95,0-.6,.34-1.23,.62-1.84,.93-1.45,.72-2.89,1.45-4.44,2.22Zm.06,12.22c.16,.22,.39,.27,.59,.37,5.93,2.97,11.86,5.93,17.79,8.9,.39,.2,.7,.22,1.11,.01,5.99-3.01,11.99-6,17.98-9,.14-.07,.33-.08,.39-.3-2.07-1.04-4.14-2.06-6.2-3.11-.34-.17-.61-.16-.95,.01-3.44,1.74-6.9,3.45-10.34,5.2-.99,.51-1.9,.49-2.89-.02-3.42-1.75-6.86-3.45-10.29-5.17-.25-.12-.46-.28-.79-.11-2.13,1.08-4.26,2.14-6.41,3.21Z"/>
  </g>
</svg>