<svg xmlns="http://www.w3.org/2000/svg" xml:space="preserve" id="katman_1" x="0" y="0" style="enable-background:new 0 0 800 600" version="1.0" viewBox="0 0 800 600"><style>.st1{fill:#ff9d00}</style><g id="Layer_2"><g id="Layer_1-2"><g id="CoinQuoraLogoFinal3"><path id="Path_33" d="M225.6 338.9c-7 0-13.1-1.3-18.4-4-5.2-2.6-9.4-6.6-12.3-11.6-2.9-5.1-4.3-11-4.3-17.8s1.4-12.7 4.3-17.8c2.8-5 7.1-9.1 12.3-11.7 5.3-2.7 11.5-4.1 18.4-4.1 4.2 0 8.3.4 12.3 1.4 3.6.9 6.9 2.3 10 4.3v15.5c-2.7-2.2-5.8-3.7-9.2-4.7-3.8-1-7.8-1.5-11.7-1.5-6.3 0-11.2 1.6-14.6 4.9s-5.2 7.8-5.2 13.7c0 5.8 1.7 10.4 5.2 13.7 3.5 3.3 8.3 5 14.6 5 4 .1 8-.5 11.9-1.6 3.5-1.1 6.8-2.7 9.8-5V333c-5.8 4-13.5 5.9-23.1 5.9zm60 0c-6.1.1-12.2-1.4-17.6-4.2-5.1-2.7-9.4-6.8-12.4-11.8-3-5.1-4.5-10.9-4.5-17.4-.1-6.1 1.5-12.2 4.5-17.5 3-5 7.3-9.1 12.4-11.9 11-5.6 24.1-5.6 35.1 0 5.1 2.7 9.4 6.8 12.4 11.9 3.1 5.3 4.6 11.4 4.5 17.5 0 6.6-1.5 12.4-4.5 17.4-3 5-7.2 9.1-12.4 11.8-5.4 2.9-11.4 4.3-17.5 4.2zm0-15.2c3.1 0 6.2-.7 8.9-2.2 2.7-1.5 4.9-3.7 6.4-6.3 1.6-2.9 2.5-6.3 2.4-9.7.1-3.4-.7-6.7-2.3-9.6-1.5-2.7-3.7-4.9-6.4-6.3-2.8-1.5-5.9-2.3-9-2.3-3.2 0-6.3.7-9.1 2.3-2.7 1.5-4.9 3.7-6.4 6.3-1.6 2.9-2.4 6.3-2.3 9.6-.1 3.4.7 6.7 2.3 9.7 1.5 2.7 3.7 4.9 6.4 6.3 2.8 1.5 6 2.2 9.1 2.2zm40.8-50.4h16.3v64.3h-16.3v-64.3zm24.6 0h16.1l23.6 38.3v-38.3H407v64.3h-16l-23.7-38.4v38.4H351v-64.3z" style="fill:#1d1d1b"/><path id="Path_32" d="M451.9 337.6c-7.3 0-13.7-1.3-19.2-3.9-5.3-2.4-9.7-6.3-12.8-11.2-3-4.8-4.5-10.5-4.5-17.1-.1-6.1 1.5-12.2 4.5-17.5 3-5 7.3-9.1 12.4-11.8 11-5.6 24.1-5.6 35.1 0 5.2 2.7 9.4 6.8 12.4 11.8 3.1 5.3 4.6 11.4 4.5 17.5 0 3.8-.9 7.5-2.6 10.9-1.5 3.3-3.7 6.2-6.5 8.6H486v12.7h-34.1zm-2-13.9c3.1 0 6.2-.7 8.9-2.2 2.7-1.5 4.9-3.7 6.4-6.3 1.6-2.9 2.5-6.3 2.4-9.7.1-3.4-.7-6.7-2.3-9.6-1.5-2.7-3.7-4.9-6.4-6.3-2.8-1.5-5.9-2.3-9-2.3-3.2 0-6.3.7-9.1 2.3-2.7 1.5-4.9 3.7-6.4 6.3-1.6 2.9-2.4 6.3-2.3 9.6-.1 3.4.7 6.7 2.3 9.7 1.5 2.7 3.7 4.9 6.4 6.3 2.8 1.4 5.9 2.2 9.1 2.2zm69.9 15.2c-9.7 0-17-2.6-21.9-7.8-4.9-5.2-7.4-12-7.4-20.6v-37.3h16.3v37.5c0 4.3 1.2 7.5 3.5 9.7 2.3 2.2 5.5 3.3 9.5 3.3s7.2-1.1 9.5-3.3c2.3-2.2 3.4-5.5 3.4-9.7v-37.5H549v37.3c0 8.6-2.4 15.5-7.3 20.6-4.9 5.3-12.2 7.8-21.9 7.8zm69.7 0c-6.1.1-12.2-1.4-17.6-4.2-5.1-2.7-9.4-6.8-12.4-11.8-3-5.1-4.5-10.9-4.5-17.4-.1-6.1 1.5-12.2 4.5-17.5 3-5 7.3-9.1 12.4-11.9 11-5.6 24.1-5.6 35.1 0 5.1 2.7 9.4 6.8 12.4 11.9 3.1 5.3 4.6 11.4 4.5 17.5 0 6.6-1.5 12.4-4.5 17.4-3 5-7.2 9.1-12.4 11.8-5.4 2.9-11.4 4.3-17.5 4.2zm0-15.2c3.1 0 6.2-.7 8.9-2.2 2.7-1.5 4.9-3.7 6.4-6.3 1.6-2.9 2.5-6.3 2.4-9.7.1-3.4-.7-6.7-2.3-9.6-1.5-2.7-3.7-4.9-6.4-6.3-2.8-1.5-5.9-2.3-9-2.3-3.2 0-6.3.7-9.1 2.3-2.7 1.5-4.9 3.7-6.4 6.3-1.6 2.9-2.4 6.3-2.3 9.6-.1 3.4.7 6.7 2.3 9.7 1.5 2.7 3.7 4.9 6.4 6.3 2.9 1.5 6 2.2 9.1 2.2zm40.9-50.4h28.9c7.5 0 13.4 1.9 17.7 5.7s6.4 9.3 6.4 16.4c0 4.8-1 8.9-3.1 12.2-2.1 3.4-5.2 6-8.8 7.5l11.4 22.4H666l-10.2-20.1h-9.2v20.1h-16.3l.1-64.2zm26 30.4c3.3 0 5.8-.6 7.5-1.9 1.8-1.3 2.7-3.4 2.7-6.5 0-3.2-.9-5.4-2.6-6.6-1.7-1.2-4.3-1.8-7.6-1.8h-9.7v16.7l9.7.1zm53.2-30.4h16l25.7 64.3h-16.6l-5.2-13.3h-23.7l-5.2 13.3h-16.7l25.7-64.3zm15.8 38.5-7.8-21.6-7.9 21.6h15.7z" class="st1"/><path id="Subtraction_49" d="M117.9 364.9c-7.6 0-15.1-1.5-22-4.5-6.7-2.9-12.8-7-18-12.3-16.3-16.6-21.1-41.3-12.1-62.8 2.8-6.8 7-13 12.1-18.2 21.7-22.1 57.3-22.4 79.4-.7l.7.7c20.9 21.1 22.2 54.7 3.2 77.5H144c20.4-15 24.9-43.6 9.9-64.1-1.3-1.8-2.7-3.5-4.3-5.1-17.1-17.5-45.2-17.8-62.7-.7l-.7.7c-12.9 13.2-16.7 32.8-9.6 49.8 2.2 5.4 5.5 10.3 9.6 14.4s8.9 7.5 14.2 9.7c5.5 2.4 11.4 3.6 17.4 3.6h34.4c-9.7 7.8-21.8 12-34.3 12zm0-20.2c-4.9 0-9.7-1-14.1-2.9-4.3-1.9-8.3-4.6-11.5-7.9-3.3-3.4-6-7.4-7.8-11.8-3.8-9.2-3.8-19.6 0-28.8 1.8-4.4 4.5-8.4 7.8-11.8 3.3-3.4 7.2-6.1 11.5-7.9 9-3.9 19.3-3.9 28.3 0 4.3 1.9 8.3 4.6 11.5 7.9 3.3 3.4 6 7.4 7.8 11.8 3.8 9.2 3.8 19.6 0 28.8-1.8 4.4-4.5 8.4-7.8 11.8-3.3 3.4-7.2 6.1-11.5 7.9-4.5 1.9-9.3 2.9-14.2 2.9zm-.4-65.7c-3.7 0-7.4.8-10.8 2.2-3.3 1.4-6.3 3.5-8.9 6.1-2.6 2.6-4.6 5.7-6 9.1-2.9 7.1-2.9 15.1 0 22.2 1.4 3.4 3.4 6.5 6 9.1 2.5 2.6 5.5 4.7 8.8 6.1 6.9 3 14.7 3 21.7 0 3.3-1.4 6.3-3.5 8.8-6.1l-5.9-5.9c-7.3 7.6-19.4 7.9-27 .6l-.6-.6c-7.6-8-7.6-20.5 0-28.5 7.3-7.6 19.4-7.9 27-.6l.6.6 5.9-5.9c-2.5-2.6-5.5-4.7-8.8-6.1-3.4-1.5-7.1-2.3-10.8-2.3z" class="st1"/></g></g></g></svg>