<svg data-name="Capa 2" xmlns="http://www.w3.org/2000/svg" xmlns:xlink="http://www.w3.org/1999/xlink" viewBox="0 0 550 560"><defs><linearGradient id="a" data-name="Degradado sin nombre 11" x1="20" y1="280.74" x2="532" y2="280.74" gradientUnits="userSpaceOnUse"><stop offset="0" stop-color="#010202"/><stop offset=".01" stop-color="#010503"/><stop offset=".17" stop-color="#093417"/><stop offset=".3" stop-color="#0f5625"/><stop offset=".41" stop-color="#136b2e"/><stop offset=".49" stop-color="#157332"/><stop offset="1" stop-color="#6cb52d"/></linearGradient><linearGradient id="c" data-name="Degradado sin nombre 11" x1="49.62" y1="280.63" x2="502.07" y2="280.63" xlink:href="#a"/><linearGradient id="d" data-name="Degradado sin nombre 16" x1="76.89" y1="279.14" x2="477" y2="279.14" gradientUnits="userSpaceOnUse"><stop offset="0" stop-color="#010202"/><stop offset=".02" stop-color="#020a05"/><stop offset=".14" stop-color="#0b3919"/><stop offset=".24" stop-color="#125b27"/><stop offset=".33" stop-color="#16702f"/><stop offset=".39" stop-color="#187833"/><stop offset="1" stop-color="#6cb52d"/></linearGradient><clipPath id="b"><path style="fill:none" d="M0 0h550v560H0z"/></clipPath></defs><g data-name="Capa 1"><g data-name="Mesa de trabajo 8" style="clip-path:url(#b)"><path d="M20 444.18V116.82c4.16-11.29 12.03-19.7 20.94-27.45 16.95-14.74 33.79-29.62 50.52-44.61 8.71-7.8 17.45-15.46 28.55-19.77H430c6.88 2.9 13.8 5.46 19.57 10.67 20.51 18.5 41.1 36.92 62.05 54.92 9.19 7.89 16.95 16.4 20.37 28.23v324.37c-4.35 12.38-12.96 21.41-22.81 29.65-9.7 8.11-19.02 16.66-28.51 25.01-11.12 9.78-22.09 19.72-33.41 29.25-7.75 6.53-16.77 9.27-27.21 9.25-96.42-.17-192.85-.11-289.27.14-11.57.03-21-3.85-29.43-11.34-19.14-17.03-38.34-34.01-57.6-50.9-9.79-8.58-19.87-16.85-23.75-30.06ZM520.99 280.6c0-49.89-.11-99.79.09-149.68.04-11.05-3.24-20.19-11.77-27.35-1.78-1.5-3.44-3.15-5.18-4.69-18.95-16.76-38.17-33.24-56.77-50.38-9.39-8.66-19.68-12.64-32.46-12.6-92.31.31-184.63.4-276.95.23-13.15-.02-23.77 4.05-33.41 12.9-19.36 17.8-39.02 35.29-59.02 52.37-9.89 8.44-14.37 18.25-14.34 31.27.24 98.62.24 197.24 0 295.86-.03 13.04 4.49 22.84 14.34 31.28 20.47 17.55 40.57 35.55 60.56 53.65 8.47 7.67 17.83 11.45 29.37 11.42 65.15-.16 130.31 0 195.46.05 29.33.03 58.66.02 87.98.14 9.24.04 17.34-2.58 24.29-8.76 21.15-18.8 42.13-37.8 63.62-56.2 10.05-8.6 14.41-18.72 14.33-31.83-.3-49.23-.12-98.45-.13-147.68Z" style="fill:url(#a)"/><path d="M49.72 280.68c0-50.73.08-101.46-.1-152.18-.02-6.04 1.92-10.27 6.48-14.21 20.77-17.98 41.34-36.19 61.86-54.46 3.85-3.43 7.93-5.01 13.08-5 94.32.14 188.64.25 282.96.14 10.02-.01 17.98 2.74 25.51 9.75 18.87 17.59 38.44 34.42 57.86 51.41 3.31 2.9 4.7 6.14 4.7 10.43-.05 102.79-.05 205.57 0 308.36 0 4.33-1.51 7.62-4.74 10.46-21.4 18.77-42.77 37.58-64.06 56.47-3.46 3.07-7.24 4.31-11.83 4.31-97.15.03-194.31.12-291.46.29-4.45 0-8.01-1.29-11.31-4.23-21.17-18.79-42.37-37.54-63.69-56.15-3.85-3.37-5.33-7.14-5.32-12.2.12-51.06.07-102.12.07-153.18Zm24.34-1.53c0 45.56.06 91.13-.08 136.69-.02 5.25 1.6 9.07 5.61 12.56 18.72 16.27 37.26 32.74 55.81 49.22 3.13 2.78 6.42 4.34 10.75 4.34 86.97.01 173.94.1 260.92.26 4.75 0 8.69-1.21 12.28-4.42 18.87-16.85 37.83-33.6 56.82-50.31 3.23-2.84 4.72-6.1 4.71-10.45-.07-91.96-.07-183.92 0-275.87 0-4.37-1.58-7.49-4.84-10.35-18.91-16.55-37.76-33.18-56.45-49.97-3.71-3.34-7.51-4.91-12.53-4.9-86.64.18-173.28.26-259.92.27-4.43 0-7.99 1.25-11.31 4.21-18.52 16.5-37.08 32.96-55.82 49.19-4.28 3.7-6.07 7.67-6.05 13.34.18 45.4.1 90.79.1 136.19Z" style="fill:url(#c)"/><path d="M476.87 279.71c0 43.57-.13 87.15.12 130.72.04 7.61-2.16 13.02-8.14 18.06-16.53 13.95-32.6 28.46-48.61 43.02-5.09 4.63-10.37 6.85-17.43 6.84-83.98-.1-167.97 0-251.95.26-6.44.02-11.42-1.77-16.19-6.08-15.68-14.18-31.38-28.37-47.65-41.85-7.36-6.1-10.3-12.63-10.13-22.21 1.42-78.82.38-157.65.64-236.47.03-9.47-.26-18.95-.43-28.42-.09-4.81 1.77-8.49 5.47-11.7a6233.86 6233.86 0 0 0 53.99-47.51c3.58-3.19 7.42-4.68 12.19-4.68 85.15.15 170.3.24 255.45.28 5.45 0 9.87 1.62 14 5.33 16.82 15.15 33.74 30.19 50.91 44.94 5.68 4.88 7.91 10.31 7.86 17.76-.26 43.9-.13 87.81-.13 131.72Zm-37.14-66.18c0-23.78-.09-47.55.07-71.33.03-4.76-1.64-6.47-6.42-6.36-10.99.25-21.99.09-32.98.08-3.14 0-6.19-.05-6.12 4.46.06 4.25 2.98 4.14 5.91 4.14 7.66.01 15.33 0 22.99.02 7.89.02 8.04.17 8.05 8.16.01 43.06 0 86.13 0 129.19 0 1.83.03 3.66.06 5.49.06 2.7 1.51 3.85 4.15 3.82 2.61-.03 4.08-1.2 4.2-3.85.07-1.66.09-3.32.09-4.99v-68.84Zm-249.48 35.33c-1.59 2.06-1.19 3.6-1.19 5.04-.03 33.25-.02 66.51-.01 99.76 0 1.16.02 2.34.18 3.48.33 2.27 1.91 2.9 3.98 2.85 1.95-.05 3.2-.91 3.38-2.91.13-1.49.11-2.99.11-4.48 0-21.45-.03-42.9.05-64.35 0-2.21-1.15-5.76 1.05-6.36 2.86-.78 3.32 3.05 4.43 5.04 12.93 23.26 25.74 46.59 38.6 69.89 2.33 4.23 4.36 4.79 7.24 2.2 2.57-2.3.57-4.31-.46-6.2-12.01-21.87-24.08-43.7-36.14-65.54-6.98-12.64-13.96-25.28-21.22-38.42ZM163.9 136.05v.04c-13.16 0-26.32-.01-39.48 0-7.15 0-7.41.24-7.41 7.19-.02 19.62-.01 39.24 0 58.86 0 1.49.03 3 .22 4.48.22 1.67 1.22 2.71 2.97 2.81 1.93.12 3.31-.73 3.6-2.67.27-1.8.3-3.64.3-5.46.03-17.12.08-34.25 0-51.37-.02-4 1.19-6.22 5.66-6.2 23.49.08 46.98.04 70.46 0 3.88 0 6.56 1.52 8.39 5.07 3.28 6.35 6.89 12.53 10.3 18.82 1.33 2.45 2.61 4.1 5.81 2.27 3.19-1.82 2.4-3.79 1.05-6.18-4.24-7.54-8.56-15.03-12.58-22.69-1.96-3.75-4.67-5.08-8.82-5.02-13.49.18-26.99.07-40.48.07Zm221.13 68.07h.03c0-3.33.04-6.65-.02-9.98-.03-1.72-.38-3.4-2.31-4.01-1.84-.58-3.78-.52-5.15.92-1.35 1.43-2.51 3.1-3.48 4.82-3.44 6.08-6.76 12.23-10.13 18.35-17.48 31.77-34.96 63.55-52.46 95.31-1.5 2.72-2.5 4.94 1.27 6.9 3.72 1.94 4.67-.51 5.99-2.9 7.55-13.69 15.11-27.38 22.68-41.07 10.46-18.93 20.93-37.85 31.43-56.76.68-1.23 1.06-3.15 2.93-2.93 1.45.17 1.14 1.84 1.38 2.9.51 2.28 2.1 2.78 4.12 2.72 2.48-.08 3.63-1.53 3.69-3.83.09-3.49.02-6.98.02-10.47Zm-25.05-59.69c3.88 0 6.38.03 8.88 0 2.61-.03 3.98-1.29 4.02-3.99.05-2.79-1.04-4.48-4.01-4.54-2.33-.05-4.66-.09-7-.07-19.91.19-15.05-2.27-24.28 14.31-12.14 21.8-24.08 43.71-36.06 65.6-2.16 3.95-.83 6.89 3.08 7.18 3.1.23 3.66-2.53 4.72-4.43 11.86-21.38 23.82-42.72 35.36-64.27 3.74-6.98 7.76-12.19 15.29-9.77Zm24.61 27.4v-.04c-4.49 0-8.99.02-13.48 0-2.7-.01-4.86.89-6.22 3.36-10.49 19.07-20.98 38.15-31.51 57.2-1.82 3.29-.18 4.94 2.66 6.11 3.49 1.43 4.35-1.51 5.49-3.55 7.94-14.22 15.66-28.56 23.71-42.71 7.63-13.41 4.04-11.6 19.77-11.76 9.25-.09 9.3-.02 10.21 8.99.25 2.47 1.03 4.18 3.84 4.17 2.73-.02 3.9-1.62 3.94-4.12.07-4.48.06-8.97 0-13.45-.03-2.88-1.66-4.18-4.46-4.18h-13.98Zm55.13 196.41v-16.43c0-11.45-.03-22.91-.02-34.36 0-2.85-.78-4.85-4.19-4.86-3.37-.01-4.29 1.91-4.24 4.8.01.66-.02 1.33-.02 1.99v97.61c0 1.16.04 2.32.13 3.48.21 2.47 1.74 3.38 4.06 3.4 4.17.04 4.25-2.86 4.25-5.82 0-16.6 0-33.2.01-49.8Zm-18.63-177.4c0-9.8.02-19.6 0-29.41-.02-7.07-.38-7.45-7.25-7.46-12.82-.03-25.63-.06-38.45.04-3.11.02-7.27-1.09-7.14 4.33.13 5.43 4.38 4.01 7.4 4.05 10.15.15 20.31.03 30.46.08 6.57.03 6.99.45 7 7.18.03 16.95-.03 33.89.06 50.84.01 2.93-1.06 7.04 4.01 6.9 4.92-.13 3.84-4.2 3.88-7.13.12-9.8.05-19.6.05-29.4ZM327.4 260.1c-.06-2.81-2.16-3.43-3.93-4.21-2.65-1.17-3.51.98-4.47 2.71-11.87 21.56-23.71 43.13-35.59 64.68-4.85 8.8-4.99 8.83-10.48.39-1.71-2.63-3.38-2.58-5.82-1.27-2.62 1.41-2.46 3.12-1.21 5.34 3.1 5.51 6.08 11.08 9.19 16.58.78 1.37 1.05 3.65 3 3.58 1.84-.07 2.2-2.28 2.97-3.68 14.92-26.9 29.81-53.81 44.69-80.74.64-1.16 1.16-2.38 1.64-3.38Zm-49.26 50.26c1.72-.4 2.13-1.98 2.83-3.24 6.94-12.49 13.86-24.99 20.77-37.5 5.71-10.32 11.3-20.71 17.15-30.95 2.07-3.62.94-5.44-2.52-6.82-3.37-1.34-3.98 1.41-5.03 3.32-9.95 18.04-19.85 36.1-29.8 54.14-.86 1.56-1.36 3.95-3.3 4.06-2.38.14-2.77-2.55-3.72-4.17-3.08-5.32-6.03-10.71-8.97-16.11-1.26-2.32-2.77-2.98-5.26-1.6-2.58 1.42-3.17 2.99-1.7 5.62 5.67 10.15 11.22 20.37 16.86 30.54.62 1.12 1.1 2.49 2.7 2.69Zm26.72 27.84c-.11-2.56-2.03-3.12-3.64-3.86-2.54-1.17-3.67.69-4.65 2.47-5.17 9.29-10.24 18.64-15.44 27.92-2.81 5.01-3.38 4.99-6.24-.13a8792.81 8792.81 0 0 1-24.15-43.61c-1.3-2.37-2.33-4.21-5.69-2.49-3.52 1.81-2.76 3.71-1.29 6.37 10.47 18.89 20.82 37.85 31.28 56.75 2.66 4.8 3.38 4.8 5.99.11 7.44-13.35 14.82-26.74 22.2-40.13.64-1.15 1.15-2.38 1.63-3.39Zm-66.88-150.36c-4.05.13-5.98 3.15-4.49 6.22 1.23 2.54 2.7 4.96 4.06 7.44 12.58 22.86 25.14 45.72 37.76 68.56 2.41 4.36 3.02 4.38 5.37.22 4.5-7.95 8.82-16.01 13.31-23.97 1.46-2.6.94-4.17-1.66-5.64-2.71-1.53-4.22-.82-5.56 1.75-2.08 3.97-4.32 7.86-6.56 11.75-1.43 2.48-2.96 2.39-4.4-.02-.68-1.14-1.31-2.31-1.95-3.48-10.86-19.63-21.7-39.27-32.6-58.88-.91-1.64-1.38-3.9-3.27-3.95Zm-43.46-33.75h-2.05c-2.38.04-4.83-.08-5.1 3.29-.24 3.01 1.37 4.12 4.11 4.44 3.78.44 5.57 3.3 7.2 6.28 6.23 11.37 12.45 22.75 18.7 34.11 8.82 16.02 17.65 32.03 26.52 48.03 2.18 3.94 4.66 4.45 7.32 1.69 2.35-2.43.16-4.39-.85-6.24-15.87-28.84-31.86-57.61-47.71-86.46-1.98-3.6-4.38-5.81-8.14-5.14Zm172.51 94.77c-.45-.13-.91-.27-1.36-.4-6.79 12.34-13.59 24.68-20.36 37.03-1.32 2.41.19 3.66 2.11 4.72 1.87 1.04 3.67 1.88 5.1-.59 1.17-2.01 2.28-4.06 3.54-6.02.41-.64 1.2-1.51 1.78-1.49 1.3.05 1.22 1.36 1.24 2.3.06 3.66.06 7.31.07 10.97l.03 46.86c0 2.73.51 5.09 4.01 5.01 3.14-.07 3.76-2.2 3.82-4.76.03-1.16.04-2.33.04-3.49v-90.15Zm-195.74-76.84v.05c-4.66 0-9.33.01-13.99 0-2.59 0-4.16 1.11-4.18 3.81-.04 3.99-.2 7.99.07 11.96.23 3.31 3.71 4.9 6.1 3.01 1.87-1.47 1.44-3.66 1.32-5.57-.27-4.11 1.56-5.77 5.57-5.64 3.83.12 7.67.21 11.49-.03 4.98-.31 7.91 1.86 10.24 6.21 9.03 16.85 18.38 33.54 27.58 50.3 1.48 2.69 2.88 4.93 6.52 2.82 3.73-2.16 1.58-4.45.35-6.68-9.39-17.04-19.19-33.87-28.08-51.17-3.65-7.11-8.13-10.37-16-9.13-2.28.36-4.65.05-6.99.05ZM377.17 298.9v12.96c0 13.79.02 27.59.02 41.38 0 2.74.52 5.09 4.02 5 3.11-.08 3.78-2.2 3.86-4.76.03-1.16.05-2.33.05-3.49 0-34.07 0-68.14-.01-102.2 0-1.82-.04-3.67-.36-5.45-.36-1.98-1.95-2.5-3.78-2.49-1.88.02-3.29.75-3.58 2.73-.21 1.47-.21 2.98-.21 4.47-.01 17.28 0 34.57 0 51.85Zm36.09 9.02c0 17.96 0 35.93.01 53.89 0 2.55 0 5.29 3.59 5.41 3.76.13 4.19-2.53 4.24-5.4.01-.83.03-1.66.03-2.49V256.54c0-1.66-.05-3.33-.28-4.97-.25-1.7-1.46-2.54-3.15-2.64-1.56-.1-3.24.05-3.79 1.71-.51 1.53-.62 3.25-.62 4.89-.04 17.46-.03 34.93-.01 52.39Zm-10.18 39.41v-50.8c0-1.66 0-3.34-.25-4.96-.35-2.23-2.01-2.85-4.05-2.79-1.94.06-3.14 1-3.37 2.95-.13 1.15-.15 2.32-.15 3.48V399.3c0 1.16.03 2.33.17 3.48.28 2.21 1.72 3.07 3.83 3.06 2.16-.02 3.48-1.03 3.66-3.23.14-1.65.16-3.31.16-4.97.01-16.77 0-33.54 0-50.3ZM178.67 210.29c3.11 1.53 3.74 3.51 4.67 5.17 7.62 13.62 15.17 27.28 22.78 40.91 2.16 3.87 4.84 4.38 7.3 1.55 1.97-2.27.12-4.1-.84-5.85-9.47-17.15-19.02-34.26-28.56-51.38-1.53-2.76-3.06-5.52-4.68-8.22-1.27-2.14-3.34-2.69-5.63-2.24-2.62.52-2.57 2.72-2.57 4.73-.02 12.12-.01 24.23-.01 36.35 0 2.69.36 5.11 3.92 5.04 3.68-.07 3.61-2.71 3.61-5.28V210.3Zm-54.78 81.05v-51.86c0-1.66-.02-3.33-.23-4.97-.23-1.76-1.47-2.51-3.19-2.5-1.72 0-2.9.79-3.2 2.52-.2 1.14-.25 2.31-.25 3.47-.01 35.24-.01 70.48 0 105.72 0 1.16.02 2.34.2 3.48.3 1.96 1.57 2.82 3.52 2.73 1.77-.08 2.79-1.05 2.98-2.75.16-1.48.17-2.99.17-4.48.01-17.12 0-34.24 0-51.36Zm54.06 26.83v-51.32c0-1.66-.02-3.32-.16-4.98-.17-1.95-1.33-2.98-3.31-2.96-2.02.01-3.06 1.13-3.22 3.06-.11 1.32-.13 2.65-.13 3.98v103.64c0 1.49.01 3 .18 4.48.19 1.73 1.3 2.64 3.03 2.7 1.94.07 3.23-.81 3.44-2.8.16-1.48.17-2.98.17-4.48.01-17.11 0-34.21 0-51.32Zm-17.96-44.91c0-17.13.08-34.25-.08-51.38-.03-2.89 1.82-7.7-3.54-7.65-4.9.05-3.33 4.61-3.34 7.4-.11 34.25-.07 68.5-.07 102.76 0 1.33.01 2.66.1 3.99.13 2.07 1 3.52 3.31 3.57 2.61.06 3.47-1.54 3.55-3.82.05-1.5.07-2.99.07-4.49v-50.38Zm-18.09-9.31h-.02c0-17.94.01-35.88-.02-53.83 0-2.31.18-5.04-3.2-5.16-3.69-.12-3.54 2.74-3.66 5.26-.03.66-.02 1.33-.02 1.99 0 34.22 0 68.45.01 102.67 0 1.65.04 3.34.36 4.95.34 1.73 1.73 2.3 3.41 2.22 1.51-.08 2.6-.82 2.83-2.31.24-1.63.28-3.31.29-4.96.02-16.95.01-33.89.01-50.84Zm-.05 129.02h-.03V349.1c0-2.36-.48-4.42-3.51-4.33-2.67.09-3.18 1.98-3.26 4.14-.04 1.16-.06 2.33-.06 3.49v80.76c0 1 0 1.99.03 2.99.07 2.28.33 4.49 3.34 4.57 3.03.08 3.43-2.04 3.45-4.38.02-1.33.03-2.66.03-3.99v-39.38Zm163.7-20.24c1.64-.21 2.32-2.25 3.26-3.94 11.04-19.9 22.03-39.82 33.09-59.71 1.38-2.49 2.01-4.42-1.13-6.14-3.2-1.76-4.88-.47-6.38 2.26-11.16 20.4-22.39 40.76-33.53 61.18-1.76 3.23.32 6.44 4.69 6.35Zm-26.97 50.02c.39-.49.99-1.06 1.37-1.75 4.7-8.42 9.35-16.87 14.07-25.27 1.26-2.24.73-3.7-1.46-4.88-2.12-1.14-4.08-1.72-5.55.85-1.98 3.46-3.89 6.96-5.87 10.43-2.63 4.6-3.55 4.65-6.14.05-5.23-9.27-10.38-18.58-15.5-27.9-1.21-2.2-2.42-3.45-5.06-1.81-2.34 1.45-3.41 2.95-1.91 5.66 7.89 14.25 15.72 28.54 23.59 42.8.47.85.9 1.84 2.45 1.81Zm80.66-20.99c0 11.11-.03 22.23.02 33.34.01 2.59-.44 5.71 3.57 5.86 4.2.15 4.19-2.93 4.2-5.84.01-22.23.02-44.46 0-66.68 0-2.89.08-6-4.17-5.85-4.01.14-3.59 3.23-3.6 5.83-.05 11.11-.02 22.23-.02 33.34Zm-3.47-230.11c.06-2.8-2.26-3.18-3.87-4.14-2.57-1.52-3.59.48-4.56 2.26-6.9 12.51-13.77 25.05-20.66 37.56-1.31 2.39-2.88 4.52.81 6.54 3.56 1.95 5.01.31 6.57-2.55 6.75-12.4 13.63-24.74 20.46-37.11.48-.87.88-1.78 1.26-2.56Zm-96.29 128.69c-.14-.44-.25-1.12-.56-1.69-7.3-13.26-14.62-26.52-21.97-39.75-1.31-2.37-3.15-1.89-5.11-.77-2.16 1.24-2.6 2.85-1.42 5 7.23 13.11 14.45 26.23 21.68 39.35.79 1.43 1.8 2.52 3.59 1.7 1.65-.75 3.43-1.45 3.79-3.84Zm135.8-59.28v21.42c0 2.49.36 4.75 3.63 4.83 3.42.09 4.18-2.1 4.19-4.89.01-13.95.01-27.89 0-41.84 0-2.81-.87-4.98-4.24-4.86-3.24.12-3.56 2.45-3.57 4.92-.02 6.81 0 13.62 0 20.42Zm17.97 173.66v21.4c0 2.49.38 4.73 3.64 4.82 3.43.09 4.17-2.09 4.18-4.88v-41.81c0-2.81-.84-4.97-4.23-4.84-3.24.12-3.57 2.43-3.58 4.9-.02 6.8 0 13.6 0 20.41Zm-224.19-3c0 7.95-.03 15.91.02 23.86.01 2.32-.14 5 3.23 5.11 3.69.12 3.62-2.71 3.63-5.23.02-15.91.03-31.82 0-47.73 0-2.32.11-5.02-3.23-5.13-3.69-.12-3.6 2.74-3.61 5.25-.05 7.95-.02 15.91-.02 23.86Zm188.14-9.56v16.39c0 2.83.21 5.43 4.07 5.41 3.61-.01 4.46-2.27 4.47-5.24.02-11.09-.01-22.18 0-33.28 0-3.03-.79-5.22-4.44-5.14-3.38.07-4.1 2.17-4.1 4.97.02 5.63 0 11.26 0 16.89ZM150.67 154.64v.04c-3.49 0-6.98.05-10.47-.01-3.53-.07-5.18 1.53-5.13 5.1.08 5.97 0 11.94.03 17.91.01 2.26.25 4.51 3.28 4.58 3.32.07 3.57-2.34 3.61-4.79.06-3.48.13-6.97.06-10.45-.08-3.72 1.53-5.5 5.36-5.39 3.98.12 7.98.09 11.96-.03 2.51-.08 5.95.76 6-3.29.06-4.34-3.56-3.53-6.24-3.64-2.82-.12-5.65-.03-8.47-.03Zm2.39 224.67c0 6.97-.02 13.94.01 20.91.01 2.23.17 4.55 3.19 4.68 3.33.15 3.66-2.25 3.66-4.72.02-13.78.02-27.55.01-41.33 0-2.42-.14-4.93-3.47-4.92-3.34.01-3.42 2.55-3.42 4.95-.02 6.8 0 13.61 0 20.41Zm-29.26 18.48v-21.4c0-2.32-.33-4.49-3.35-4.48-2.96 0-3.42 2.13-3.43 4.47-.01 13.94-.02 27.87 0 41.81 0 2.45.34 4.89 3.65 4.74 3.04-.14 3.09-2.52 3.1-4.73.03-6.8.01-13.6.01-20.41Zm113.26-100.63c-.09-.38-.1-.74-.25-1.01-3.32-6.08-6.58-12.2-10.01-18.22-1.17-2.06-2.86-.88-4.31-.1-1.67.89-3.39 1.91-2.18 4.18 3.11 5.82 6.32 11.59 9.54 17.35.88 1.57 2.29 1.78 3.84.97 1.42-.75 3.17-1.19 3.38-3.17ZM177.8 410.71c0-2.99.08-5.99-.03-8.97-.07-1.94-1.22-3.03-3.23-3.05-1.99-.01-3.25 1.01-3.28 2.97-.1 5.98-.1 11.97-.03 17.95.02 2.15 1.22 3.41 3.49 3.31 2.04-.08 3.01-1.36 3.06-3.24.09-2.99.02-5.98.01-8.98Z" style="fill:url(#d)"/></g></g></svg>