<?xml version="1.0" encoding="UTF-8"?>
<svg id="Capa_1" data-name="Capa 1" xmlns="http://www.w3.org/2000/svg" viewBox="0 0 354.86 314.36">
  <defs>
    <style>
      .cls-1 {
        fill: #e3e2f1;
        fill-rule: evenodd;
      }
    </style>
  </defs>
  <path class="cls-1" d="M172.63,0c43.86-.24,88.17,15.68,123.24,47.8,65.79,60.26,77.58,157.84,30.17,229.15l-6.62,10.04-15.34,18.62c-8.47,10.29-23.74,11.7-34.11,3.16-10.37-8.54-11.9-23.8-3.43-34.08l15.34-18.62,.03,.03,4.29-5.82c34.37-51.86,25.47-123.03-22.72-167.15-51.36-47.03-129.45-46.94-177.9,.21-45.66,44.44-49.97,116.02-11.93,167.81l3.15,3.88,.05-.04,16.1,17.97c8.89,9.92,7.99,25.23-2.01,34.19-10,8.96-25.32,8.18-34.21-1.74l-16.1-17.97,.46-.41-6.36-7.88C-17,208.37-10.7,110.29,52.02,49.13,85.34,16.63,128.77,.24,172.63,0Z"/>
</svg>