<?xml version="1.0" encoding="UTF-8"?>
<svg id="Capa_1" data-name="Capa 1" xmlns="http://www.w3.org/2000/svg" viewBox="0 0 2.71 2.07">
  <defs>
    <style>
      .cls-1 {
        fill: #fff;
      }
    </style>
  </defs>
  <path class="cls-1" d="M2.3,.17C2.12,.09,1.93,.03,1.74,0c0,0,0,0,0,0-.03,.05-.05,.09-.07,.14-.21-.03-.41-.03-.62,0-.02-.05-.04-.1-.07-.14,0,0,0,0,0,0-.19,.03-.38,.09-.55,.17,0,0,0,0,0,0C.06,.7-.04,1.21,.01,1.72c0,0,0,0,0,0,.2,.15,.43,.27,.68,.34,0,0,0,0,0,0,.05-.07,.1-.15,.14-.23,0,0,0,0,0-.01,0,0,0,0,0,0-.07-.03-.14-.06-.21-.1,0,0,0,0,0-.01,0,0,0,0,0,0,.01-.01,.03-.02,.04-.03,0,0,0,0,0,0,.44,.2,.92,.2,1.36,0,0,0,0,0,0,0,.01,.01,.03,.02,.04,.03,0,0,0,0,0,.01,0,0,0,0,0,0-.07,.04-.14,.07-.21,.1,0,0,0,0,0,.01,0,0,0,0,0,0,.04,.08,.09,.15,.14,.23,0,0,0,0,0,0,.24-.07,.47-.19,.68-.34,0,0,0,0,0,0,.06-.59-.09-1.09-.4-1.54,0,0,0,0,0,0h0ZM.91,1.41c-.13,0-.24-.12-.24-.27s.11-.27,.24-.27,.25,.12,.24,.27c0,.15-.11,.27-.24,.27Zm.9,0c-.13,0-.24-.12-.24-.27s.11-.27,.24-.27,.25,.12,.24,.27c0,.15-.11,.27-.24,.27Z"/>
</svg>