<?xml version="1.0" encoding="UTF-8"?>
<svg id="Capa_1" data-name="Capa 1" xmlns="http://www.w3.org/2000/svg" viewBox="0 0 135.31 130.11">
  <defs>
    <style>
      .cls-1 {
        fill: #fff;
      }

      .cls-1, .cls-2 {
        fill-rule: evenodd;
      }

      .cls-2 {
        fill: #132d46;
      }
    </style>
  </defs>
  <path class="cls-1" d="M.97,31.45c1.05-2.11,2.91-3.83,5.32-4.64l15.64-5.25,.51-.62C41.24,.56,71.79-6.22,98.16,6.3c32.45,15.41,46.26,54.2,30.85,86.65-15.41,32.45-54.2,46.26-86.65,30.85C16,111.29,1.93,83.33,5.85,55.88l.17-.89L.48,38.49c-.81-2.42-.57-4.93,.48-7.04H.97Z"/>
  <path class="cls-2" d="M6.83,34.3c.97-1.95,2.69-3.54,4.92-4.28l14.44-4.85,.47-.57C44.03,5.77,72.25-.49,96.59,11.07c29.97,14.23,42.73,50.06,28.5,80.03-14.23,29.97-50.06,42.73-80.03,28.5C20.71,108.03,7.73,82.21,11.34,56.86l.16-.82-5.12-15.24c-.75-2.23-.52-4.55,.45-6.51h0Z"/>
</svg>