<?xml version="1.0" encoding="UTF-8"?>
<svg id="Modo_de_aislamiento" data-name="Modo de aislamiento" xmlns="http://www.w3.org/2000/svg" viewBox="0 0 13.2 13.2">
  <defs>
    <style>
      .cls-1 {
        fill: #fff;
      }

      .cls-2 {
        fill: none;
      }
    </style>
  </defs>
  <rect class="cls-2" width="13.2" height="13.2"/>
  <circle class="cls-1" cx="6.6" cy="6.6" r="1.65"/>
  <path class="cls-1" d="M8.87,1.44H4.33c-1.59,0-2.89,1.29-2.89,2.89v4.54c0,1.59,1.29,2.89,2.89,2.89h4.54c1.59,0,2.89-1.29,2.89-2.89V4.33c0-1.59-1.29-2.89-2.89-2.89Zm-2.27,7.63c-1.37,0-2.47-1.11-2.47-2.47s1.11-2.47,2.47-2.47,2.47,1.11,2.47,2.47c0,1.37-1.11,2.47-2.47,2.47Zm2.68-4.54c-.34,0-.62-.28-.62-.62s.28-.62,.62-.62,.62,.28,.62,.62-.28,.62-.62,.62Z"/>
</svg>