<?xml version="1.0" encoding="UTF-8"?>
<svg id="Capa_1" data-name="Capa 1" xmlns="http://www.w3.org/2000/svg" viewBox="0 0 343.64 305.37">
  <defs>
    <style>
      .cls-1 {
        fill: #fff;
      }
    </style>
  </defs>
  <path class="cls-1" d="M343.64,154.97c.05,3.53-.39,7.06-1.32,10.47s-2.33,6.68-4.18,9.7c-1.84,3.02-4.1,5.77-6.7,8.16s-5.53,4.4-8.7,5.98c.07,.94,.13,1.89,.16,2.84,.08,1.89,.08,3.78,0,5.68-.03,.95-.09,1.9-.16,2.84,0,57.79-67.33,104.74-150.4,104.74S21.94,258.42,21.94,200.63c-.07-.94-.13-1.89-.16-2.84-.08-1.89-.08-3.78,0-5.68,.03-.95,.09-1.9,.16-2.84-10.04-4.62-17.55-13.4-20.54-24.04-2.99-10.64-1.15-22.06,5.03-31.23,6.17-9.17,16.06-15.16,27.04-16.38,10.98-1.23,21.95,2.42,30,10,7.38-5,15.12-9.47,23.15-13.36,8.03-3.88,16.33-7.18,24.84-9.87s17.2-4.74,26-6.17,17.7-2.21,26.62-2.34L183.18,6.38c.21-1.04,.63-2.02,1.23-2.9,.59-.87,1.36-1.62,2.24-2.19,.89-.57,1.88-.97,2.93-1.16,1.04-.19,2.11-.17,3.14,.06l63.2,12.64c6.38-10.96,19.77-15.65,31.59-11.09s18.58,17.05,15.94,29.44c-2.64,12.4-13.9,21.04-26.55,20.39-12.66-.65-22.97-10.4-24.33-23l-55.21-11.61-16.77,80.49c8.81,.19,17.6,1.01,26.29,2.46,17.41,2.9,34.31,8.3,50.18,16.03,7.92,3.86,15.56,8.28,22.85,13.23,5.24-5.03,11.83-8.44,18.96-9.81,7.13-1.38,14.52-.66,21.25,2.07,6.74,2.73,12.54,7.34,16.71,13.29,4.17,5.95,6.53,12.98,6.8,20.24ZM87.62,190.64c1.3,3.13,3.2,5.97,5.6,8.36,2.39,2.4,5.24,4.3,8.36,5.6,3.13,1.29,6.49,1.96,9.87,1.96,10.44,0,19.84-6.29,23.84-15.92,3.99-9.64,1.78-20.73-5.6-28.11-7.38-7.38-18.47-9.59-28.11-5.6-9.64,4-15.92,13.4-15.92,23.84,0,3.39,.66,6.74,1.96,9.87Zm147.75,61.93c1.32-1.29,2.08-3.05,2.1-4.9,.03-1.85-.69-3.63-1.98-4.95s-3.05-2.08-4.9-2.1c-1.85-.03-3.63,.69-5.12,1.81-3.88,2.78-7.99,5.23-12.28,7.32-4.29,2.09-8.75,3.81-13.34,5.15-4.58,1.34-9.27,2.28-14.01,2.83-4.75,.55-9.53,.69-14.29,.43-4.76,.21-9.53,.02-14.26-.57-4.73-.59-9.4-1.58-13.96-2.97-4.57-1.38-9-3.15-13.26-5.28s-8.34-4.62-12.18-7.44c-1.34-1.1-3.03-1.66-4.76-1.57s-3.36,.81-4.59,2.03c-1.22,1.23-1.95,2.86-2.03,4.59s.48,3.42,1.57,4.76c4.53,3.42,9.35,6.44,14.4,9.03s10.32,4.74,15.74,6.43,10.97,2.91,16.6,3.65c5.63,.74,11.31,.99,16.98,.75,5.67,.23,11.35-.02,16.98-.75,11.28-1.48,22.21-4.89,32.34-10.08,5.05-2.59,9.87-5.61,14.4-9.03l-.17,.86Zm-4.73-43.94c3.5,.04,6.97-.64,10.2-1.98,3.23-1.35,6.15-3.33,8.59-5.84s4.33-5.49,5.59-8.76c1.25-3.27,1.82-6.75,1.68-10.25,0-10.44-6.29-19.84-15.92-23.84-9.64-3.99-20.73-1.78-28.11,5.6s-9.59,18.47-5.6,28.11c4,9.64,13.4,15.92,23.84,15.92l-.26,1.03Z"/>
</svg>