<?xml version="1.0" encoding="UTF-8"?>
<svg id="Capa_1" data-name="Capa 1" xmlns="http://www.w3.org/2000/svg" viewBox="0 0 16 13">
  <defs>
    <style>
      .cls-1 {
        fill: #fff;
      }
    </style>
  </defs>
  <path class="cls-1" d="M16,1.54c-.6,.26-1.24,.44-1.89,.52,.69-.41,1.2-1.05,1.44-1.81-.64,.38-1.35,.65-2.08,.79-1.24-1.32-3.31-1.39-4.64-.15-.66,.62-1.04,1.49-1.04,2.39,0,.26,.02,.51,.08,.75-2.64-.13-5.1-1.38-6.76-3.43-.87,1.5-.43,3.42,1.01,4.38-.52-.01-1.03-.15-1.48-.4v.04c0,1.56,1.1,2.91,2.63,3.22-.28,.07-.57,.11-.86,.11-.21,0-.42-.02-.62-.06,.43,1.33,1.66,2.25,3.07,2.28-1.16,.91-2.59,1.4-4.07,1.4-.27,0-.53-.01-.79-.05,1.5,.97,3.25,1.48,5.03,1.47,6.04,0,9.34-5,9.34-9.33,0-.14,0-.28-.01-.42,.65-.46,1.2-1.04,1.64-1.7Z"/>
</svg>