<svg data-name="Capa 2" xmlns="http://www.w3.org/2000/svg" viewBox="0 0 165.03 5.85"><g data-name="Capa 1"><path d="M.49 5.85C-.33 4.18.12 2.42.15.7.15.25.68.01 1.22.01H7.4c.63 0 1.1.29 1.13.89.06 1.35 0 2.7.03 4.04 0 .39-.47.53-.43.9H.49Z" style="fill:#10344c"/><path d="M26.65 5.85c-.86-1.67-.38-3.43-.36-5.15 0-.45.56-.69 1.11-.69h6.43c.65 0 1.15.29 1.17.89.06 1.35 0 2.7.03 4.04 0 .39-.48.53-.45.9h-7.93Z" style="fill:#0f3d4c"/><path d="M52.55 5.85c-.83-1.67-.37-3.43-.35-5.15 0-.45.53-.69 1.07-.69h6.18c.63 0 1.1.29 1.13.89.06 1.35 0 2.69.03 4.04 0 .39-.46.53-.43.9h-7.62Z" style="fill:#0c564d"/><path d="M104.61 5.85c-.83-1.67-.37-3.43-.35-5.15 0-.45.54-.69 1.07-.69h6.18c.63 0 1.1.29 1.13.89.06 1.35 0 2.69.03 4.04 0 .39-.46.53-.43.9h-7.62Z" style="fill:#057f4c"/><path d="M130.53 5.85c-.83-1.67-.37-3.43-.35-5.15 0-.45.54-.69 1.07-.69h6.18c.63 0 1.1.29 1.13.89.06 1.35 0 2.69.03 4.04 0 .39-.46.53-.43.9h-7.62Z" style="fill:#018d47"/><path d="M156.98 5.85c-.85-1.67-.36-3.43-.35-5.15 0-.45.54-.69 1.07-.68 2.06 0 4.11.02 6.17-.01.49 0 .75.38 1.17.43v4.78c-.16.27-.37.48-.65.62h-7.41Z" style="fill:#01c18c"/><path d="M78.69 5.85c-.83-1.67-.37-3.43-.35-5.15 0-.45.53-.69 1.07-.69h5.96c.63 0 1.1.29 1.13.89.06 1.35 0 2.69.03 4.04 0 .39-.46.53-.43.9h-7.41Z" style="fill:#09694e"/></g></svg>