<?xml version="1.0" encoding="UTF-8"?>
<svg id="Capa_1" data-name="Capa 1" xmlns="http://www.w3.org/2000/svg" viewBox="0 0 361.44 316.87">
  <defs>
    <style>
      .cls-1 {
        fill: #a4c290;
      }

      .cls-2 {
        fill: #f6f6f6;
        stroke: #a4c290;
        stroke-miterlimit: 10;
        stroke-width: 2px;
      }
    </style>
  </defs>
  <path class="cls-1" d="M310.11,306.98c42.02-43.44,60.12-105.8,47.25-164.95-11.11-51.09-44.95-95.74-90.94-120.55C219.25-3.96,161.6-7,112.03,13.41S26.09,73.5,9.42,122.63C-9.73,179.07,.73,243.04,36.96,290.38c4.45,5.82,9.24,11.34,14.34,16.6,1.34,1.39,3.46-.73,2.12-2.12C11.83,261.88-5.96,199.96,7.22,141.51,18.46,91.67,51.54,48.3,96.49,24.07,142.61-.79,198.77-3.79,247.34,15.81c47.48,19.15,85.3,59.14,101.74,107.62,18.74,55.24,8.78,117.6-26.3,164.21-4.56,6.06-9.53,11.77-14.8,17.22-1.34,1.39,.78,3.51,2.12,2.12h0Z"/>
  <circle class="cls-2" cx="51.17" cy="307.75" r="7.57"/>
  <circle class="cls-2" cx="308.08" cy="308.31" r="7.57"/>
</svg>