<?xml version="1.0" encoding="UTF-8"?>
<svg id="Layer_2" data-name="Layer 2" xmlns="http://www.w3.org/2000/svg" xmlns:xlink="http://www.w3.org/1999/xlink" viewBox="0 0 354.86 314.36">
  <defs>
    <style>
      .cls-1 {
        letter-spacing: -.03em;
      }

      .cls-1, .cls-2 {
        fill: #fff;
        font-family: WorkSans-Regular, 'Work Sans';
        font-size: 17px;
        isolation: isolate;
      }

      .cls-3 {
        fill: url(#Degradado_sin_nombre_3);
        fill-rule: evenodd;
      }

      .cls-4 {
        letter-spacing: -.03em;
      }
    </style>
    <linearGradient id="Degradado_sin_nombre_3" data-name="Degradado sin nombre 3" x1="-295.17" y1="-109.22" x2="-294.17" y2="-109.22" gradientTransform="translate(104743.28 34490.32) scale(354.86 314.36)" gradientUnits="userSpaceOnUse">
      <stop offset="0" stop-color="#60bca2"/>
      <stop offset="0" stop-color="#375365"/>
      <stop offset=".7" stop-color="#0ba54e"/>
    </linearGradient>
  </defs>
  <g id="Capa_1" data-name="Capa 1">
    <path class="cls-3" d="M172.63,0c43.86-.24,88.17,15.68,123.24,47.8,65.79,60.26,77.58,157.84,30.17,229.15l-6.62,10.04-15.34,18.62c-8.47,10.29-23.74,11.7-34.11,3.16s-11.9-23.8-3.43-34.08l15.34-18.62,.03,.03,4.29-5.82c34.37-51.86,25.47-123.03-22.72-167.15-51.36-47.03-129.45-46.94-177.9,.21-45.66,44.44-49.97,116.02-11.93,167.81l3.15,3.88,.05-.04,16.1,17.97c8.89,9.92,7.99,25.23-2.01,34.19s-25.32,8.18-34.21-1.74l-16.1-17.97,.46-.41-6.36-7.88C-17,208.37-10.7,110.29,52.02,49.13,85.34,16.63,128.77,.24,172.63,0Z"/>
    <text class="cls-1" transform="translate(162.87 33.04)"><tspan x="0" y="0">12 h</tspan></text>
    <text class="cls-2" transform="translate(275.53 291.45)"><tspan class="cls-4" x="0" y="0">2</tspan><tspan x="9.4" y="0">4h</tspan></text>
  </g>
</svg>