<svg id="Capa_2" data-name="Capa 2" xmlns="http://www.w3.org/2000/svg" viewBox="0 0 354.86 314.36"><defs><linearGradient id="Degradado_sin_nombre_3" data-name="Degradado sin nombre 3" x1="-295.17" y1="-109.22" x2="-294.17" y2="-109.22" gradientTransform="matrix(354.86 0 0 314.36 104743.28 34490.32)" gradientUnits="userSpaceOnUse"><stop offset="0" stop-color="#60bca2"/><stop offset="0" stop-color="#375365"/><stop offset=".7" stop-color="#0ba54e"/></linearGradient><style>.cls-1{fill:#fff}.cls-2{isolation:isolate}</style></defs><g id="Capa_1-2" data-name="Capa 1"><path d="M172.63 0c43.86-.24 88.17 15.68 123.24 47.8 65.79 60.26 77.58 157.84 30.17 229.15l-6.62 10.04-15.34 18.62c-8.47 10.29-23.74 11.7-34.11 3.16s-11.9-23.8-3.43-34.08l15.34-18.62.03.03 4.29-5.82c34.37-51.86 25.47-123.03-22.72-167.15-51.36-47.03-129.45-46.94-177.9.21-45.66 44.44-49.97 116.02-11.93 167.81l3.15 3.88.05-.04 16.1 17.97c8.89 9.92 7.99 25.23-2.01 34.19s-25.32 8.18-34.21-1.74l-16.1-17.97.46-.41-6.36-7.88C-17 208.37-10.7 110.29 52.02 49.13 85.34 16.63 128.77.24 172.63 0Z" style="fill:url(#Degradado_sin_nombre_3);fill-rule:evenodd"/><g class="cls-2"><path class="cls-1" d="M164.13 31.94c4.49-3.3 5.88-4.78 5.88-6.77 0-1.33-.92-2.24-2.38-2.24-1.55 0-2.52 1.09-2.67 2.77l-1.19-.71c.29-1.95 1.63-3.33 3.91-3.33s3.76 1.44 3.76 3.52-1.36 3.96-5.37 6.63v.02c.37-.02 1.34-.05 1.68-.05h3.93v1.27h-7.55v-1.1ZM181.33 30.1h-1.99v2.94h-1.36V30.1h-5.47v-1l5.12-7.28h1.72v7.11h1.99v1.17Zm-7.38-1.17h4.03v-4.2l.07-1.8h-.03c-.27.56-.77 1.36-1.12 1.87l-2.94 4.13ZM190.66 27.6v5.44h-1.36v-4.96c0-1.89-.92-2.52-2.09-2.52-1.24 0-2.63.8-2.63 2.97v4.5h-1.36V20.62h1.36v5.18c.59-1.02 1.62-1.44 2.77-1.44 1.82 0 3.31 1.04 3.31 3.23Z"/></g><g class="cls-2"><path class="cls-1" d="M285.1 288.51h-1.99v2.94h-1.36v-2.94h-5.47v-1l5.12-7.28h1.72v7.11h1.99v1.17Zm-7.38-1.17h4.03v-4.2l.07-1.8h-.03c-.27.56-.76 1.36-1.12 1.87l-2.94 4.13ZM294.72 283.02c0 1.16-.59 2.07-1.58 2.52v.02c1.28.48 2.09 1.46 2.09 2.87 0 1.95-1.61 3.2-4.08 3.2s-4.08-1.24-4.08-3.2c0-1.38.8-2.4 2.11-2.87v-.02c-.99-.43-1.6-1.34-1.6-2.52 0-1.82 1.41-2.94 3.57-2.94s3.57 1.12 3.57 2.94Zm-.9 5.27c0-1.29-1.05-2.07-2.67-2.07s-2.67.78-2.67 2.07 1.04 2.06 2.67 2.06 2.67-.78 2.67-2.06Zm-4.83-5.13c0 1.1.87 1.78 2.16 1.78s2.16-.68 2.16-1.78-.83-1.8-2.16-1.8-2.16.66-2.16 1.8ZM305.41 286.01v5.44h-1.36v-4.96c0-1.89-.92-2.52-2.09-2.52-1.24 0-2.63.8-2.63 2.97v4.5h-1.36v-12.41h1.36v5.18c.59-1.02 1.61-1.44 2.77-1.44 1.82 0 3.31 1.04 3.31 3.23Z"/></g></g></svg>