<?xml version="1.0" encoding="UTF-8"?>
<svg id="Modo_de_aislamiento" data-name="Modo de aislamiento" xmlns="http://www.w3.org/2000/svg" viewBox="0 0 361.43 361.41">
	<defs>
		<style>
			.cls-1 {
			fill: url(#Degradado_sin_nombre_3);
			}
		</style>
	</defs>
	<linearGradient id="Degradado_sin_nombre_3" data-name="Degradado sin nombre 3" x1="-295.17" y1="-109.22" x2="-294.17" y2="-109.22" gradientTransform="translate(104743.28 34490.32) scale(354.86 314.36)" gradientUnits="userSpaceOnUse">
		<stop offset="0" stop-color="#60bca2" />
		<stop offset="0" stop-color="#375365" />
		<stop offset=".7" stop-color="#0ba54e" />
	</linearGradient>
	<g id="Capa_1" data-name="Capa 1">
		<path class="cls-1" d="M.7,98.63c2.13-5.7,4.64-11.06,9.66-15.01,8.79-6.94,21.85-7.26,30.67-.38,1.75,1.37,3.39,2.91,4.96,4.48,44.18,44.16,88.36,88.31,132.44,132.56,2.29,2.3,3.28,1.95,5.34-.12,44.27-44.39,88.63-88.7,132.94-133.05,7.76-7.77,16.68-10.89,27.49-7.52,16.07,5.01,22.61,25.85,12.17,39.04-1.16,1.47-2.41,2.89-3.73,4.21-50.71,50.74-101.44,101.47-152.17,152.18-9.68,9.68-21.27,11.57-32.26,5.33-2.47-1.4-4.54-3.32-6.53-5.31C110.94,224.34,60.23,173.59,9.46,122.91c-4.15-4.14-6.8-9.03-8.76-14.42v-9.86Z" />
	</g>
</svg>
