<svg data-name="Capa 1" xmlns="http://www.w3.org/2000/svg" viewBox="0 0 135.31 130.11"><path d="M.97 31.45a9.214 9.214 0 0 1 5.32-4.64l15.64-5.25.51-.62C41.24.56 71.79-6.22 98.16 6.3c32.45 15.41 46.26 54.2 30.85 86.65-15.41 32.45-54.2 46.26-86.65 30.85C16 111.29 1.93 83.33 5.85 55.88l.17-.89-5.54-16.5c-.81-2.42-.57-4.93.48-7.04h.01Z" style="fill-rule:evenodd;fill:#fff"/><path d="M6.83 34.3a8.47 8.47 0 0 1 4.92-4.28l14.44-4.85.47-.57C44.03 5.77 72.25-.49 96.59 11.07c29.97 14.23 42.73 50.06 28.5 80.03-14.23 29.97-50.06 42.73-80.03 28.5-24.35-11.57-37.33-37.39-33.72-62.74l.16-.82L6.38 40.8c-.75-2.23-.52-4.55.45-6.51Z" style="fill:#132d46;fill-rule:evenodd"/></svg>