<svg data-name="Capa 1" xmlns="http://www.w3.org/2000/svg" viewBox="0 0 2.71 2.07"><path d="M2.3.17A2.26 2.26 0 0 0 1.74 0c-.03.05-.05.09-.07.14-.21-.03-.41-.03-.62 0C1.03.09 1.01.04.98 0 .79.03.6.09.43.17.06.7-.04 1.21.01 1.72c.2.15.43.27.68.34.05-.07.1-.15.14-.23v-.01c-.07-.03-.14-.06-.21-.1v-.01c.01-.01.03-.02.04-.03.44.2.92.2 1.36 0 .01.01.03.02.04.03v.01c-.07.04-.14.07-.21.1v.01c.04.08.09.15.14.23.24-.07.47-.19.68-.34.06-.59-.09-1.09-.4-1.54ZM.91 1.41c-.13 0-.24-.12-.24-.27S.78.87.91.87s.25.12.24.27c0 .15-.11.27-.24.27Zm.9 0c-.13 0-.24-.12-.24-.27s.11-.27.24-.27.25.12.24.27c0 .15-.11.27-.24.27Z" style="fill:#fff"/></svg>