<svg data-name="Capa 1" xmlns="http://www.w3.org/2000/svg" viewBox="0 0 343.64 305.37"><path d="M343.64 154.97c.05 3.53-.39 7.06-1.32 10.47s-2.33 6.68-4.18 9.7a37.696 37.696 0 0 1-15.4 14.14c.07.94.13 1.89.16 2.84.08 1.89.08 3.78 0 5.68-.03.95-.09 1.9-.16 2.84 0 57.79-67.33 104.74-150.4 104.74s-150.4-46.96-150.4-104.75c-.07-.94-.13-1.89-.16-2.84-.08-1.89-.08-3.78 0-5.68.03-.95.09-1.9.16-2.84A37.688 37.688 0 0 1 1.4 165.23 37.656 37.656 0 0 1 6.43 134a37.597 37.597 0 0 1 27.04-16.38 37.643 37.643 0 0 1 30 10c7.38-5 15.12-9.47 23.15-13.36 8.03-3.88 16.33-7.18 24.84-9.87s17.2-4.74 26-6.17 17.7-2.21 26.62-2.34l19.1-89.5c.21-1.04.63-2.02 1.23-2.9.59-.87 1.36-1.62 2.24-2.19.89-.57 1.88-.97 2.93-1.16 1.04-.19 2.11-.17 3.14.06l63.2 12.64c6.38-10.96 19.77-15.65 31.59-11.09s18.58 17.05 15.94 29.44c-2.64 12.4-13.9 21.04-26.55 20.39-12.66-.65-22.97-10.4-24.33-23l-55.21-11.61-16.77 80.49c8.81.19 17.6 1.01 26.29 2.46 17.41 2.9 34.31 8.3 50.18 16.03a184.82 184.82 0 0 1 22.85 13.23 37.65 37.65 0 0 1 18.96-9.81c7.13-1.38 14.52-.66 21.25 2.07a37.655 37.655 0 0 1 16.71 13.29 37.709 37.709 0 0 1 6.8 20.24ZM87.62 190.64c1.3 3.13 3.2 5.97 5.6 8.36 2.39 2.4 5.24 4.3 8.36 5.6 3.13 1.29 6.49 1.96 9.87 1.96 10.44 0 19.84-6.29 23.84-15.92a25.796 25.796 0 0 0-5.6-28.11 25.796 25.796 0 0 0-28.11-5.6c-9.64 4-15.92 13.4-15.92 23.84 0 3.39.66 6.74 1.96 9.87Zm147.75 61.93a6.958 6.958 0 0 0 2.1-4.9c.03-1.85-.69-3.63-1.98-4.95s-3.05-2.08-4.9-2.1c-1.85-.03-3.63.69-5.12 1.81a85.031 85.031 0 0 1-12.28 7.32 84.634 84.634 0 0 1-41.64 8.41c-4.76.21-9.53.02-14.26-.57s-9.4-1.58-13.96-2.97c-4.57-1.38-9-3.15-13.26-5.28s-8.34-4.62-12.18-7.44c-1.34-1.1-3.03-1.66-4.76-1.57s-3.36.81-4.59 2.03c-1.22 1.23-1.95 2.86-2.03 4.59s.48 3.42 1.57 4.76c4.53 3.42 9.35 6.44 14.4 9.03s10.32 4.74 15.74 6.43 10.97 2.91 16.6 3.65c5.63.74 11.31.99 16.98.75 5.67.23 11.35-.02 16.98-.75a99.204 99.204 0 0 0 32.34-10.08c5.05-2.59 9.87-5.61 14.4-9.03l-.17.86Zm-4.73-43.94c3.5.04 6.97-.64 10.2-1.98 3.23-1.35 6.15-3.33 8.59-5.84s4.33-5.49 5.59-8.76c1.25-3.27 1.82-6.75 1.68-10.25 0-10.44-6.29-19.84-15.92-23.84-9.64-3.99-20.73-1.78-28.11 5.6s-9.59 18.47-5.6 28.11c4 9.64 13.4 15.92 23.84 15.92l-.26 1.03Z" style="fill:#fff"/></svg>