<svg width="78" height="79" xmlns="http://www.w3.org/2000/svg" xmlns:xlink="http://www.w3.org/1999/xlink" overflow="hidden"><defs><clipPath id="clip0"><rect x="872" y="366" width="78" height="79"/></clipPath></defs><g clip-path="url(#clip0)" transform="translate(-872 -366)"><path d="M65 16.25C65.0026 13.1089 62.4583 10.5604 59.3172 10.5578 56.1761 10.5552 53.6276 13.0995 53.625 16.2406 53.6234 18.1656 54.5956 19.9608 56.2088 21.0112L52 33.3125 52 33.3125C50.8384 33.3112 49.7042 33.6656 48.75 34.3281L40.2675 27.9662C41.3553 25.0195 39.8482 21.7488 36.9015 20.6611 33.9547 19.5734 30.6841 21.0803 29.5964 24.0271 28.6886 26.4862 29.5791 29.2472 31.7525 30.7125L26.3331 47.9375 26 47.9375C22.8589 47.93 20.3065 50.4703 20.299 53.6114 20.2915 56.7526 22.8318 59.305 25.9729 59.3125 29.1141 59.32 31.6665 56.7796 31.6739 53.6385 31.6782 51.8388 30.8305 50.1433 29.3881 49.0669L34.8563 31.6875 34.9375 31.6875C36.1551 31.6852 37.3399 31.2922 38.3175 30.5662L46.7269 36.8631C46.4563 37.5432 46.3158 38.268 46.3125 39 46.3113 42.1411 48.8567 44.6885 51.9978 44.6897 55.1389 44.6909 57.6863 42.1455 57.6875 39.0045 57.6882 37.0872 56.723 35.2986 55.12 34.2469L59.3125 21.9375C62.4536 21.9375 65 19.3911 65 16.25Z" fill="#FFFFFF" transform="matrix(1 0 0 1.01282 872 366)"/><path d="M16.25 10.5625 11.375 10.5625 11.375 67.4375 67.4375 67.4375 67.4375 62.5625 16.25 62.5625 16.25 10.5625Z" fill="#FFFFFF" transform="matrix(1 0 0 1.01282 872 366)"/></g></svg>